<svg version="1.1" viewBox="0.0 0.0 960.0 540.0" fill="none" stroke="none" stroke-linecap="square" stroke-miterlimit="10" xmlns:xlink="http://www.w3.org/1999/xlink" xmlns="http://www.w3.org/2000/svg"><clipPath id="g148d833fac2_0_93.0"><path d="m0 0l960.0 0l0 540.0l-960.0 0l0 -540.0z" clip-rule="nonzero"/></clipPath><g clip-path="url(#g148d833fac2_0_93.0)"><path fill="#ffffff" d="m0 0l960.0 0l0 540.0l-960.0 0z" fill-rule="evenodd"/><path fill="#000000" fill-opacity="0.0" d="m40.503937 84.6813l0 0c0 -41.707752 33.810814 -75.51857 75.51857 -75.51857l749.68726 0c20.028748 0 39.237183 7.956398 53.39972 22.118877c14.162476 14.162481 22.118835 33.37092 22.118835 53.39969l0 302.06522c0 41.707764 -33.81079 75.518585 -75.518555 75.518585l-749.68726 0c-41.707756 0 -75.51857 -33.81082 -75.51857 -75.518585z" fill-rule="evenodd"/><path stroke="#595959" stroke-width="1.0" stroke-linejoin="round" stroke-linecap="butt" d="m40.503937 84.6813l0 0c0 -41.707752 33.810814 -75.51857 75.51857 -75.51857l749.68726 0c20.028748 0 39.237183 7.956398 53.39972 22.118877c14.162476 14.162481 22.118835 33.37092 22.118835 53.39969l0 302.06522c0 41.707764 -33.81079 75.518585 -75.518555 75.518585l-749.68726 0c-41.707756 0 -75.51857 -33.81082 -75.51857 -75.518585z" fill-rule="evenodd"/><path fill="#eeeeee" d="m379.50394 160.13437l0 0c0 -14.310394 11.600861 -25.91127 25.911285 -25.91127l469.78375 0c6.8720703 0 13.4627075 2.7299347 18.322021 7.5892334c4.859314 4.859314 7.5892334 11.449951 7.5892334 18.322037l0 103.64203c0 14.310394 -11.600891 25.911255 -25.911255 25.911255l-469.78375 0c-14.310425 0 -25.911285 -11.600861 -25.911285 -25.911255z" fill-rule="evenodd"/><path stroke="#595959" stroke-width="1.0" stroke-linejoin="round" stroke-linecap="butt" d="m379.50394 160.13437l0 0c0 -14.310394 11.600861 -25.91127 25.911285 -25.91127l469.78375 0c6.8720703 0 13.4627075 2.7299347 18.322021 7.5892334c4.859314 4.859314 7.5892334 11.449951 7.5892334 18.322037l0 103.64203c0 14.310394 -11.600891 25.911255 -25.911255 25.911255l-469.78375 0c-14.310425 0 -25.911285 -11.600861 -25.911285 -25.911255z" fill-rule="evenodd"/><path fill="#000000" fill-opacity="0.0" d="m339.32013 277.1076l0 -137.73227l48.472443 0l0 137.73227z" fill-rule="evenodd"/><path fill="#000000" d="m367.18823 243.15553q0.96875 0 1.671875 0.359375q0.703125 0.34375 1.203125 0.953125q0.484375 0.59375 0.796875 1.375q0.3125 0.78125 0.5 1.625q0.171875 0.84375 0.21875 1.6875q0.0625 0.84375 0.0625 1.59375q0 0.71875 -0.0625 1.5q-0.046875 0.78125 -0.171875 1.5625q-0.125 0.765625 -0.34375 1.515625q-0.21875 0.74998474 -0.546875 1.4218597l-15.09375 0.015625q-0.265625 -0.65625 -0.484375 -1.3906097q-0.21875 -0.734375 -0.359375 -1.5q-0.15625 -0.78125 -0.234375 -1.53125q-0.078125 -0.765625 -0.078125 -1.484375q0 -0.828125 0.109375 -1.671875q0.109375 -0.859375 0.359375 -1.640625q0.234375 -0.78125 0.640625 -1.453125q0.390625 -0.6875 0.96875 -1.203125q0.5625 -0.515625 1.328125 -0.796875q0.765625 -0.28125 1.75 -0.28125q0.65625 0 1.234375 0.1875q0.578125 0.1875 1.03125 0.546875q0.453125 0.34375 0.78125 0.84375q0.328125 0.5 0.46875 1.140625q0.203125 -0.765625 0.59375 -1.390625q0.390625 -0.625 0.9375 -1.0625q0.546875 -0.453125 1.25 -0.6875q0.6875 -0.234375 1.46875 -0.234375zm-6.6875 5.953125q-0.328125 0 -0.5625 0.140625q-0.25 0.140625 -0.40625 0.34375q-0.15625 0.203125 -0.21875 0.453125q-0.078125 0.234375 -0.078125 0.421875q0 0.234375 0.078125 0.453125q0.0625 0.21875 0.15625 0.4375l2.609375 0.0625q0 -0.265625 -0.046875 -0.65625q-0.046875 -0.40625 -0.203125 -0.765625q-0.15625 -0.375 -0.46875 -0.625q-0.3125 -0.265625 -0.859375 -0.265625zm3.828125 1.65625q0 0.34375 0.0625 0.65625l2.671875 0.046875q0.046875 -0.171875 0.078125 -0.34375q0.015625 -0.171875 0.015625 -0.328125q0 -0.25 -0.046875 -0.546875q-0.046875 -0.296875 -0.203125 -0.546875q-0.171875 -0.265625 -0.4375 -0.421875q-0.265625 -0.171875 -0.71875 -0.171875q-0.4375 0 -0.71875 0.171875q-0.28125 0.15625 -0.4375 0.40625q-0.15625 0.25 -0.203125 0.546875q-0.0625 0.28125 -0.0625 0.53125zm6.015625 -23.011719l0.75 5.8125l-2.640625 0.703125l0 2.671875l2.640625 0.578125l-0.578125 5.984375l-15.609375 -4.671875l-0.328125 -6.515625l15.765625 -4.5625zm-5.484375 6.9375l-4.078125 0.890625l4.078125 0.859375l0 -1.75zm-9.515625 -18.0625l4.953125 0.421875q-0.09375 0.34375 -0.125 0.671875q-0.046875 0.328125 -0.046875 0.671875q0 0.828125 0.21875 1.59375q0.203125 0.75 0.640625 1.328125q0.4375 0.578125 1.109375 0.921875q0.65625 0.34375 1.546875 0.34375q0.65625 0 1.15625 -0.1875q0.484375 -0.203125 0.8125 -0.546875q0.3125 -0.359375 0.484375 -0.875q0.15625 -0.515625 0.15625 -1.125q0 -0.4375 -0.078125 -0.890625q-0.09375 -0.46875 -0.25 -0.921875q-0.15625 -0.453125 -0.34375 -0.875q-0.203125 -0.421875 -0.4375 -0.78125l5.515625 0.1875q0.234375 0.453125 0.421875 0.984375q0.171875 0.515625 0.3125 1.078125q0.140625 0.5625 0.203125 1.125q0.078125 0.546875 0.078125 1.046875q0 1.671875 -0.625 3.03125q-0.625 1.359375 -1.6875 2.34375q-1.078125 0.984375 -2.5 1.53125q-1.421875 0.53125 -3.03125 0.53125q-1.921875 0 -3.578125 -0.546875q-1.671875 -0.546875 -2.890625 -1.609375q-1.21875 -1.0625 -1.921875 -2.625q-0.703125 -1.5625 -0.703125 -3.59375q0 -0.8125 0.140625 -1.640625q0.125 -0.828125 0.46875 -1.59375zm0.875 -15.5234375l6.15625 5.171875l8.0625 -4.75l0.96875 5.4375l-4.828125 3.5625l4.59375 0.1875l0.1875 4.875l-16.78125 -0.375l0.296875 -5.46875l4.828125 0.421875l-4.890625 -3.390625l1.40625 -5.671875zm5.671875 -12.1953125q1.015625 0 2.03125 0.140625q0.140625 2.0 0.421875 3.984375q0.28125 1.96875 0.5625 3.953125q0.84375 -0.296875 1.359375 -0.953125q0.5 -0.65625 0.5 -1.546875q0 -0.46875 -0.171875 -1.03125q-0.1875 -0.5625 -0.4375 -1.109375q-0.265625 -0.546875 -0.5625 -1.046875q-0.3125 -0.515625 -0.5625 -0.875l5.3125 0.5625q0.359375 0.453125 0.609375 1.0q0.234375 0.53125 0.390625 1.109375q0.15625 0.5625 0.21875 1.15625q0.078125 0.578125 0.078125 1.140625q0 1.15625 -0.3125 2.125q-0.328125 0.953125 -0.890625 1.734375q-0.5625 0.78125 -1.328125 1.375q-0.78125 0.578125 -1.6875 0.96875q-0.921875 0.390625 -1.9375 0.59375q-1.03125 0.1875 -2.078125 0.1875q-1.078125 0 -2.171875 -0.1875q-1.09375 -0.203125 -2.09375 -0.609375q-1.015625 -0.40625 -1.875 -1.015625q-0.859375 -0.625 -1.5 -1.4375q-0.65625 -0.828125 -1.015625 -1.859375q-0.359375 -1.046875 -0.359375 -2.296875q0 -1.046875 0.296875 -1.90625q0.28125 -0.859375 0.796875 -1.53125q0.5 -0.671875 1.203125 -1.171875q0.703125 -0.5 1.546875 -0.8125q0.828125 -0.328125 1.765625 -0.484375q0.921875 -0.15625 1.890625 -0.15625zm-0.609375 4.6875q-0.328125 0 -0.671875 0.078125q-0.34375 0.0625 -0.625 0.21875q-0.28125 0.15625 -0.46875 0.421875q-0.1875 0.25 -0.1875 0.640625q0 0.46875 0.265625 0.828125q0.25 0.34375 0.625 0.609375q0.375 0.25 0.828125 0.421875q0.4375 0.15625 0.8125 0.25l-0.328125 -3.46875l-0.25 0zm4.140625 -19.996094q1.328125 0 2.625 0.03125q1.296875 0.03125 2.609375 0.078125l-0.125 6.75q-2.0625 -0.34375 -4.125 -0.59375q-2.078125 -0.265625 -4.1875 -0.265625q-0.15625 0 -0.484375 0.015625q-0.34375 0 -0.765625 0.046875q-0.4375 0.03125 -0.890625 0.09375q-0.453125 0.0625 -0.828125 0.171875q-0.375 0.109375 -0.609375 0.28125q-0.25 0.15625 -0.25 0.375q0 0.390625 0.234375 0.671875q0.234375 0.28125 0.609375 0.46875q0.375 0.171875 0.828125 0.28125q0.453125 0.09375 0.921875 0.15625q0.453125 0.046875 0.859375 0.0625q0.390625 0.015625 0.65625 0.015625q2.078125 0.0625 4.125 0.109375q2.03125 0.03125 4.125 0.078125l0.25 5.984375q-4.125 -0.234375 -8.21875 -0.453125q-4.09375 -0.21875 -8.234375 -0.34375l-0.28125 -5.53125l1.875 0.046875q-0.390625 -0.328125 -0.734375 -0.703125q-0.359375 -0.390625 -0.609375 -0.8125q-0.25 -0.4375 -0.390625 -0.921875q-0.15625 -0.5 -0.15625 -1.03125q0 -1.0 0.328125 -1.75q0.328125 -0.75 0.890625 -1.28125q0.5625 -0.546875 1.328125 -0.90625q0.765625 -0.359375 1.640625 -0.578125q0.859375 -0.234375 1.8125 -0.34375q0.9375 -0.125 1.859375 -0.15625q0.90625 -0.046875 1.765625 -0.046875q0.84375 0 1.546875 0zm-3.375 -14.378906q1.640625 0 2.953125 0.421875q1.296875 0.421875 2.296875 1.1875q1.0 0.75 1.703125 1.796875q0.703125 1.03125 1.15625 2.28125q0.453125 1.234375 0.671875 2.640625q0.203125 1.390625 0.203125 2.875q0 0.546875 -0.03125 1.078125q-0.03125 0.53125 -0.09375 1.078125l-15.25 -0.328125q-0.40625 -1.296875 -0.578125 -2.65625q-0.171875 -1.359375 -0.171875 -2.71875q0 -1.671875 0.46875 -3.078125q0.46875 -1.40625 1.375 -2.421875q0.90625 -1.015625 2.234375 -1.578125q1.328125 -0.578125 3.0625 -0.578125zm4.5 7.96875q-0.09375 -0.703125 -0.421875 -1.28125q-0.328125 -0.578125 -0.796875 -1.0q-0.46875 -0.421875 -1.078125 -0.65625q-0.609375 -0.234375 -1.28125 -0.234375q-0.671875 0 -1.25 0.140625q-0.578125 0.140625 -1.0 0.46875q-0.4375 0.3125 -0.6875 0.828125q-0.25 0.515625 -0.28125 1.265625l6.796875 0.46875z" fill-rule="nonzero"/><path fill="#eeeeee" d="m112.13648 160.13437l0 0c0 -14.310394 11.600876 -25.91127 25.911278 -25.91127l156.30344 0c6.872101 0 13.462738 2.7299347 18.322021 7.5892334c4.859314 4.859314 7.589264 11.449951 7.589264 18.322037l0 103.64203c0 14.310394 -11.600891 25.911255 -25.911285 25.911255l-156.30344 0l0 0c-14.310402 0 -25.911278 -11.600861 -25.911278 -25.911255z" fill-rule="evenodd"/><path stroke="#595959" stroke-width="1.0" stroke-linejoin="round" stroke-linecap="butt" d="m112.13648 160.13437l0 0c0 -14.310394 11.600876 -25.91127 25.911278 -25.91127l156.30344 0c6.872101 0 13.462738 2.7299347 18.322021 7.5892334c4.859314 4.859314 7.589264 11.449951 7.589264 18.322037l0 103.64203c0 14.310394 -11.600891 25.911255 -25.911285 25.911255l-156.30344 0l0 0c-14.310402 0 -25.911278 -11.600861 -25.911278 -25.911255z" fill-rule="evenodd"/><path fill="#000000" fill-opacity="0.0" d="m71.391075 326.11548l0 -232.62991l48.472443 0l0 232.62991z" fill-rule="evenodd"/><path fill="#000000" d="m86.9467 277.97824l4.953125 0.65625q-0.09375 0.34375 -0.125 0.6875q-0.046875 0.34375 -0.046875 0.671875q0 0.875 0.234375 1.65625q0.234375 0.78125 0.703125 1.390625q0.46875 0.609375 1.171875 0.96875q0.703125 0.34375 1.640625 0.34375q0.609375 0 1.0625 -0.1875q0.4375 -0.1875 0.734375 -0.53125q0.296875 -0.359375 0.4375 -0.84375q0.140625 -0.484375 0.140625 -1.0625q0 -0.421875 -0.09375 -0.890625q-0.09375 -0.46875 -0.25 -0.921875q-0.15625 -0.46875 -0.34375 -0.890625q-0.203125 -0.4375 -0.421875 -0.8125l5.515625 0.46875q0.234375 0.46875 0.421875 1.0q0.171875 0.53125 0.3125 1.09375q0.125 0.5625 0.203125 1.125q0.0625 0.5625 0.0625 1.078125q0 1.484375 -0.546875 2.78125q-0.546875 1.28125 -1.5 2.234375q-0.96875 0.953125 -2.265625 1.5q-1.3125 0.53125 -2.828125 0.53125q-2.0 0 -3.78125 -0.5625q-1.78125 -0.578125 -3.109375 -1.6875q-1.34375 -1.125 -2.109375 -2.765625q-0.78125 -1.640625 -0.78125 -3.796875q0 -0.796875 0.140625 -1.640625q0.125 -0.859375 0.46875 -1.59375zm7.5 -15.0234375q1.078125 0 2.0625 0.25q0.984375 0.234375 1.859375 0.703125q0.859375 0.453125 1.59375 1.125q0.71875 0.65625 1.234375 1.484375q0.515625 0.828125 0.796875 1.796875q0.28125 0.96875 0.28125 2.0625q0 1.0625 -0.265625 2.015625q-0.265625 0.953125 -0.75 1.78125q-0.484375 0.828125 -1.171875 1.515625q-0.6875 0.671875 -1.515625 1.140625q-0.84375 0.46875 -1.796875 0.734375q-0.96875 0.265625 -2.015625 0.265625q-1.015625 0 -2.0 -0.234375q-0.984375 -0.25 -1.84375 -0.71875q-0.875 -0.46875 -1.59375 -1.125q-0.734375 -0.65625 -1.25 -1.46875q-0.53125 -0.8125 -0.828125 -1.75q-0.296875 -0.953125 -0.296875 -2.015625q0 -1.703125 0.53125 -3.09375q0.53125 -1.40625 1.515625 -2.390625q0.96875 -1.0 2.359375 -1.53125q1.390625 -0.546875 3.09375 -0.546875zm0.3125 5.203125q-0.5 0 -0.96875 0.140625q-0.484375 0.140625 -0.84375 0.421875q-0.375 0.28125 -0.609375 0.703125q-0.234375 0.421875 -0.234375 0.953125q0 0.546875 0.203125 0.984375q0.203125 0.4375 0.546875 0.75q0.34375 0.3125 0.8125 0.484375q0.453125 0.15625 0.96875 0.15625q0.5 0 1.0 -0.140625q0.484375 -0.140625 0.890625 -0.421875q0.390625 -0.28125 0.640625 -0.703125q0.234375 -0.421875 0.234375 -0.96875q0 -0.546875 -0.203125 -0.984375q-0.21875 -0.4375 -0.59375 -0.734375q-0.375 -0.3125 -0.84375 -0.46875q-0.484375 -0.171875 -1.0 -0.171875zm2.734375 -20.441391q1.328125 0 2.625 0.03125q1.296875 0.03125 2.609375 0.078125l-0.125 6.75q-2.0625 -0.34375 -4.125 -0.59375q-2.078125 -0.265625 -4.1875 -0.265625q-0.15625 0 -0.484375 0.015625q-0.34375 0 -0.765625 0.046875q-0.4375 0.03125 -0.890625 0.09375q-0.453125 0.0625 -0.828125 0.171875q-0.375 0.109375 -0.609375 0.28125q-0.25 0.15625 -0.25 0.375q0 0.390625 0.234375 0.671875q0.234375 0.28125 0.609375 0.46875q0.375 0.17185974 0.828125 0.28123474q0.453125 0.09375 0.921875 0.15625q0.453125 0.046875 0.859375 0.0625q0.390625 0.015625 0.65625 0.015625q2.078125 0.0625 4.125 0.109375q2.03125 0.03125 4.125 0.078125l0.25 5.984375q-4.125 -0.234375 -8.21875 -0.453125q-4.09375 -0.21875 -8.234375 -0.34375l-0.28125 -5.53125l1.875 0.046875q-0.390625 -0.32810974 -0.734375 -0.70310974q-0.359375 -0.390625 -0.609375 -0.8125q-0.25 -0.4375 -0.390625 -0.921875q-0.15625 -0.5 -0.15625 -1.03125q0 -1.0 0.328125 -1.75q0.328125 -0.75 0.890625 -1.28125q0.5625 -0.546875 1.328125 -0.90625q0.765625 -0.359375 1.640625 -0.578125q0.859375 -0.234375 1.8125 -0.34375q0.9375 -0.125 1.859375 -0.15625q0.90625 -0.046875 1.765625 -0.046875q0.84375 0 1.546875 0zm-10.59375 -13.519531l4.96875 0.125l0.140625 3.484375l10.875 0.421875l0.265625 4.953125l-10.875 0.4375l0.1875 3.5l-5.53125 -0.140625l-0.03125 -12.78125zm15.515625 -13.9140625l0.75 5.8125l-2.640625 0.703125l0 2.671875l2.640625 0.578125l-0.578125 5.984375l-15.609375 -4.671875l-0.328125 -6.515625l15.765625 -4.5625zm-5.484375 6.9375l-4.078125 0.890625l4.078125 0.859375l0 -1.75zm-10.0 -13.3046875l15.953125 0.828125l0.265625 4.9375l-15.890625 0.46875l-0.328125 -6.234375zm10.5625 -15.488281q1.328125 0 2.625 0.03125q1.296875 0.03125 2.609375 0.078125l-0.125 6.75q-2.0625 -0.34375 -4.125 -0.59375q-2.078125 -0.265625 -4.1875 -0.265625q-0.15625 0 -0.484375 0.015625q-0.34375 0 -0.765625 0.046875q-0.4375 0.03125 -0.890625 0.09375q-0.453125 0.0625 -0.828125 0.171875q-0.375 0.109375 -0.609375 0.28125q-0.25 0.15625 -0.25 0.375q0 0.390625 0.234375 0.671875q0.234375 0.28125 0.609375 0.46875q0.375 0.171875 0.828125 0.28125q0.453125 0.09375 0.921875 0.15625q0.453125 0.046875 0.859375 0.0625q0.390625 0.015625 0.65625 0.015625q2.078125 0.0625 4.125 0.109375q2.03125 0.03125 4.125 0.078125l0.25 5.984375q-4.125 -0.234375 -8.21875 -0.453125q-4.09375 -0.21875 -8.234375 -0.34375l-0.28125 -5.53125l1.875 0.046875q-0.390625 -0.328125 -0.734375 -0.703125q-0.359375 -0.390625 -0.609375 -0.8125q-0.25 -0.4375 -0.390625 -0.921875q-0.15625 -0.5 -0.15625 -1.03125q0 -1.0 0.328125 -1.75q0.328125 -0.75 0.890625 -1.28125q0.5625 -0.546875 1.328125 -0.90625q0.765625 -0.359375 1.640625 -0.578125q0.859375 -0.234375 1.8125 -0.34375q0.9375 -0.125 1.859375 -0.15625q0.90625 -0.046875 1.765625 -0.046875q0.84375 0 1.546875 0zm-3.53125 -14.1757965q1.015625 0 2.03125 0.140625q0.140625 2.0 0.421875 3.984375q0.28125 1.96875 0.5625 3.953125q0.84375 -0.296875 1.359375 -0.953125q0.5 -0.65625 0.5 -1.546875q0 -0.46875 -0.171875 -1.03125q-0.1875 -0.5625 -0.4375 -1.109375q-0.265625 -0.546875 -0.5625 -1.046875q-0.3125 -0.515625 -0.5625 -0.875l5.3125 0.5625q0.359375 0.453125 0.609375 1.0q0.234375 0.53125 0.390625 1.109375q0.15625 0.5625 0.21875 1.15625q0.078125 0.578125 0.078125 1.140625q0 1.15625 -0.3125 2.125q-0.328125 0.953125 -0.890625 1.734375q-0.5625 0.78125 -1.328125 1.375q-0.78125 0.578125 -1.6875 0.96875q-0.921875 0.390625 -1.9375 0.59375q-1.03125 0.1875 -2.078125 0.1875q-1.078125 0 -2.171875 -0.1875q-1.09375 -0.203125 -2.09375 -0.609375q-1.015625 -0.40625 -1.875 -1.015625q-0.859375 -0.625 -1.5 -1.4375q-0.65625 -0.828125 -1.015625 -1.859375q-0.359375 -1.046875 -0.359375 -2.296875q0 -1.046875 0.296875 -1.90625q0.28125 -0.859375 0.796875 -1.53125q0.5 -0.671875 1.203125 -1.171875q0.703125 -0.5 1.546875 -0.8125q0.828125 -0.328125 1.765625 -0.484375q0.921875 -0.15625 1.890625 -0.15625zm-0.609375 4.6875q-0.328125 0 -0.671875 0.078125q-0.34375 0.0625 -0.625 0.21875q-0.28125 0.15625 -0.46875 0.421875q-0.1875 0.25 -0.1875 0.640625q0 0.46875 0.265625 0.828125q0.25 0.34375 0.625 0.609375q0.375 0.25 0.828125 0.421875q0.4375 0.15625 0.8125 0.25l-0.328125 -3.46875l-0.25 0zm-1.21875 -19.183594q0.90625 0 1.65625 0.15625q0.75 0.15625 1.375 0.5q0.609375 0.328125 1.140625 0.875q0.53125 0.53125 1.0 1.296875l4.96875 -2.78125l1.03125 5.265625l-4.984375 1.8125l0.046875 1.453125l4.875 0.203125l0 5.046875q-2.671875 -0.0625 -5.3125 -0.109375q-2.65625 -0.0625 -5.328125 -0.125q-1.34375 -0.03125 -2.671875 -0.046875q-1.328125 -0.03125 -2.671875 -0.09375q-0.3125 -0.828125 -0.5 -1.625q-0.203125 -0.796875 -0.3125 -1.59375q-0.109375 -0.8125 -0.15625 -1.625q-0.046875 -0.828125 -0.046875 -1.703125q0 -1.328125 0.375 -2.578125q0.375 -1.25 1.109375 -2.203125q0.734375 -0.96875 1.84375 -1.546875q1.09375 -0.578125 2.5625 -0.578125zm0.375 5.25q-0.5 0 -0.90625 0.140625q-0.40625 0.125 -0.703125 0.390625q-0.296875 0.265625 -0.46875 0.65625q-0.171875 0.390625 -0.171875 0.921875q0 0.234375 0.03125 0.453125q0.03125 0.21875 0.078125 0.4375l4.359375 0.1875l0 -0.28125q0 -0.515625 -0.125 -1.03125q-0.125 -0.515625 -0.390625 -0.9375q-0.28125 -0.421875 -0.703125 -0.671875q-0.421875 -0.265625 -1.0 -0.265625zm4.234375 -16.371094l5.203125 0.5l0.78125 9.859375q-4.09375 -0.0625 -8.125 -0.140625q-4.046875 -0.09375 -8.140625 -0.234375l0 -6.09375q2.5625 0.28125 5.125 0.53125q2.5625 0.234375 5.15625 0.34375q0.03125 -0.546875 0.03125 -1.078125q0 -0.546875 0 -1.109375q0 -0.65625 -0.015625 -1.28125q-0.015625 -0.640625 -0.015625 -1.296875zm5.671875 -15.3203125l0.75 5.8125l-2.640625 0.703125l0 2.671875l2.640625 0.578125l-0.578125 5.984375l-15.609375 -4.671875l-0.328125 -6.515625l15.765625 -4.5625zm-5.484375 6.9375l-4.078125 0.890625l4.078125 0.859375l0 -1.75zm2.328125 -20.820312q0.96875 0 1.671875 0.359375q0.703125 0.34375 1.203125 0.953125q0.484375 0.59375 0.796875 1.375q0.3125 0.78125 0.5 1.625q0.171875 0.84375 0.21875 1.6875q0.0625 0.84375 0.0625 1.59375q0 0.71875 -0.0625 1.5q-0.046875 0.78125 -0.171875 1.5625q-0.125 0.765625 -0.34375 1.515625q-0.21875 0.75 -0.546875 1.421875l-15.09375 0.015625q-0.265625 -0.65625 -0.484375 -1.390625q-0.21875 -0.734375 -0.359375 -1.5q-0.15625 -0.78125 -0.234375 -1.53125q-0.078125 -0.765625 -0.078125 -1.484375q0 -0.828125 0.109375 -1.671875q0.109375 -0.859375 0.359375 -1.640625q0.234375 -0.78125 0.640625 -1.453125q0.390625 -0.6875 0.96875 -1.203125q0.5625 -0.515625 1.328125 -0.796875q0.765625 -0.28125 1.75 -0.28125q0.65625 0 1.234375 0.1875q0.578125 0.1875 1.03125 0.546875q0.453125 0.34375 0.78125 0.84375q0.328125 0.5 0.46875 1.140625q0.203125 -0.765625 0.59375 -1.390625q0.390625 -0.625 0.9375 -1.0625q0.546875 -0.453125 1.25 -0.6875q0.6875 -0.234375 1.46875 -0.234375zm-6.6875 5.953125q-0.328125 0 -0.5625 0.140625q-0.25 0.140625 -0.40625 0.34375q-0.15625 0.203125 -0.21875 0.453125q-0.078125 0.234375 -0.078125 0.421875q0 0.234375 0.078125 0.453125q0.0625 0.21875 0.15625 0.4375l2.609375 0.0625q0 -0.265625 -0.046875 -0.65625q-0.046875 -0.40625 -0.203125 -0.765625q-0.15625 -0.375 -0.46875 -0.625q-0.3125 -0.265625 -0.859375 -0.265625zm3.828125 1.65625q0 0.34375 0.0625 0.65625l2.671875 0.046875q0.046875 -0.171875 0.078125 -0.34375q0.015625 -0.171875 0.015625 -0.328125q0 -0.25 -0.046875 -0.546875q-0.046875 -0.296875 -0.203125 -0.546875q-0.171875 -0.265625 -0.4375 -0.421875q-0.265625 -0.171875 -0.71875 -0.171875q-0.4375 0 -0.71875 0.171875q-0.28125 0.15625 -0.4375 0.40625q-0.15625 0.25 -0.203125 0.546875q-0.0625 0.28125 -0.0625 0.53125z" fill-rule="nonzero"/><path fill="#eeeeee" d="m171.37007 167.82971l0 0c0 -8.871521 7.191803 -16.063309 16.063324 -16.063309l74.73952 0c4.260254 0 8.346008 1.6923828 11.358459 4.704834c3.0124817 3.0124512 4.704834 7.098221 4.704834 11.358475l0 64.25133c0 8.871521 -7.1917725 16.063324 -16.063293 16.063324l-74.73952 0c-8.871521 0 -16.063324 -7.191803 -16.063324 -16.063324z" fill-rule="evenodd"/><path stroke="#595959" stroke-width="1.0" stroke-linejoin="round" stroke-linecap="butt" d="m171.37007 167.82971l0 0c0 -8.871521 7.191803 -16.063309 16.063324 -16.063309l74.73952 0c4.260254 0 8.346008 1.6923828 11.358459 4.704834c3.0124817 3.0124512 4.704834 7.098221 4.704834 11.358475l0 64.25133c0 8.871521 -7.1917725 16.063324 -16.063293 16.063324l-74.73952 0c-8.871521 0 -16.063324 -7.191803 -16.063324 -16.063324z" fill-rule="evenodd"/><path fill="#eeeeee" d="m163.37007 175.82971l0 0c0 -8.871521 7.191803 -16.063309 16.063324 -16.063309l74.73952 0c4.260254 0 8.346008 1.6923828 11.358459 4.704834c3.0124817 3.0124512 4.704834 7.098221 4.704834 11.358475l0 64.25133c0 8.871521 -7.1917725 16.063309 -16.063293 16.063309l-74.73952 0c-8.871521 0 -16.063324 -7.1917877 -16.063324 -16.063309z" fill-rule="evenodd"/><path stroke="#595959" stroke-width="1.0" stroke-linejoin="round" stroke-linecap="butt" d="m163.37007 175.82971l0 0c0 -8.871521 7.191803 -16.063309 16.063324 -16.063309l74.73952 0c4.260254 0 8.346008 1.6923828 11.358459 4.704834c3.0124817 3.0124512 4.704834 7.098221 4.704834 11.358475l0 64.25133c0 8.871521 -7.1917725 16.063309 -16.063293 16.063309l-74.73952 0c-8.871521 0 -16.063324 -7.1917877 -16.063324 -16.063309z" fill-rule="evenodd"/><path fill="#eeeeee" d="m155.37007 183.82971l0 0c0 -8.871521 7.191803 -16.063309 16.063324 -16.063309l74.73952 0c4.260254 0 8.346024 1.6923828 11.358459 4.704834c3.0124817 3.0124512 4.704834 7.098221 4.704834 11.358475l0 64.25133c0 8.871536 -7.1917725 16.063309 -16.063293 16.063309l-74.73952 0c-8.871521 0 -16.063324 -7.1917725 -16.063324 -16.063309z" fill-rule="evenodd"/><path stroke="#595959" stroke-width="1.0" stroke-linejoin="round" stroke-linecap="butt" d="m155.37007 183.82971l0 0c0 -8.871521 7.191803 -16.063309 16.063324 -16.063309l74.73952 0c4.260254 0 8.346024 1.6923828 11.358459 4.704834c3.0124817 3.0124512 4.704834 7.098221 4.704834 11.358475l0 64.25133c0 8.871536 -7.1917725 16.063309 -16.063293 16.063309l-74.73952 0c-8.871521 0 -16.063324 -7.1917725 -16.063324 -16.063309z" fill-rule="evenodd"/><path fill="#eeeeee" d="m147.37007 191.82971l0 0c0 -8.871521 7.191803 -16.063309 16.063324 -16.063309l74.73952 0c4.260254 0 8.346024 1.6923828 11.358475 4.704834c3.0124512 3.0124512 4.704834 7.098221 4.704834 11.358475l0 64.25134c0 8.871521 -7.1917877 16.063293 -16.063309 16.063293l-74.73952 0c-8.871521 0 -16.063324 -7.1917725 -16.063324 -16.063293z" fill-rule="evenodd"/><path stroke="#595959" stroke-width="1.0" stroke-linejoin="round" stroke-linecap="butt" d="m147.37007 191.82971l0 0c0 -8.871521 7.191803 -16.063309 16.063324 -16.063309l74.73952 0c4.260254 0 8.346024 1.6923828 11.358475 4.704834c3.0124512 3.0124512 4.704834 7.098221 4.704834 11.358475l0 64.25134c0 8.871521 -7.1917877 16.063293 -16.063309 16.063293l-74.73952 0c-8.871521 0 -16.063324 -7.1917725 -16.063324 -16.063293z" fill-rule="evenodd"/><path fill="#000000" d="m189.12985 213.03163q-0.46875 0 -0.890625 0.15625q-0.40625 0.140625 -0.71875 0.4375q-0.3125 0.28125 -0.5 0.71875q-0.1875 0.421875 -0.1875 1.0q0 1.15625 0.65625 1.734375q0.671875 0.578125 1.625 0.578125q0.5625 0 0.96875 -0.125q0.40625 -0.140625 0.734375 -0.28125q0.375 0.25 0.546875 0.5625q0.1875 0.3125 0.1875 0.734375q0 0.765625 -0.734375 1.1875q-0.71875 0.421875 -2.0 0.421875q-1.171875 0 -2.125 -0.34375q-0.953125 -0.34375 -1.640625 -0.96875q-0.671875 -0.625 -1.046875 -1.5q-0.375 -0.890625 -0.375 -1.953125q0 -1.21875 0.390625 -2.140625q0.40625 -0.9375 1.09375 -1.53125q0.703125 -0.59375 1.609375 -0.890625q0.90625 -0.296875 1.90625 -0.296875q1.34375 0 2.0625 0.484375q0.734375 0.484375 0.734375 1.25q0 0.359375 -0.171875 0.671875q-0.15625 0.296875 -0.390625 0.515625q-0.3125 -0.140625 -0.765625 -0.28125q-0.4375 -0.140625 -0.96875 -0.140625zm7.2479095 6.828125q-0.203125 0.03125 -0.609375 0.09375q-0.40625 0.078125 -0.8125 0.078125q-0.40625 0 -0.734375 -0.0625q-0.328125 -0.0625 -0.5625 -0.21875q-0.21875 -0.171875 -0.34375 -0.453125q-0.109375 -0.296875 -0.109375 -0.765625l0 -10.8125q0.203125 -0.046875 0.59375 -0.109375q0.40625 -0.0625 0.8125 -0.0625q0.421875 0 0.734375 0.0625q0.328125 0.046875 0.546875 0.21875q0.234375 0.15625 0.359375 0.453125q0.125 0.28125 0.125 0.75l0 10.828125zm5.86438 -2.0q0.328125 0 0.703125 -0.0625q0.390625 -0.0625 0.578125 -0.171875l0 -1.5l-1.34375 0.109375q-0.53125 0.046875 -0.875 0.234375q-0.328125 0.171875 -0.328125 0.546875q0 0.375 0.28125 0.609375q0.296875 0.234375 0.984375 0.234375zm-0.140625 -7.328125q1.0 0 1.828125 0.203125q0.84375 0.203125 1.421875 0.625q0.59375 0.421875 0.90625 1.0625q0.3125 0.640625 0.3125 1.515625l0 4.1875q0 0.484375 -0.265625 0.796875q-0.265625 0.296875 -0.640625 0.53125q-1.21875 0.71875 -3.421875 0.71875q-0.984375 0 -1.78125 -0.1875q-0.78125 -0.1875 -1.359375 -0.5625q-0.5625 -0.375 -0.875 -0.953125q-0.3125 -0.578125 -0.3125 -1.34375q0 -1.28125 0.765625 -1.96875q0.765625 -0.6875 2.375 -0.859375l2.4375 -0.265625l0 -0.125q0 -0.546875 -0.46875 -0.78125q-0.46875 -0.234375 -1.375 -0.234375q-0.703125 0 -1.375 0.15625q-0.671875 0.15625 -1.21875 0.375q-0.234375 -0.171875 -0.40625 -0.515625q-0.171875 -0.34375 -0.171875 -0.71875q0 -0.484375 0.234375 -0.765625q0.234375 -0.296875 0.71875 -0.5q0.546875 -0.203125 1.28125 -0.296875q0.734375 -0.09375 1.390625 -0.09375zm6.445877 -2.796875q0.1875 -0.0625 0.59375 -0.125q0.421875 -0.0625 0.84375 -0.0625q0.421875 0 0.734375 0.0625q0.328125 0.046875 0.546875 0.21875q0.234375 0.15625 0.34375 0.453125q0.109375 0.28125 0.109375 0.75l0 1.828125q0.46875 -0.1875 0.890625 -0.25q0.421875 -0.078125 0.921875 -0.078125q0.90625 0 1.703125 0.3125q0.796875 0.3125 1.40625 0.921875q0.625 0.609375 0.96875 1.515625q0.359375 0.890625 0.359375 2.0625q0 1.203125 -0.359375 2.109375q-0.359375 0.90625 -1.015625 1.515625q-0.65625 0.59375 -1.59375 0.90625q-0.9375 0.296875 -2.078125 0.296875q-1.234375 0 -2.09375 -0.296875q-0.859375 -0.28125 -1.453125 -0.703125q-0.828125 -0.578125 -0.828125 -1.5l0 -9.9375zm4.375 9.9375q0.859375 0 1.328125 -0.578125q0.484375 -0.59375 0.484375 -1.75q0 -1.171875 -0.484375 -1.75q-0.484375 -0.578125 -1.3125 -0.578125q-0.375 0 -0.640625 0.078125q-0.265625 0.0625 -0.59375 0.21875l0 4.0625q0.203125 0.125 0.484375 0.21875q0.296875 0.078125 0.734375 0.078125z" fill-rule="nonzero"/><path fill="#000000" d="m181.44044 236.12538q0 -0.578125 -0.328125 -0.84375q-0.328125 -0.265625 -0.890625 -0.265625q-0.375 0 -0.734375 0.09375q-0.359375 0.09375 -0.625 0.265625l0 6.484375q-0.1875 0.046875 -0.59375 0.109375q-0.390625 0.0625 -0.828125 0.0625q-0.40625 0 -0.734375 -0.0625q-0.328125 -0.0625 -0.546875 -0.21875q-0.21875 -0.171875 -0.34375 -0.453125q-0.125 -0.296875 -0.125 -0.765625l0 -5.59375q0 -0.5 0.21875 -0.8125q0.21875 -0.328125 0.578125 -0.59375q0.640625 -0.4375 1.59375 -0.71875q0.96875 -0.28125 2.140625 -0.28125q2.109375 0 3.25 0.921875q1.140625 0.921875 1.140625 2.5625l0 5.84375q-0.1875 0.046875 -0.59375 0.109375q-0.390625 0.0625 -0.828125 0.0625q-0.40625 0 -0.734375 -0.0625q-0.328125 -0.0625 -0.5625 -0.21875q-0.21875 -0.171875 -0.34375 -0.453125q-0.109375 -0.296875 -0.109375 -0.765625l0 -4.40625zm14.517227 1.21875q0 1.15625 -0.359375 2.0625q-0.359375 0.90625 -1.0 1.53125q-0.640625 0.609375 -1.546875 0.921875q-0.890625 0.3125 -1.984375 0.3125q-1.109375 0 -2.0 -0.328125q-0.890625 -0.34375 -1.546875 -0.96875q-0.640625 -0.625 -1.0 -1.515625q-0.34375 -0.90625 -0.34375 -2.015625q0 -1.109375 0.34375 -2.0q0.359375 -0.890625 1.0 -1.515625q0.65625 -0.625 1.546875 -0.953125q0.890625 -0.34375 2.0 -0.34375q1.09375 0 1.984375 0.34375q0.90625 0.34375 1.546875 0.96875q0.640625 0.625 1.0 1.53125q0.359375 0.890625 0.359375 1.96875zm-6.53125 0q0 1.140625 0.4375 1.75q0.4375 0.59375 1.21875 0.59375q0.78125 0 1.203125 -0.609375q0.421875 -0.625 0.421875 -1.734375q0 -1.125 -0.4375 -1.71875q-0.421875 -0.609375 -1.203125 -0.609375q-0.78125 0 -1.21875 0.609375q-0.421875 0.59375 -0.421875 1.71875zm7.6825714 0q0 -1.234375 0.375 -2.140625q0.375 -0.90625 1.03125 -1.5q0.671875 -0.59375 1.546875 -0.875q0.890625 -0.296875 1.921875 -0.296875q0.375 0 0.71875 0.0625q0.359375 0.0625 0.578125 0.15625l0 -3.015625q0.1875 -0.0625 0.59375 -0.125q0.421875 -0.0625 0.84375 -0.0625q0.40625 0 0.734375 0.0625q0.328125 0.046875 0.546875 0.21875q0.234375 0.15625 0.34375 0.453125q0.109375 0.28125 0.109375 0.75l0 8.84375q0 0.875 -0.8125 1.40625q-0.546875 0.34375 -1.40625 0.609375q-0.859375 0.28125 -1.96875 0.28125q-1.21875 0 -2.1875 -0.328125q-0.953125 -0.34375 -1.625 -0.96875q-0.65625 -0.640625 -1.0 -1.53125q-0.34375 -0.890625 -0.34375 -2.0zm5.296875 -2.328125q-1.0 0 -1.546875 0.578125q-0.546875 0.578125 -0.546875 1.75q0 1.15625 0.5 1.75q0.515625 0.578125 1.46875 0.578125q0.328125 0 0.59375 -0.09375q0.28125 -0.109375 0.421875 -0.234375l0 -4.109375q-0.359375 -0.21875 -0.890625 -0.21875zm10.823196 7.15625q-1.09375 0 -2.046875 -0.296875q-0.9375 -0.3125 -1.640625 -0.921875q-0.703125 -0.625 -1.109375 -1.5625q-0.390625 -0.9375 -0.390625 -2.1875q0 -1.21875 0.390625 -2.109375q0.40625 -0.890625 1.0625 -1.453125q0.65625 -0.578125 1.484375 -0.84375q0.84375 -0.265625 1.734375 -0.265625q0.984375 0 1.796875 0.296875q0.8125 0.296875 1.390625 0.828125q0.59375 0.515625 0.921875 1.25q0.328125 0.71875 0.328125 1.578125q0 0.640625 -0.359375 0.984375q-0.359375 0.328125 -0.984375 0.40625l-4.609375 0.703125q0.203125 0.609375 0.828125 0.921875q0.640625 0.296875 1.46875 0.296875q0.765625 0 1.4375 -0.1875q0.6875 -0.203125 1.109375 -0.453125q0.296875 0.1875 0.5 0.53125q0.21875 0.328125 0.21875 0.6875q0 0.84375 -0.796875 1.25q-0.59375 0.328125 -1.34375 0.4375q-0.734375 0.109375 -1.390625 0.109375zm-0.515625 -7.328125q-0.453125 0 -0.78125 0.15625q-0.328125 0.140625 -0.53125 0.375q-0.203125 0.234375 -0.3125 0.53125q-0.09375 0.28125 -0.125 0.578125l3.203125 -0.515625q-0.0625 -0.375 -0.421875 -0.75q-0.34375 -0.375 -1.03125 -0.375zm13.617279 4.328125q0 1.421875 -1.0625 2.21875q-1.0625 0.796875 -3.140625 0.796875q-0.78125 0 -1.453125 -0.109375q-0.671875 -0.109375 -1.15625 -0.34375q-0.46875 -0.234375 -0.75 -0.578125q-0.265625 -0.359375 -0.265625 -0.84375q0 -0.453125 0.1875 -0.75q0.1875 -0.3125 0.453125 -0.515625q0.546875 0.296875 1.234375 0.53125q0.703125 0.21875 1.625 0.21875q0.578125 0 0.875 -0.15625q0.3125 -0.171875 0.3125 -0.453125q0 -0.265625 -0.234375 -0.40625q-0.21875 -0.15625 -0.734375 -0.25l-0.5625 -0.109375q-1.625 -0.3125 -2.421875 -0.984375q-0.78125 -0.6875 -0.78125 -1.96875q0 -0.6875 0.296875 -1.234375q0.296875 -0.5625 0.828125 -0.9375q0.546875 -0.375 1.296875 -0.578125q0.765625 -0.203125 1.671875 -0.203125q0.703125 0 1.296875 0.109375q0.609375 0.09375 1.0625 0.296875q0.453125 0.203125 0.703125 0.53125q0.265625 0.328125 0.265625 0.765625q0 0.4375 -0.15625 0.75q-0.15625 0.296875 -0.40625 0.5q-0.140625 -0.09375 -0.453125 -0.1875q-0.296875 -0.109375 -0.65625 -0.1875q-0.34375 -0.078125 -0.71875 -0.140625q-0.359375 -0.0625 -0.65625 -0.0625q-0.609375 0 -0.953125 0.140625q-0.328125 0.140625 -0.328125 0.4375q0 0.21875 0.1875 0.34375q0.1875 0.125 0.703125 0.234375l0.578125 0.140625q1.796875 0.40625 2.546875 1.125q0.765625 0.71875 0.765625 1.859375z" fill-rule="nonzero"/><path fill="#eeeeee" d="m586.874 354.2523l0 0c0 -8.871521 7.1917725 -16.063324 16.063293 -16.063324l74.7395 0c4.260254 0 8.346069 1.6923828 11.3585205 4.704834c3.0124512 3.0124817 4.704834 7.098236 4.704834 11.35849l0 64.25131c0 8.8715515 -7.1918335 16.063324 -16.063354 16.063324l-74.7395 0c-8.871521 0 -16.063293 -7.1917725 -16.063293 -16.063324z" fill-rule="evenodd"/><path stroke="#595959" stroke-width="1.0" stroke-linejoin="round" stroke-linecap="butt" d="m586.874 354.2523l0 0c0 -8.871521 7.1917725 -16.063324 16.063293 -16.063324l74.7395 0c4.260254 0 8.346069 1.6923828 11.3585205 4.704834c3.0124512 3.0124817 4.704834 7.098236 4.704834 11.35849l0 64.25131c0 8.8715515 -7.1918335 16.063324 -16.063354 16.063324l-74.7395 0c-8.871521 0 -16.063293 -7.1917725 -16.063293 -16.063324z" fill-rule="evenodd"/><path fill="#000000" d="m615.0362 390.18857q0 0.484375 0.296875 0.6875q0.3125 0.203125 0.875 0.203125q0.28125 0 0.578125 -0.046875q0.296875 -0.046875 0.53125 -0.125q0.15625 0.203125 0.28125 0.46875q0.125 0.25 0.125 0.59375q0 0.71875 -0.53125 1.171875q-0.53125 0.4375 -1.875 0.4375q-1.640625 0 -2.53125 -0.75q-0.890625 -0.75 -0.890625 -2.421875l0 -7.984375q0.21875 -0.0625 0.59375 -0.125q0.390625 -0.0625 0.8125 -0.0625q0.828125 0 1.28125 0.296875q0.453125 0.28125 0.453125 1.21875l0 1.1875l2.4375 0q0.125 0.203125 0.21875 0.515625q0.109375 0.3125 0.109375 0.6875q0 0.640625 -0.296875 0.9375q-0.28125 0.28125 -0.765625 0.28125l-1.703125 0l0 2.828125zm7.4625244 3.09375q-0.1875 0.046875 -0.59375 0.109375q-0.390625 0.0625 -0.828125 0.0625q-0.40625 0 -0.734375 -0.0625q-0.328125 -0.0625 -0.546875 -0.21875q-0.21875 -0.171875 -0.34375 -0.453125q-0.125 -0.296875 -0.125 -0.765625l0 -5.59375q0 -0.4375 0.15625 -0.734375q0.15625 -0.3125 0.453125 -0.5625q0.3125 -0.234375 0.75 -0.421875q0.4375 -0.203125 0.9375 -0.34375q0.5 -0.15625 1.03125 -0.234375q0.546875 -0.09375 1.09375 -0.09375q0.890625 0 1.40625 0.34375q0.53125 0.34375 0.53125 1.125q0 0.265625 -0.078125 0.515625q-0.0625 0.25 -0.171875 0.453125q-0.40625 0 -0.8125 0.046875q-0.40625 0.03125 -0.796875 0.109375q-0.390625 0.078125 -0.734375 0.15625q-0.34375 0.078125 -0.59375 0.203125l0 6.359375zm8.09082 -2.0q0.328125 0 0.703125 -0.0625q0.390625 -0.0625 0.578125 -0.171875l0 -1.5l-1.34375 0.109375q-0.53125 0.046875 -0.875 0.234375q-0.328125 0.171875 -0.328125 0.546875q0 0.375 0.28125 0.609375q0.296875 0.234375 0.984375 0.234375zm-0.140625 -7.328125q1.0 0 1.828125 0.203125q0.84375 0.203125 1.421875 0.625q0.59375 0.421875 0.90625 1.0625q0.3125 0.640625 0.3125 1.515625l0 4.1875q0 0.484375 -0.265625 0.796875q-0.265625 0.296875 -0.640625 0.53125q-1.21875 0.71875 -3.421875 0.71875q-0.984375 0 -1.78125 -0.1875q-0.78125 -0.1875 -1.359375 -0.5625q-0.5625 -0.375 -0.875 -0.953125q-0.3125 -0.578125 -0.3125 -1.34375q0 -1.28125 0.765625 -1.96875q0.765625 -0.6875 2.375 -0.859375l2.4375 -0.265625l0 -0.125q0 -0.546875 -0.46875 -0.78125q-0.46875 -0.234375 -1.375 -0.234375q-0.703125 0 -1.375 0.15625q-0.671875 0.15625 -1.21875 0.375q-0.234375 -0.171875 -0.40625 -0.515625q-0.171875 -0.34375 -0.171875 -0.71875q0 -0.484375 0.234375 -0.765625q0.234375 -0.296875 0.71875 -0.5q0.546875 -0.203125 1.28125 -0.296875q0.734375 -0.09375 1.390625 -0.09375zm11.211548 9.640625q-1.09375 0 -2.046875 -0.296875q-0.9375 -0.3125 -1.640625 -0.921875q-0.703125 -0.625 -1.109375 -1.5625q-0.390625 -0.9375 -0.390625 -2.1875q0 -1.21875 0.390625 -2.109375q0.40625 -0.890625 1.0625 -1.453125q0.65625 -0.578125 1.484375 -0.84375q0.84375 -0.265625 1.734375 -0.265625q0.984375 0 1.796875 0.296875q0.8125 0.296875 1.390625 0.828125q0.59375 0.515625 0.921875 1.25q0.328125 0.71875 0.328125 1.578125q0 0.640625 -0.359375 0.984375q-0.359375 0.328125 -0.984375 0.40625l-4.609375 0.703125q0.203125 0.609375 0.828125 0.921875q0.640625 0.296875 1.46875 0.296875q0.765625 0 1.4375 -0.1875q0.6875 -0.203125 1.109375 -0.453125q0.296875 0.1875 0.5 0.53125q0.21875 0.328125 0.21875 0.6875q0 0.84375 -0.796875 1.25q-0.59375 0.328125 -1.34375 0.4375q-0.734375 0.109375 -1.390625 0.109375zm-0.515625 -7.328125q-0.453125 0 -0.78125 0.15625q-0.328125 0.140625 -0.53125 0.375q-0.203125 0.234375 -0.3125 0.53125q-0.09375 0.28125 -0.125 0.578125l3.203125 -0.515625q-0.0625 -0.375 -0.421875 -0.75q-0.34375 -0.375 -1.03125 -0.375zm5.9922485 -2.03125q0 -0.953125 0.328125 -1.625q0.328125 -0.6875 0.890625 -1.125q0.5625 -0.4375 1.3125 -0.640625q0.765625 -0.21875 1.625 -0.21875q1.375 0 2.015625 0.375q0.65625 0.359375 0.65625 1.234375q0 0.375 -0.15625 0.671875q-0.15625 0.296875 -0.34375 0.453125q-0.34375 -0.09375 -0.734375 -0.15625q-0.375 -0.078125 -0.890625 -0.078125q-0.796875 0 -1.25 0.28125q-0.4375 0.265625 -0.4375 0.9375l0 0.59375l3.0625 0q0.109375 0.203125 0.203125 0.515625q0.109375 0.3125 0.109375 0.6875q0 0.640625 -0.296875 0.9375q-0.28125 0.28125 -0.765625 0.28125l-2.15625 0l0 5.921875q-0.171875 0.046875 -0.578125 0.109375q-0.40625 0.0625 -0.828125 0.0625q-0.421875 0 -0.75 -0.0625q-0.3125 -0.0625 -0.546875 -0.21875q-0.21875 -0.171875 -0.34375 -0.453125q-0.125 -0.296875 -0.125 -0.765625l0 -7.71875zm7.859375 -2.515625q0 -0.71875 0.46875 -1.203125q0.484375 -0.484375 1.265625 -0.484375q0.78125 0 1.25 0.484375q0.484375 0.484375 0.484375 1.203125q0 0.703125 -0.484375 1.1875q-0.46875 0.484375 -1.25 0.484375q-0.78125 0 -1.265625 -0.484375q-0.46875 -0.484375 -0.46875 -1.1875zm3.328125 11.5625q-0.203125 0.03125 -0.609375 0.09375q-0.40625 0.078125 -0.8125 0.078125q-0.40625 0 -0.734375 -0.0625q-0.328125 -0.0625 -0.5625 -0.21875q-0.21875 -0.171875 -0.34375 -0.453125q-0.109375 -0.296875 -0.109375 -0.765625l0 -7.59375q0.203125 -0.03125 0.59375 -0.09375q0.40625 -0.078125 0.8125 -0.078125q0.421875 0 0.75 0.0625q0.328125 0.046875 0.546875 0.21875q0.21875 0.171875 0.34375 0.46875q0.125 0.28125 0.125 0.75l0 7.59375zm10.86792 -1.625q-0.09375 0.875 -0.515625 1.34375q-0.40625 0.46875 -1.21875 0.46875q-0.59375 0 -1.0625 -0.28125q-0.46875 -0.296875 -1.0 -0.984375l-1.859375 -2.328125l0 3.40625q-0.203125 0.03125 -0.609375 0.09375q-0.390625 0.078125 -0.796875 0.078125q-0.421875 0 -0.75 -0.0625q-0.3125 -0.0625 -0.546875 -0.21875q-0.21875 -0.171875 -0.34375 -0.453125q-0.125 -0.296875 -0.125 -0.765625l0 -10.796875q0.21875 -0.0625 0.609375 -0.125q0.40625 -0.0625 0.8125 -0.0625q0.40625 0 0.734375 0.0625q0.328125 0.046875 0.546875 0.21875q0.234375 0.15625 0.34375 0.453125q0.125 0.28125 0.125 0.75l0 4.9375l3.21875 -3.296875q0.96875 0 1.546875 0.4375q0.59375 0.421875 0.59375 1.078125q0 0.28125 -0.09375 0.515625q-0.09375 0.234375 -0.296875 0.484375q-0.1875 0.234375 -0.5 0.515625q-0.296875 0.265625 -0.71875 0.609375l-1.078125 0.9375l2.984375 2.984375z" fill-rule="nonzero"/><path fill="#eeeeee" d="m519.1601 179.82971l0 0c0 -8.871521 7.1917725 -16.063309 16.063293 -16.063309l74.73956 0c4.260254 0 8.346008 1.6923828 11.358459 4.704834c3.0124512 3.0124512 4.704834 7.098221 4.704834 11.358475l0 64.25133c0 8.871521 -7.1917725 16.063309 -16.063293 16.063309l-74.73956 0c-8.871521 0 -16.063293 -7.1917877 -16.063293 -16.063309z" fill-rule="evenodd"/><path stroke="#595959" stroke-width="1.0" stroke-linejoin="round" stroke-linecap="butt" d="m519.1601 179.82971l0 0c0 -8.871521 7.1917725 -16.063309 16.063293 -16.063309l74.73956 0c4.260254 0 8.346008 1.6923828 11.358459 4.704834c3.0124512 3.0124512 4.704834 7.098221 4.704834 11.358475l0 64.25133c0 8.871521 -7.1917725 16.063309 -16.063293 16.063309l-74.73956 0c-8.871521 0 -16.063293 -7.1917877 -16.063293 -16.063309z" fill-rule="evenodd"/><path fill="#000000" d="m546.09467 218.59413q-0.265625 0.21875 -0.71875 0.359375q-0.4375 0.140625 -1.0625 0.140625q-0.765625 0 -1.328125 -0.21875q-0.546875 -0.203125 -0.734375 -0.59375q-0.203125 -0.453125 -0.484375 -1.421875q-0.265625 -0.96875 -0.53125 -2.125q-0.25 -1.15625 -0.484375 -2.34375q-0.234375 -1.203125 -0.375 -2.109375q0.265625 -0.265625 0.703125 -0.453125q0.4375 -0.203125 0.96875 -0.203125q0.65625 0 1.0625 0.296875q0.421875 0.28125 0.515625 0.984375q0.1875 1.421875 0.3125 2.34375q0.140625 0.921875 0.21875 1.515625q0.09375 0.578125 0.140625 0.890625q0.046875 0.3125 0.078125 0.5l0.078125 0q0.046875 -0.296875 0.1875 -0.859375q0.140625 -0.578125 0.328125 -1.296875q0.1875 -0.734375 0.390625 -1.578125q0.203125 -0.859375 0.421875 -1.703125q0.359375 -0.203125 0.71875 -0.3125q0.375 -0.109375 0.921875 -0.109375q0.640625 0 1.109375 0.203125q0.46875 0.203125 0.59375 0.625q0.234375 0.828125 0.4375 1.609375q0.203125 0.765625 0.375 1.4375q0.171875 0.65625 0.296875 1.171875q0.125 0.515625 0.1875 0.8125l0.09375 0q0.203125 -1.4375 0.390625 -2.984375q0.203125 -1.546875 0.375 -3.15625q0.328125 -0.203125 0.703125 -0.296875q0.375 -0.09375 0.75 -0.09375q0.65625 0 1.078125 0.28125q0.4375 0.28125 0.4375 0.96875q0 0.296875 -0.09375 0.890625q-0.09375 0.59375 -0.25 1.34375q-0.140625 0.75 -0.34375 1.578125q-0.203125 0.8125 -0.40625 1.578125q-0.1875 0.765625 -0.359375 1.390625q-0.171875 0.609375 -0.3125 0.9375q-0.25 0.21875 -0.796875 0.359375q-0.546875 0.140625 -1.15625 0.140625q-1.5625 0 -1.84375 -0.78125q-0.109375 -0.328125 -0.28125 -0.84375q-0.171875 -0.515625 -0.359375 -1.125q-0.1875 -0.625 -0.359375 -1.28125q-0.15625 -0.671875 -0.265625 -1.28125q-0.140625 0.65625 -0.328125 1.359375q-0.1875 0.6875 -0.390625 1.359375q-0.1875 0.65625 -0.359375 1.21875q-0.15625 0.546875 -0.25 0.875zm14.382141 0.578125q-1.09375 0 -2.046875 -0.296875q-0.9375 -0.3125 -1.640625 -0.921875q-0.703125 -0.625 -1.109375 -1.5625q-0.390625 -0.9375 -0.390625 -2.1875q0 -1.21875 0.390625 -2.109375q0.40625 -0.890625 1.0625 -1.453125q0.65625 -0.578125 1.484375 -0.84375q0.84375 -0.265625 1.734375 -0.265625q0.984375 0 1.796875 0.296875q0.8125 0.296875 1.390625 0.828125q0.59375 0.515625 0.921875 1.25q0.328125 0.71875 0.328125 1.578125q0 0.640625 -0.359375 0.984375q-0.359375 0.328125 -0.984375 0.40625l-4.609375 0.703125q0.203125 0.609375 0.828125 0.921875q0.640625 0.296875 1.46875 0.296875q0.765625 0 1.4375 -0.1875q0.6875 -0.203125 1.109375 -0.453125q0.296875 0.1875 0.5 0.53125q0.21875 0.328125 0.21875 0.6875q0 0.84375 -0.796875 1.25q-0.59375 0.328125 -1.34375 0.4375q-0.734375 0.109375 -1.390625 0.109375zm-0.515625 -7.328125q-0.453125 0 -0.78125 0.15625q-0.328125 0.140625 -0.53125 0.375q-0.203125 0.234375 -0.3125 0.53125q-0.09375 0.28125 -0.125 0.578125l3.203125 -0.515625q-0.0625 -0.375 -0.421875 -0.75q-0.34375 -0.375 -1.03125 -0.375zm5.9922485 -5.109375q0.1875 -0.0625 0.59375 -0.125q0.421875 -0.0625 0.84375 -0.0625q0.421875 0 0.734375 0.0625q0.328125 0.046875 0.546875 0.21875q0.234375 0.15625 0.34375 0.453125q0.109375 0.28125 0.109375 0.75l0 1.828125q0.46875 -0.1875 0.890625 -0.25q0.421875 -0.078125 0.921875 -0.078125q0.90625 0 1.703125 0.3125q0.796875 0.3125 1.40625 0.921875q0.625 0.609375 0.96875 1.515625q0.359375 0.890625 0.359375 2.0625q0 1.203125 -0.359375 2.109375q-0.359375 0.90625 -1.015625 1.515625q-0.65625 0.59375 -1.59375 0.90625q-0.9375 0.296875 -2.078125 0.296875q-1.234375 0 -2.09375 -0.296875q-0.859375 -0.28125 -1.453125 -0.703125q-0.828125 -0.578125 -0.828125 -1.5l0 -9.9375zm4.375 9.9375q0.859375 0 1.328125 -0.578125q0.484375 -0.59375 0.484375 -1.75q0 -1.171875 -0.484375 -1.75q-0.484375 -0.578125 -1.3125 -0.578125q-0.375 0 -0.640625 0.078125q-0.265625 0.0625 -0.59375 0.21875l0 4.0625q0.203125 0.125 0.484375 0.21875q0.296875 0.078125 0.734375 0.078125zm14.257202 -0.5q0 1.421875 -1.0625 2.21875q-1.0625 0.796875 -3.140625 0.796875q-0.78125 0 -1.453125 -0.109375q-0.671875 -0.109375 -1.15625 -0.34375q-0.46875 -0.234375 -0.75 -0.578125q-0.265625 -0.359375 -0.265625 -0.84375q0 -0.453125 0.1875 -0.75q0.1875 -0.3125 0.453125 -0.515625q0.546875 0.296875 1.234375 0.53125q0.703125 0.21875 1.625 0.21875q0.578125 0 0.875 -0.15625q0.3125 -0.171875 0.3125 -0.453125q0 -0.265625 -0.234375 -0.40625q-0.21875 -0.15625 -0.734375 -0.25l-0.5625 -0.109375q-1.625 -0.3125 -2.421875 -0.984375q-0.78125 -0.6875 -0.78125 -1.96875q0 -0.6875 0.296875 -1.234375q0.296875 -0.5625 0.828125 -0.9375q0.546875 -0.375 1.296875 -0.578125q0.765625 -0.203125 1.671875 -0.203125q0.703125 0 1.296875 0.109375q0.609375 0.09375 1.0625 0.296875q0.453125 0.203125 0.703125 0.53125q0.265625 0.328125 0.265625 0.765625q0 0.4375 -0.15625 0.75q-0.15625 0.296875 -0.40625 0.5q-0.140625 -0.09375 -0.453125 -0.1875q-0.296875 -0.109375 -0.65625 -0.1875q-0.34375 -0.078125 -0.71875 -0.140625q-0.359375 -0.0625 -0.65625 -0.0625q-0.609375 0 -0.953125 0.140625q-0.328125 0.140625 -0.328125 0.4375q0 0.21875 0.1875 0.34375q0.1875 0.125 0.703125 0.234375l0.578125 0.140625q1.796875 0.40625 2.546875 1.125q0.765625 0.71875 0.765625 1.859375zm9.178894 0q0 1.421875 -1.0625 2.21875q-1.0625 0.796875 -3.140625 0.796875q-0.78125 0 -1.453125 -0.109375q-0.671875 -0.109375 -1.15625 -0.34375q-0.46875 -0.234375 -0.75 -0.578125q-0.265625 -0.359375 -0.265625 -0.84375q0 -0.453125 0.1875 -0.75q0.1875 -0.3125 0.453125 -0.515625q0.546875 0.296875 1.234375 0.53125q0.703125 0.21875 1.625 0.21875q0.578125 0 0.875 -0.15625q0.3125 -0.171875 0.3125 -0.453125q0 -0.265625 -0.234375 -0.40625q-0.21875 -0.15625 -0.734375 -0.25l-0.5625 -0.109375q-1.625 -0.3125 -2.421875 -0.984375q-0.78125 -0.6875 -0.78125 -1.96875q0 -0.6875 0.296875 -1.234375q0.296875 -0.5625 0.828125 -0.9375q0.546875 -0.375 1.296875 -0.578125q0.765625 -0.203125 1.671875 -0.203125q0.703125 0 1.296875 0.109375q0.609375 0.09375 1.0625 0.296875q0.453125 0.203125 0.703125 0.53125q0.265625 0.328125 0.265625 0.765625q0 0.4375 -0.15625 0.75q-0.15625 0.296875 -0.40625 0.5q-0.140625 -0.09375 -0.453125 -0.1875q-0.296875 -0.109375 -0.65625 -0.1875q-0.34375 -0.078125 -0.71875 -0.140625q-0.359375 -0.0625 -0.65625 -0.0625q-0.609375 0 -0.953125 0.140625q-0.328125 0.140625 -0.328125 0.4375q0 0.21875 0.1875 0.34375q0.1875 0.125 0.703125 0.234375l0.578125 0.140625q1.796875 0.40625 2.546875 1.125q0.765625 0.71875 0.765625 1.859375zm10.475708 2.6875q-0.1875 0.046875 -0.59375 0.109375q-0.390625 0.0625 -0.828125 0.0625q-0.40625 0 -0.734375 -0.0625q-0.328125 -0.0625 -0.546875 -0.21875q-0.21875 -0.171875 -0.34375 -0.453125q-0.125 -0.296875 -0.125 -0.765625l0 -4.140625q0 -0.765625 -0.390625 -1.0625q-0.375 -0.3125 -0.9375 -0.3125q-0.359375 0 -0.703125 0.09375q-0.328125 0.09375 -0.546875 0.21875l0 6.53125q-0.171875 0.046875 -0.578125 0.109375q-0.40625 0.0625 -0.828125 0.0625q-0.421875 0 -0.75 -0.0625q-0.3125 -0.0625 -0.546875 -0.21875q-0.21875 -0.171875 -0.34375 -0.453125q-0.125 -0.296875 -0.125 -0.765625l0 -10.8125q0.21875 -0.046875 0.609375 -0.109375q0.40625 -0.0625 0.8125 -0.0625q0.40625 0 0.734375 0.0625q0.328125 0.046875 0.546875 0.21875q0.234375 0.15625 0.34375 0.453125q0.125 0.28125 0.125 0.75l0 1.828125q0.25 -0.09375 0.734375 -0.203125q0.5 -0.125 1.09375 -0.125q1.859375 0 2.890625 0.921875q1.03125 0.921875 1.03125 2.75l0 5.65625z" fill-rule="nonzero"/><path fill="#eeeeee" d="m645.916 179.82971l0 0c0 -8.871521 7.1917725 -16.063309 16.063293 -16.063309l74.7395 0c4.260254 0 8.346069 1.6923828 11.3585205 4.704834c3.0124512 3.0124512 4.704834 7.098221 4.704834 11.358475l0 64.25133c0 8.871521 -7.1918335 16.063309 -16.063354 16.063309l-74.7395 0c-8.871521 0 -16.063293 -7.1917877 -16.063293 -16.063309z" fill-rule="evenodd"/><path stroke="#595959" stroke-width="1.0" stroke-linejoin="round" stroke-linecap="butt" d="m645.916 179.82971l0 0c0 -8.871521 7.1917725 -16.063309 16.063293 -16.063309l74.7395 0c4.260254 0 8.346069 1.6923828 11.3585205 4.704834c3.0124512 3.0124512 4.704834 7.098221 4.704834 11.358475l0 64.25133c0 8.871521 -7.1918335 16.063309 -16.063354 16.063309l-74.7395 0c-8.871521 0 -16.063293 -7.1917877 -16.063293 -16.063309z" fill-rule="evenodd"/><path fill="#000000" d="m691.0308 216.85976q0.328125 0 0.703125 -0.0625q0.390625 -0.0625 0.578125 -0.171875l0 -1.5l-1.34375 0.109375q-0.53125 0.046875 -0.875 0.234375q-0.328125 0.171875 -0.328125 0.546875q0 0.375 0.28125 0.609375q0.296875 0.234375 0.984375 0.234375zm-0.140625 -7.328125q1.0 0 1.828125 0.203125q0.84375 0.203125 1.421875 0.625q0.59375 0.421875 0.90625 1.0625q0.3125 0.640625 0.3125 1.515625l0 4.1875q0 0.484375 -0.265625 0.796875q-0.265625 0.296875 -0.640625 0.53125q-1.21875 0.71875 -3.421875 0.71875q-0.984375 0 -1.78125 -0.1875q-0.78125 -0.1875 -1.359375 -0.5625q-0.5625 -0.375 -0.875 -0.953125q-0.3125 -0.578125 -0.3125 -1.34375q0 -1.28125 0.765625 -1.96875q0.765625 -0.6875 2.375 -0.859375l2.4375 -0.265625l0 -0.125q0 -0.546875 -0.46875 -0.78125q-0.46875 -0.234375 -1.375 -0.234375q-0.703125 0 -1.375 0.15625q-0.671875 0.15625 -1.21875 0.375q-0.234375 -0.171875 -0.40625 -0.515625q-0.171875 -0.34375 -0.171875 -0.71875q0 -0.484375 0.234375 -0.765625q0.234375 -0.296875 0.71875 -0.5q0.546875 -0.203125 1.28125 -0.296875q0.734375 -0.09375 1.390625 -0.09375zm10.570923 0q1.125 0 2.078125 0.296875q0.96875 0.28125 1.65625 0.875q0.6875 0.59375 1.078125 1.5q0.390625 0.90625 0.390625 2.15625q0 1.1875 -0.34375 2.09375q-0.328125 0.890625 -0.9375 1.5q-0.609375 0.609375 -1.484375 0.90625q-0.859375 0.296875 -1.921875 0.296875q-0.8125 0 -1.5 -0.25l0 3.109375q-0.1875 0.046875 -0.59375 0.109375q-0.40625 0.078125 -0.84375 0.078125q-0.40625 0 -0.734375 -0.0625q-0.328125 -0.0625 -0.5625 -0.234375q-0.21875 -0.15625 -0.328125 -0.453125q-0.109375 -0.28125 -0.109375 -0.75l0 -8.953125q0 -0.5 0.21875 -0.8125q0.21875 -0.328125 0.578125 -0.59375q0.578125 -0.375 1.4375 -0.59375q0.859375 -0.21875 1.921875 -0.21875zm0.046875 7.125q1.921875 0 1.921875 -2.296875q0 -1.1875 -0.484375 -1.765625q-0.46875 -0.578125 -1.359375 -0.578125q-0.359375 0 -0.640625 0.078125q-0.28125 0.078125 -0.484375 0.203125l0 4.09375q0.21875 0.109375 0.484375 0.1875q0.265625 0.078125 0.5625 0.078125zm6.6326294 -9.359375q0 -0.71875 0.46875 -1.203125q0.484375 -0.484375 1.265625 -0.484375q0.796875 0 1.265625 0.484375q0.46875 0.484375 0.46875 1.203125q0 0.703125 -0.46875 1.1875q-0.46875 0.484375 -1.265625 0.484375q-0.78125 0 -1.265625 -0.484375q-0.46875 -0.484375 -0.46875 -1.1875zm3.328125 11.5625q-0.203125 0.03125 -0.609375 0.09375q-0.40625 0.078125 -0.8125 0.078125q-0.40625 0 -0.734375 -0.0625q-0.328125 -0.0625 -0.5625 -0.21875q-0.21875 -0.171875 -0.34375 -0.453125q-0.109375 -0.296875 -0.109375 -0.765625l0 -7.59375q0.203125 -0.03125 0.59375 -0.09375q0.40625 -0.078125 0.828125 -0.078125q0.40625 0 0.734375 0.0625q0.328125 0.046875 0.546875 0.21875q0.21875 0.171875 0.34375 0.46875q0.125 0.28125 0.125 0.75l0 7.59375z" fill-rule="nonzero"/><path fill="#eeeeee" d="m392.4042 179.82971l0 0c0 -8.871521 7.1917725 -16.063309 16.063293 -16.063309l74.73953 0c4.260254 0 8.346008 1.6923828 11.358459 4.704834c3.0124817 3.0124512 4.7048645 7.098221 4.7048645 11.358475l0 64.25133c0 8.871521 -7.191803 16.063309 -16.063324 16.063309l-74.73953 0c-8.871521 0 -16.063293 -7.1917877 -16.063293 -16.063309z" fill-rule="evenodd"/><path stroke="#595959" stroke-width="1.0" stroke-linejoin="round" stroke-linecap="butt" d="m392.4042 179.82971l0 0c0 -8.871521 7.1917725 -16.063309 16.063293 -16.063309l74.73953 0c4.260254 0 8.346008 1.6923828 11.358459 4.704834c3.0124817 3.0124512 4.7048645 7.098221 4.7048645 11.358475l0 64.25133c0 8.871521 -7.191803 16.063309 -16.063324 16.063309l-74.73953 0c-8.871521 0 -16.063293 -7.1917877 -16.063293 -16.063309z" fill-rule="evenodd"/><path fill="#000000" d="m414.92007 212.03163q-0.46875 0 -0.890625 0.15625q-0.40625 0.140625 -0.71875 0.4375q-0.3125 0.28125 -0.5 0.71875q-0.1875 0.421875 -0.1875 1.0q0 1.15625 0.65625 1.734375q0.671875 0.578125 1.625 0.578125q0.5625 0 0.96875 -0.125q0.40625 -0.140625 0.734375 -0.28125q0.375 0.25 0.546875 0.5625q0.1875 0.3125 0.1875 0.734375q0 0.765625 -0.734375 1.1875q-0.71875 0.421875 -2.0 0.421875q-1.171875 0 -2.125 -0.34375q-0.953125 -0.34375 -1.640625 -0.96875q-0.671875 -0.625 -1.046875 -1.5q-0.375 -0.890625 -0.375 -1.953125q0 -1.21875 0.390625 -2.140625q0.40625 -0.9375 1.09375 -1.53125q0.703125 -0.59375 1.609375 -0.890625q0.90625 -0.296875 1.90625 -0.296875q1.34375 0 2.0625 0.484375q0.734375 0.484375 0.734375 1.25q0 0.359375 -0.171875 0.671875q-0.15625 0.296875 -0.390625 0.515625q-0.3125 -0.140625 -0.765625 -0.28125q-0.4375 -0.140625 -0.96875 -0.140625zm13.124176 2.3125q0 1.15625 -0.359375 2.0625q-0.359375 0.90625 -1.0 1.53125q-0.640625 0.609375 -1.546875 0.921875q-0.890625 0.3125 -1.984375 0.3125q-1.109375 0 -2.0 -0.328125q-0.890625 -0.34375 -1.546875 -0.96875q-0.640625 -0.625 -1.0 -1.515625q-0.34375 -0.90625 -0.34375 -2.015625q0 -1.109375 0.34375 -2.0q0.359375 -0.890625 1.0 -1.515625q0.65625 -0.625 1.546875 -0.953125q0.890625 -0.34375 2.0 -0.34375q1.09375 0 1.984375 0.34375q0.90625 0.34375 1.546875 0.96875q0.640625 0.625 1.0 1.53125q0.359375 0.890625 0.359375 1.96875zm-6.53125 0q0 1.140625 0.4375 1.75q0.4375 0.59375 1.21875 0.59375q0.78125 0 1.203125 -0.609375q0.421875 -0.625 0.421875 -1.734375q0 -1.125 -0.4375 -1.71875q-0.421875 -0.609375 -1.203125 -0.609375q-0.78125 0 -1.21875 0.609375q-0.421875 0.59375 -0.421875 1.71875zm13.823181 -1.21875q0 -0.578125 -0.328125 -0.84375q-0.328125 -0.265625 -0.890625 -0.265625q-0.375 0 -0.734375 0.09375q-0.359375 0.09375 -0.625 0.265625l0 6.484375q-0.1875 0.046875 -0.59375 0.109375q-0.390625 0.0625 -0.828125 0.0625q-0.40625 0 -0.734375 -0.0625q-0.328125 -0.0625 -0.546875 -0.21875q-0.21875 -0.171875 -0.34375 -0.453125q-0.125 -0.296875 -0.125 -0.765625l0 -5.59375q0 -0.5 0.21875 -0.8125q0.21875 -0.328125 0.578125 -0.59375q0.640625 -0.4375 1.59375 -0.71875q0.96875 -0.28125 2.140625 -0.28125q2.109375 0 3.25 0.921875q1.140625 0.921875 1.140625 2.5625l0 5.84375q-0.1875 0.046875 -0.59375 0.109375q-0.390625 0.0625 -0.828125 0.0625q-0.40625 0 -0.734375 -0.0625q-0.328125 -0.0625 -0.5625 -0.21875q-0.21875 -0.171875 -0.34375 -0.453125q-0.109375 -0.296875 -0.109375 -0.765625l0 -4.40625zm12.782867 3.046875q0 1.421875 -1.0625 2.21875q-1.0625 0.796875 -3.140625 0.796875q-0.78125 0 -1.453125 -0.109375q-0.671875 -0.109375 -1.15625 -0.34375q-0.46875 -0.234375 -0.75 -0.578125q-0.265625 -0.359375 -0.265625 -0.84375q0 -0.453125 0.1875 -0.75q0.1875 -0.3125 0.453125 -0.515625q0.546875 0.296875 1.234375 0.53125q0.703125 0.21875 1.625 0.21875q0.578125 0 0.875 -0.15625q0.3125 -0.171875 0.3125 -0.453125q0 -0.265625 -0.234375 -0.40625q-0.21875 -0.15625 -0.734375 -0.25l-0.5625 -0.109375q-1.625 -0.3125 -2.421875 -0.984375q-0.78125 -0.6875 -0.78125 -1.96875q0 -0.6875 0.296875 -1.234375q0.296875 -0.5625 0.828125 -0.9375q0.546875 -0.375 1.296875 -0.578125q0.765625 -0.203125 1.671875 -0.203125q0.703125 0 1.296875 0.109375q0.609375 0.09375 1.0625 0.296875q0.453125 0.203125 0.703125 0.53125q0.265625 0.328125 0.265625 0.765625q0 0.4375 -0.15625 0.75q-0.15625 0.296875 -0.40625 0.5q-0.140625 -0.09375 -0.453125 -0.1875q-0.296875 -0.109375 -0.65625 -0.1875q-0.34375 -0.078125 -0.71875 -0.140625q-0.359375 -0.0625 -0.65625 -0.0625q-0.609375 0 -0.953125 0.140625q-0.328125 0.140625 -0.328125 0.4375q0 0.21875 0.1875 0.34375q0.1875 0.125 0.703125 0.234375l0.578125 0.140625q1.796875 0.40625 2.546875 1.125q0.765625 0.71875 0.765625 1.859375zm11.006592 -1.828125q0 1.15625 -0.359375 2.0625q-0.359375 0.90625 -1.0 1.53125q-0.640625 0.609375 -1.546875 0.921875q-0.890625 0.3125 -1.984375 0.3125q-1.109375 0 -2.0 -0.328125q-0.890625 -0.34375 -1.546875 -0.96875q-0.640625 -0.625 -1.0 -1.515625q-0.34375 -0.90625 -0.34375 -2.015625q0 -1.109375 0.34375 -2.0q0.359375 -0.890625 1.0 -1.515625q0.65625 -0.625 1.546875 -0.953125q0.890625 -0.34375 2.0 -0.34375q1.09375 0 1.984375 0.34375q0.90625 0.34375 1.546875 0.96875q0.640625 0.625 1.0 1.53125q0.359375 0.890625 0.359375 1.96875zm-6.53125 0q0 1.140625 0.4375 1.75q0.4375 0.59375 1.21875 0.59375q0.78125 0 1.203125 -0.609375q0.421875 -0.625 0.421875 -1.734375q0 -1.125 -0.4375 -1.71875q-0.421875 -0.609375 -1.203125 -0.609375q-0.78125 0 -1.21875 0.609375q-0.421875 0.59375 -0.421875 1.71875zm11.307556 4.515625q-0.203125 0.03125 -0.609375 0.09375q-0.40625 0.078125 -0.8125 0.078125q-0.40625 0 -0.734375 -0.0625q-0.328125 -0.0625 -0.5625 -0.21875q-0.21875 -0.171875 -0.34375 -0.453125q-0.109375 -0.296875 -0.109375 -0.765625l0 -10.8125q0.203125 -0.046875 0.59375 -0.109375q0.40625 -0.0625 0.8125 -0.0625q0.421875 0 0.734375 0.0625q0.328125 0.046875 0.546875 0.21875q0.234375 0.15625 0.359375 0.453125q0.125 0.28125 0.125 0.75l0 10.828125zm6.786255 0.3125q-1.09375 0 -2.046875 -0.296875q-0.9375 -0.3125 -1.640625 -0.921875q-0.703125 -0.625 -1.109375 -1.5625q-0.390625 -0.9375 -0.390625 -2.1875q0 -1.21875 0.390625 -2.109375q0.40625 -0.890625 1.0625 -1.453125q0.65625 -0.578125 1.484375 -0.84375q0.84375 -0.265625 1.734375 -0.265625q0.984375 0 1.796875 0.296875q0.8125 0.296875 1.390625 0.828125q0.59375 0.515625 0.921875 1.25q0.328125 0.71875 0.328125 1.578125q0 0.640625 -0.359375 0.984375q-0.359375 0.328125 -0.984375 0.40625l-4.609375 0.703125q0.203125 0.609375 0.828125 0.921875q0.640625 0.296875 1.46875 0.296875q0.765625 0 1.4375 -0.1875q0.6875 -0.203125 1.109375 -0.453125q0.296875 0.1875 0.5 0.53125q0.21875 0.328125 0.21875 0.6875q0 0.84375 -0.796875 1.25q-0.59375 0.328125 -1.34375 0.4375q-0.734375 0.109375 -1.390625 0.109375zm-0.515625 -7.328125q-0.453125 0 -0.78125 0.15625q-0.328125 0.140625 -0.53125 0.375q-0.203125 0.234375 -0.3125 0.53125q-0.09375 0.28125 -0.125 0.578125l3.203125 -0.515625q-0.0625 -0.375 -0.421875 -0.75q-0.34375 -0.375 -1.03125 -0.375zm9.132904 7.015625q-0.1875 0.046875 -0.59375 0.109375q-0.390625 0.0625 -0.828125 0.0625q-0.40625 0 -0.734375 -0.0625q-0.328125 -0.0625 -0.546875 -0.21875q-0.21875 -0.171875 -0.34375 -0.453125q-0.125 -0.296875 -0.125 -0.765625l0 -5.59375q0 -0.4375 0.15625 -0.734375q0.15625 -0.3125 0.453125 -0.5625q0.3125 -0.234375 0.75 -0.421875q0.4375 -0.203125 0.9375 -0.34375q0.5 -0.15625 1.03125 -0.234375q0.546875 -0.09375 1.09375 -0.09375q0.890625 0 1.40625 0.34375q0.53125 0.34375 0.53125 1.125q0 0.265625 -0.078125 0.515625q-0.0625 0.25 -0.171875 0.453125q-0.40625 0 -0.8125 0.046875q-0.40625 0.03125 -0.796875 0.109375q-0.390625 0.078125 -0.734375 0.15625q-0.34375 0.078125 -0.59375 0.203125l0 6.359375z" fill-rule="nonzero"/><path fill="#eeeeee" d="m773.916 179.82971l0 0c0 -8.871521 7.1917725 -16.063309 16.063293 -16.063309l74.7395 0c4.260254 0 8.346069 1.6923828 11.3585205 4.704834c3.0124512 3.0124512 4.704834 7.098221 4.704834 11.358475l0 64.25133c0 8.871521 -7.1918335 16.063309 -16.063354 16.063309l-74.7395 0c-8.871521 0 -16.063293 -7.1917877 -16.063293 -16.063309z" fill-rule="evenodd"/><path stroke="#595959" stroke-width="1.0" stroke-linejoin="round" stroke-linecap="butt" d="m773.916 179.82971l0 0c0 -8.871521 7.1917725 -16.063309 16.063293 -16.063309l74.7395 0c4.260254 0 8.346069 1.6923828 11.3585205 4.704834c3.0124512 3.0124512 4.704834 7.098221 4.704834 11.358475l0 64.25133c0 8.871521 -7.1918335 16.063309 -16.063354 16.063309l-74.7395 0c-8.871521 0 -16.063293 -7.1917877 -16.063293 -16.063309z" fill-rule="evenodd"/><path fill="#000000" d="m815.48645 218.59413q-0.265625 0.21875 -0.71875 0.359375q-0.4375 0.140625 -1.0625 0.140625q-0.765625 0 -1.328125 -0.21875q-0.546875 -0.203125 -0.734375 -0.59375q-0.203125 -0.453125 -0.484375 -1.421875q-0.265625 -0.96875 -0.53125 -2.125q-0.25 -1.15625 -0.484375 -2.34375q-0.234375 -1.203125 -0.375 -2.109375q0.265625 -0.265625 0.703125 -0.453125q0.4375 -0.203125 0.96875 -0.203125q0.65625 0 1.0625 0.296875q0.421875 0.28125 0.515625 0.984375q0.1875 1.421875 0.3125 2.34375q0.140625 0.921875 0.21875 1.515625q0.09375 0.578125 0.140625 0.890625q0.046875 0.3125 0.078125 0.5l0.078125 0q0.046875 -0.296875 0.1875 -0.859375q0.140625 -0.578125 0.328125 -1.296875q0.1875 -0.734375 0.390625 -1.578125q0.203125 -0.859375 0.421875 -1.703125q0.359375 -0.203125 0.71875 -0.3125q0.375 -0.109375 0.921875 -0.109375q0.640625 0 1.109375 0.203125q0.46875 0.203125 0.59375 0.625q0.234375 0.828125 0.4375 1.609375q0.203125 0.765625 0.375 1.4375q0.171875 0.65625 0.296875 1.171875q0.125 0.515625 0.1875 0.8125l0.09375 0q0.203125 -1.4375 0.390625 -2.984375q0.203125 -1.546875 0.375 -3.15625q0.328125 -0.203125 0.703125 -0.296875q0.375 -0.09375 0.75 -0.09375q0.65625 0 1.078125 0.28125q0.4375 0.28125 0.4375 0.96875q0 0.296875 -0.09375 0.890625q-0.09375 0.59375 -0.25 1.34375q-0.140625 0.75 -0.34375 1.578125q-0.203125 0.8125 -0.40625 1.578125q-0.1875 0.765625 -0.359375 1.390625q-0.171875 0.609375 -0.3125 0.9375q-0.25 0.21875 -0.796875 0.359375q-0.546875 0.140625 -1.15625 0.140625q-1.5625 0 -1.84375 -0.78125q-0.109375 -0.328125 -0.28125 -0.84375q-0.171875 -0.515625 -0.359375 -1.125q-0.1875 -0.625 -0.359375 -1.28125q-0.15625 -0.671875 -0.265625 -1.28125q-0.140625 0.65625 -0.328125 1.359375q-0.1875 0.6875 -0.390625 1.359375q-0.1875 0.65625 -0.359375 1.21875q-0.15625 0.546875 -0.25 0.875zm14.38208 0.578125q-1.09375 0 -2.046875 -0.296875q-0.9375 -0.3125 -1.640625 -0.921875q-0.703125 -0.625 -1.109375 -1.5625q-0.390625 -0.9375 -0.390625 -2.1875q0 -1.21875 0.390625 -2.109375q0.40625 -0.890625 1.0625 -1.453125q0.65625 -0.578125 1.484375 -0.84375q0.84375 -0.265625 1.734375 -0.265625q0.984375 0 1.796875 0.296875q0.8125 0.296875 1.390625 0.828125q0.59375 0.515625 0.921875 1.25q0.328125 0.71875 0.328125 1.578125q0 0.640625 -0.359375 0.984375q-0.359375 0.328125 -0.984375 0.40625l-4.609375 0.703125q0.203125 0.609375 0.828125 0.921875q0.640625 0.296875 1.46875 0.296875q0.765625 0 1.4375 -0.1875q0.6875 -0.203125 1.109375 -0.453125q0.296875 0.1875 0.5 0.53125q0.21875 0.328125 0.21875 0.6875q0 0.84375 -0.796875 1.25q-0.59375 0.328125 -1.34375 0.4375q-0.734375 0.109375 -1.390625 0.109375zm-0.515625 -7.328125q-0.453125 0 -0.78125 0.15625q-0.328125 0.140625 -0.53125 0.375q-0.203125 0.234375 -0.3125 0.53125q-0.09375 0.28125 -0.125 0.578125l3.203125 -0.515625q-0.0625 -0.375 -0.421875 -0.75q-0.34375 -0.375 -1.03125 -0.375zm5.9922485 -5.109375q0.1875 -0.0625 0.59375 -0.125q0.421875 -0.0625 0.84375 -0.0625q0.421875 0 0.734375 0.0625q0.328125 0.046875 0.546875 0.21875q0.234375 0.15625 0.34375 0.453125q0.109375 0.28125 0.109375 0.75l0 1.828125q0.46875 -0.1875 0.890625 -0.25q0.421875 -0.078125 0.921875 -0.078125q0.90625 0 1.703125 0.3125q0.796875 0.3125 1.40625 0.921875q0.625 0.609375 0.96875 1.515625q0.359375 0.890625 0.359375 2.0625q0 1.203125 -0.359375 2.109375q-0.359375 0.90625 -1.015625 1.515625q-0.65625 0.59375 -1.59375 0.90625q-0.9375 0.296875 -2.078125 0.296875q-1.234375 0 -2.09375 -0.296875q-0.859375 -0.28125 -1.453125 -0.703125q-0.828125 -0.578125 -0.828125 -1.5l0 -9.9375zm4.375 9.9375q0.859375 0 1.328125 -0.578125q0.484375 -0.59375 0.484375 -1.75q0 -1.171875 -0.484375 -1.75q-0.484375 -0.578125 -1.3125 -0.578125q-0.375 0 -0.640625 0.078125q-0.265625 0.0625 -0.59375 0.21875l0 4.0625q0.203125 0.125 0.484375 0.21875q0.296875 0.078125 0.734375 0.078125z" fill-rule="nonzero"/><path fill="#eeeeee" d="m283.7979 45.170925l0 0c0 -8.871525 7.1917725 -16.063314 16.063293 -16.063314l74.73953 0c4.260254 0 8.346008 1.6923809 11.358459 4.704836c3.0124512 3.012455 4.704834 7.0982246 4.704834 11.358479l0 64.25133c0 8.871529 -7.1917725 16.063316 -16.063293 16.063316l-74.73953 0c-8.871521 0 -16.063293 -7.1917877 -16.063293 -16.063316z" fill-rule="evenodd"/><path stroke="#595959" stroke-width="1.0" stroke-linejoin="round" stroke-linecap="butt" d="m283.7979 45.170925l0 0c0 -8.871525 7.1917725 -16.063314 16.063293 -16.063314l74.73953 0c4.260254 0 8.346008 1.6923809 11.358459 4.704836c3.0124512 3.012455 4.704834 7.0982246 4.704834 11.358479l0 64.25133c0 8.871529 -7.1917725 16.063316 -16.063293 16.063316l-74.73953 0c-8.871521 0 -16.063293 -7.1917877 -16.063293 -16.063316z" fill-rule="evenodd"/><path fill="#000000" d="m308.38828 68.68533q0 -1.234375 0.375 -2.140625q0.375 -0.90625 1.03125 -1.5q0.671875 -0.59375 1.546875 -0.875q0.890625 -0.2968712 1.921875 -0.2968712q0.375 0 0.71875 0.0625q0.359375 0.0625 0.578125 0.15624619l0 -3.0156212q0.1875 -0.0625 0.59375 -0.125q0.421875 -0.0625 0.84375 -0.0625q0.40625 0 0.734375 0.0625q0.328125 0.046875 0.546875 0.21875q0.234375 0.15625 0.34375 0.453125q0.109375 0.28125 0.109375 0.75l0 8.843746q0 0.875 -0.8125 1.40625q-0.546875 0.34375 -1.40625 0.609375q-0.859375 0.28125 -1.96875 0.28125q-1.21875 0 -2.1875 -0.328125q-0.953125 -0.34375 -1.625 -0.96875q-0.65625 -0.640625 -1.0 -1.53125q-0.34375 -0.890625 -0.34375 -2.0zm5.296875 -2.328125q-1.0 0 -1.546875 0.578125q-0.546875 0.578125 -0.546875 1.75q0 1.15625 0.5 1.75q0.515625 0.578125 1.46875 0.578125q0.328125 0 0.59375 -0.09375q0.28125 -0.109375 0.421875 -0.234375l0 -4.109375q-0.359375 -0.21875 -0.890625 -0.21875zm15.416962 2.328125q0 1.15625 -0.359375 2.0625q-0.359375 0.90625 -1.0 1.53125q-0.640625 0.609375 -1.546875 0.921875q-0.890625 0.3125 -1.984375 0.3125q-1.109375 0 -2.0 -0.328125q-0.890625 -0.34375 -1.546875 -0.96875q-0.640625 -0.625 -1.0 -1.515625q-0.34375 -0.90625 -0.34375 -2.015625q0 -1.109375 0.34375 -2.0q0.359375 -0.890625 1.0 -1.515625q0.65625 -0.625 1.546875 -0.953125q0.890625 -0.3437462 2.0 -0.3437462q1.09375 0 1.984375 0.3437462q0.90625 0.34375 1.546875 0.96875q0.640625 0.625 1.0 1.53125q0.359375 0.890625 0.359375 1.96875zm-6.53125 0q0 1.140625 0.4375 1.75q0.4375 0.59375 1.21875 0.59375q0.78125 0 1.203125 -0.609375q0.421875 -0.625 0.421875 -1.734375q0 -1.125 -0.4375 -1.71875q-0.421875 -0.609375 -1.203125 -0.609375q-0.78125 0 -1.21875 0.609375q-0.421875 0.59375 -0.421875 1.71875zm13.182556 -2.3125q-0.46875 0 -0.890625 0.15625q-0.40625 0.140625 -0.71875 0.4375q-0.3125 0.28125 -0.5 0.71875q-0.1875 0.421875 -0.1875 1.0q0 1.15625 0.65625 1.734375q0.671875 0.578125 1.625 0.578125q0.5625 0 0.96875 -0.125q0.40625 -0.140625 0.734375 -0.28125q0.375 0.25 0.546875 0.5625q0.1875 0.3125 0.1875 0.734375q0 0.765625 -0.734375 1.1875q-0.71875 0.421875 -2.0 0.421875q-1.171875 0 -2.125 -0.34375q-0.953125 -0.34375 -1.640625 -0.96875q-0.671875 -0.625 -1.046875 -1.5q-0.375 -0.890625 -0.375 -1.953125q0 -1.21875 0.390625 -2.140625q0.40625 -0.9375 1.09375 -1.53125q0.703125 -0.59375 1.609375 -0.890625q0.90625 -0.2968712 1.90625 -0.2968712q1.34375 0 2.0625 0.4843712q0.734375 0.484375 0.734375 1.25q0 0.359375 -0.171875 0.671875q-0.15625 0.296875 -0.390625 0.515625q-0.3125 -0.140625 -0.765625 -0.28125q-0.4375 -0.140625 -0.96875 -0.140625zm12.872925 5.203125q-0.09375 0.875 -0.515625 1.34375q-0.40625 0.46875 -1.21875 0.46875q-0.59375 0 -1.0625 -0.28125q-0.46875 -0.296875 -1.0 -0.984375l-1.859375 -2.328125l0 3.40625q-0.203125 0.03125 -0.609375 0.09375q-0.390625 0.078125 -0.796875 0.078125q-0.421875 0 -0.75 -0.0625q-0.3125 -0.0625 -0.546875 -0.21875q-0.21875 -0.171875 -0.34375 -0.453125q-0.125 -0.296875 -0.125 -0.765625l0 -10.796871q0.21875 -0.0625 0.609375 -0.125q0.40625 -0.0625 0.8125 -0.0625q0.40625 0 0.734375 0.0625q0.328125 0.046875 0.546875 0.21875q0.234375 0.15625 0.34375 0.453125q0.125 0.28125 0.125 0.75l0 4.937496l3.21875 -3.296875q0.96875 0 1.546875 0.4375q0.59375 0.421875 0.59375 1.078125q0 0.28125 -0.09375 0.515625q-0.09375 0.234375 -0.296875 0.484375q-0.1875 0.234375 -0.5 0.515625q-0.296875 0.265625 -0.71875 0.609375l-1.078125 0.9375l2.984375 2.984375zm5.8810425 1.9375q-1.09375 0 -2.046875 -0.296875q-0.9375 -0.3125 -1.640625 -0.921875q-0.703125 -0.625 -1.109375 -1.5625q-0.390625 -0.9375 -0.390625 -2.1875q0 -1.21875 0.390625 -2.109375q0.40625 -0.890625 1.0625 -1.453125q0.65625 -0.578125 1.484375 -0.84375q0.84375 -0.2656212 1.734375 -0.2656212q0.984375 0 1.796875 0.2968712q0.8125 0.296875 1.390625 0.828125q0.59375 0.515625 0.921875 1.25q0.328125 0.71875 0.328125 1.578125q0 0.640625 -0.359375 0.984375q-0.359375 0.328125 -0.984375 0.40625l-4.609375 0.703125q0.203125 0.609375 0.828125 0.921875q0.640625 0.296875 1.46875 0.296875q0.765625 0 1.4375 -0.1875q0.6875 -0.203125 1.109375 -0.453125q0.296875 0.1875 0.5 0.53125q0.21875 0.328125 0.21875 0.6875q0 0.84375 -0.796875 1.25q-0.59375 0.328125 -1.34375 0.4375q-0.734375 0.109375 -1.390625 0.109375zm-0.515625 -7.328125q-0.453125 0 -0.78125 0.15625q-0.328125 0.140625 -0.53125 0.375q-0.203125 0.234375 -0.3125 0.53125q-0.09375 0.28125 -0.125 0.578125l3.203125 -0.515625q-0.0625 -0.375 -0.421875 -0.75q-0.34375 -0.375 -1.03125 -0.375zm9.132904 7.015625q-0.1875 0.046875 -0.59375 0.109375q-0.390625 0.0625 -0.828125 0.0625q-0.40625 0 -0.734375 -0.0625q-0.328125 -0.0625 -0.546875 -0.21875q-0.21875 -0.171875 -0.34375 -0.453125q-0.125 -0.296875 -0.125 -0.765625l0 -5.59375q0 -0.4375 0.15625 -0.734375q0.15625 -0.3125 0.453125 -0.5625q0.3125 -0.234375 0.75 -0.421875q0.4375 -0.203125 0.9375 -0.34375q0.5 -0.15625 1.03125 -0.23437119q0.546875 -0.09375 1.09375 -0.09375q0.890625 0 1.40625 0.3437462q0.53125 0.34375 0.53125 1.125q0 0.265625 -0.078125 0.515625q-0.0625 0.25 -0.171875 0.453125q-0.40625 0 -0.8125 0.046875q-0.40625 0.03125 -0.796875 0.109375q-0.390625 0.078125 -0.734375 0.15625q-0.34375 0.078125 -0.59375 0.203125l0 6.359375z" fill-rule="nonzero"/><path fill="#000000" d="m328.91272 93.20096q0.328125 0 0.703125 -0.0625q0.390625 -0.0625 0.578125 -0.171875l0 -1.5l-1.34375 0.109375q-0.53125 0.046875 -0.875 0.234375q-0.328125 0.171875 -0.328125 0.546875q0 0.375 0.28125 0.609375q0.296875 0.234375 0.984375 0.234375zm-0.140625 -7.328125q1.0 0 1.828125 0.203125q0.84375 0.203125 1.421875 0.625q0.59375 0.421875 0.90625 1.0625q0.3125 0.640625 0.3125 1.515625l0 4.1875q0 0.484375 -0.265625 0.796875q-0.265625 0.296875 -0.640625 0.53125q-1.21875 0.71875 -3.421875 0.71875q-0.984375 0 -1.78125 -0.1875q-0.78125 -0.1875 -1.359375 -0.5625q-0.5625 -0.375 -0.875 -0.953125q-0.3125 -0.578125 -0.3125 -1.34375q0 -1.28125 0.765625 -1.96875q0.765625 -0.6875 2.375 -0.859375l2.4375 -0.265625l0 -0.125q0 -0.546875 -0.46875 -0.78125q-0.46875 -0.234375 -1.375 -0.234375q-0.703125 0 -1.375 0.15625q-0.671875 0.15625 -1.21875 0.375q-0.234375 -0.171875 -0.40625 -0.515625q-0.171875 -0.34375 -0.171875 -0.71875q0 -0.484375 0.234375 -0.765625q0.234375 -0.296875 0.71875 -0.5q0.546875 -0.203125 1.28125 -0.296875q0.734375 -0.09375 1.390625 -0.09375zm10.570892 0q1.125 0 2.078125 0.296875q0.96875 0.28125 1.65625 0.875q0.6875 0.59375 1.078125 1.5q0.390625 0.90625 0.390625 2.15625q0 1.1875 -0.34375 2.09375q-0.328125 0.890625 -0.9375 1.5q-0.609375 0.609375 -1.484375 0.90625q-0.859375 0.296875 -1.921875 0.296875q-0.8125 0 -1.5 -0.25l0 3.109375q-0.1875 0.046875 -0.59375 0.109375q-0.40625 0.078125 -0.84375 0.078125q-0.40625 0 -0.734375 -0.0625q-0.328125 -0.0625 -0.5625 -0.234375q-0.21875 -0.15625 -0.328125 -0.453125q-0.109375 -0.28125 -0.109375 -0.75l0 -8.953125q0 -0.5 0.21875 -0.8125q0.21875 -0.328125 0.578125 -0.59375q0.578125 -0.375 1.4375 -0.59375q0.859375 -0.21875 1.921875 -0.21875zm0.046875 7.125q1.921875 0 1.921875 -2.296875q0 -1.1875 -0.484375 -1.765625q-0.46875 -0.578125 -1.359375 -0.578125q-0.359375 0 -0.640625 0.078125q-0.28125 0.078125 -0.484375 0.203125l0 4.09375q0.21875 0.109375 0.484375 0.1875q0.265625 0.078125 0.5625 0.078125zm6.63266 -9.359375q0 -0.71875 0.46875 -1.203125q0.484375 -0.484375 1.265625 -0.484375q0.796875 0 1.265625 0.484375q0.46875 0.484375 0.46875 1.203125q0 0.703125 -0.46875 1.1875q-0.46875 0.484375 -1.265625 0.484375q-0.78125 0 -1.265625 -0.484375q-0.46875 -0.484375 -0.46875 -1.1875zm3.328125 11.5625q-0.203125 0.03125 -0.609375 0.09375q-0.40625 0.078125 -0.8125 0.078125q-0.40625 0 -0.734375 -0.0625q-0.328125 -0.0625 -0.5625 -0.21875q-0.21875 -0.171875 -0.34375 -0.453125q-0.109375 -0.296875 -0.109375 -0.765625l0 -7.59375q0.203125 -0.03125 0.59375 -0.09375q0.40625 -0.078125 0.828125 -0.078125q0.40625 0 0.734375 0.0625q0.328125 0.046875 0.546875 0.21875q0.21875 0.171875 0.34375 0.46875q0.125 0.28125 0.125 0.75l0 7.59375z" fill-rule="nonzero"/><path fill="#000000" fill-opacity="0.0" d="m283.7979 77.296585l-82.99214 0l0 98.456696" fill-rule="evenodd"/><path stroke="#595959" stroke-width="1.0" stroke-linejoin="round" stroke-linecap="butt" d="m280.37082 77.296585l-79.56505 0l0 95.02962" fill-rule="evenodd"/><path fill="#595959" stroke="#595959" stroke-width="1.0" stroke-linecap="butt" d="m280.37082 77.296585l-1.1246033 1.124588l3.0897827 -1.124588l-3.0897827 -1.1245804z" fill-rule="evenodd"/><path fill="#595959" stroke="#595959" stroke-width="1.0" stroke-linecap="butt" d="m200.80577 172.32619l-1.1245728 -1.1245728l1.1245728 3.0897675l1.124588 -3.0897675z" fill-rule="evenodd"/><path fill="#000000" fill-opacity="0.0" d="m390.66403 77.296585l55.18112 0l0 86.456696" fill-rule="evenodd"/><path stroke="#595959" stroke-width="1.0" stroke-linejoin="round" stroke-linecap="butt" d="m394.09113 77.296585l51.75403 0l0 82.6667" fill-rule="evenodd"/><path fill="#595959" stroke="#595959" stroke-width="1.0" stroke-linecap="butt" d="m394.09113 77.296585l1.1245728 -1.1245804l-3.0897522 1.1245804l3.0897522 1.124588z" fill-rule="evenodd"/><path fill="#595959" stroke="#595959" stroke-width="1.0" stroke-linecap="butt" d="m445.84515 163.25328c-0.9085083 0 -1.6450195 -0.736496 -1.6450195 -1.6450043c0 -0.9085083 0.73651123 -1.644989 1.6450195 -1.644989c0.9085083 0 1.644989 0.7364807 1.644989 1.644989c0 0.9085083 -0.7364807 1.6450043 -1.644989 1.6450043z" fill-rule="nonzero"/><path fill="#000000" fill-opacity="0.0" d="m445.83728 260.14435l0 10.574585l63.37805 0l0 -58.76355l9.944763 0" fill-rule="evenodd"/><path stroke="#595959" stroke-width="1.0" stroke-linejoin="round" stroke-linecap="butt" d="m445.83728 263.57144l0 7.147522l63.37805 0l0 -58.76358l6.154785 0" fill-rule="evenodd"/><path fill="#595959" stroke="#595959" stroke-width="1.0" stroke-linecap="butt" d="m445.83728 263.57144l1.1245728 1.1245728l-1.1245728 -3.0897522l-1.1246033 3.0897522z" fill-rule="evenodd"/><path fill="#595959" stroke="#595959" stroke-width="1.0" stroke-linecap="butt" d="m518.6601 211.95538c0 0.9085083 -0.73651123 1.6450043 -1.6450195 1.6450043c-0.9085083 0 -1.6449585 -0.736496 -1.6449585 -1.6450043c0 -0.9085083 0.7364502 -1.6450043 1.6449585 -1.6450043c0.9085083 0 1.6450195 0.736496 1.6450195 1.6450043z" fill-rule="nonzero"/><path fill="#000000" fill-opacity="0.0" d="m640.30707 338.18896l0 -39.022064l187.05511 0l0 -39.025177" fill-rule="evenodd"/><path stroke="#595959" stroke-width="1.0" stroke-linejoin="round" stroke-linecap="butt" d="m640.30707 334.39896l0 -35.232056l187.05511 0l0 -35.598083" fill-rule="evenodd"/><path fill="#595959" stroke="#595959" stroke-width="1.0" stroke-linecap="butt" d="m640.30707 337.68896c-0.9085083 0 -1.6449585 -0.7364807 -1.6449585 -1.644989c0 -0.9085083 0.7364502 -1.644989 1.6449585 -1.644989c0.9085083 0 1.6450195 0.7364807 1.6450195 1.644989c0 0.9085083 -0.73651123 1.644989 -1.6450195 1.644989z" fill-rule="nonzero"/><path fill="#595959" stroke="#595959" stroke-width="1.0" stroke-linecap="butt" d="m827.3622 263.56882l1.1246338 1.1245728l-1.1246338 -3.0897522l-1.1245728 3.0897522z" fill-rule="evenodd"/><path fill="#000000" fill-opacity="0.0" d="m640.30707 338.18896l0 -39.022064l-67.71649 0l0 -39.025177" fill-rule="evenodd"/><path stroke="#595959" stroke-width="1.0" stroke-linejoin="round" stroke-linecap="butt" d="m640.30707 334.39896l0 -35.232056l-67.71649 0l0 -35.598083" fill-rule="evenodd"/><path fill="#595959" stroke="#595959" stroke-width="1.0" stroke-linecap="butt" d="m640.30707 337.68896c-0.9085083 0 -1.6449585 -0.7364807 -1.6449585 -1.644989c0 -0.9085083 0.7364502 -1.644989 1.6449585 -1.644989c0.9085083 0 1.6450195 0.7364807 1.6450195 1.644989c0 0.9085083 -0.73651123 1.644989 -1.6450195 1.644989z" fill-rule="nonzero"/><path fill="#595959" stroke="#595959" stroke-width="1.0" stroke-linecap="butt" d="m572.5906 263.56882l1.1245728 1.1245728l-1.1245728 -3.0897522l-1.1246338 3.0897522z" fill-rule="evenodd"/><path fill="#000000" fill-opacity="0.0" d="m640.30707 338.18896l0 -39.022064l59.055115 0l0 -39.025177" fill-rule="evenodd"/><path stroke="#595959" stroke-width="1.0" stroke-linejoin="round" stroke-linecap="butt" d="m640.30707 334.39896l0 -35.232056l59.055115 0l0 -35.598083" fill-rule="evenodd"/><path fill="#595959" stroke="#595959" stroke-width="1.0" stroke-linecap="butt" d="m640.30707 337.68896c-0.9085083 0 -1.6449585 -0.7364807 -1.6449585 -1.644989c0 -0.9085083 0.7364502 -1.644989 1.6449585 -1.644989c0.9085083 0 1.6450195 0.7364807 1.6450195 1.644989c0 0.9085083 -0.73651123 1.644989 -1.6450195 1.644989z" fill-rule="nonzero"/><path fill="#595959" stroke="#595959" stroke-width="1.0" stroke-linecap="butt" d="m699.3622 263.56882l1.1246338 1.1245728l-1.1246338 -3.0897522l-1.1245728 3.0897522z" fill-rule="evenodd"/><path fill="#000000" fill-opacity="0.0" d="m-18.606298 413.78217l162.99213 0l0 58.173218l-162.99213 0z" fill-rule="evenodd"/><path fill="#000000" d="m60.342888 431.59592l-5.71875 21.75l-7.75 0.4375l-7.03125 -21.96875l7.40625 -0.6875l3.0 12.8125l2.90625 -12.8125l7.1875 0.46875zm24.65625 -0.875l-1.4375 22.9375l-7.125 0.3125l0.0625 -12.09375l-3.21875 9.75l-2.75 0l-2.46875 -8.71875l-0.03125 10.125l-7.21875 0.21875l0.3125 -21.59375l8.03125 -0.3125l3.1875 10.34375l4.25 -10.96875l8.40625 0z" fill-rule="nonzero"/><path fill="#eeeeee" d="m118.46465 381.55936l0 0c0 -7.9582825 6.451462 -14.4097595 14.409737 -14.4097595l408.94434 0c3.8216553 0 7.4868164 1.5181885 10.189209 4.22052c2.7023315 2.702362 4.22052 6.367523 4.22052 10.1892395l0 57.637207c0 7.9582825 -6.451477 14.409729 -14.409729 14.409729l-408.94434 0l0 0c-7.958275 0 -14.409737 -6.4514465 -14.409737 -14.409729z" fill-rule="evenodd"/><path stroke="#595959" stroke-width="1.0" stroke-linejoin="round" stroke-linecap="butt" d="m118.46465 381.55936l0 0c0 -7.9582825 6.451462 -14.4097595 14.409737 -14.4097595l408.94434 0c3.8216553 0 7.4868164 1.5181885 10.189209 4.22052c2.7023315 2.702362 4.22052 6.367523 4.22052 10.1892395l0 57.637207c0 7.9582825 -6.451477 14.409729 -14.409729 14.409729l-408.94434 0l0 0c-7.958275 0 -14.409737 -6.4514465 -14.409737 -14.409729z" fill-rule="evenodd"/><path fill="#000000" d="m337.6502 401.7667q0 1.15625 -0.359375 2.0625q-0.359375 0.90625 -1.0 1.53125q-0.640625 0.609375 -1.546875 0.921875q-0.890625 0.3125 -1.984375 0.3125q-1.109375 0 -2.0 -0.328125q-0.890625 -0.34375 -1.546875 -0.96875q-0.640625 -0.625 -1.0 -1.515625q-0.34375 -0.90625 -0.34375 -2.015625q0 -1.109375 0.34375 -2.0q0.359375 -0.890625 1.0 -1.515625q0.65625 -0.625 1.546875 -0.953125q0.890625 -0.34375 2.0 -0.34375q1.09375 0 1.984375 0.34375q0.90625 0.34375 1.546875 0.96875q0.640625 0.625 1.0 1.53125q0.359375 0.890625 0.359375 1.96875zm-6.53125 0q0 1.140625 0.4375 1.75q0.4375 0.59375 1.21875 0.59375q0.78125 0 1.203125 -0.609375q0.421875 -0.625 0.421875 -1.734375q0 -1.125 -0.4375 -1.71875q-0.421875 -0.609375 -1.203125 -0.609375q-0.78125 0 -1.21875 0.609375q-0.421875 0.59375 -0.421875 1.71875zm15.729431 1.828125q0 1.421875 -1.0625 2.21875q-1.0625 0.796875 -3.140625 0.796875q-0.78125 0 -1.453125 -0.109375q-0.671875 -0.109375 -1.15625 -0.34375q-0.46875 -0.234375 -0.75 -0.578125q-0.265625 -0.359375 -0.265625 -0.84375q0 -0.453125 0.1875 -0.75q0.1875 -0.3125 0.453125 -0.515625q0.546875 0.296875 1.234375 0.53125q0.703125 0.21875 1.625 0.21875q0.578125 0 0.875 -0.15625q0.3125 -0.171875 0.3125 -0.453125q0 -0.265625 -0.234375 -0.40625q-0.21875 -0.15625 -0.734375 -0.25l-0.5625 -0.109375q-1.625 -0.3125 -2.421875 -0.984375q-0.78125 -0.6875 -0.78125 -1.96875q0 -0.6875 0.296875 -1.234375q0.296875 -0.5625 0.828125 -0.9375q0.546875 -0.375 1.296875 -0.578125q0.765625 -0.203125 1.671875 -0.203125q0.703125 0 1.296875 0.109375q0.609375 0.09375 1.0625 0.296875q0.453125 0.203125 0.703125 0.53125q0.265625 0.328125 0.265625 0.765625q0 0.4375 -0.15625 0.75q-0.15625 0.296875 -0.40625 0.5q-0.140625 -0.09375 -0.453125 -0.1875q-0.296875 -0.109375 -0.65625 -0.1875q-0.34375 -0.078125 -0.71875 -0.140625q-0.359375 -0.0625 -0.65625 -0.0625q-0.609375 0 -0.953125 0.140625q-0.328125 0.140625 -0.328125 0.4375q0 0.21875 0.1875 0.34375q0.1875 0.125 0.703125 0.234375l0.578125 0.140625q1.796875 0.40625 2.546875 1.125q0.765625 0.71875 0.765625 1.859375z" fill-rule="nonzero"/><path fill="#000000" d="m286.58768 418.9542q0.765625 0 1.5 0.21875q0.75 0.203125 1.28125 0.640625q0.5625 -0.375 1.265625 -0.609375q0.703125 -0.25 1.6875 -0.25q0.703125 0 1.375 0.1875q0.6875 0.1875 1.21875 0.59375q0.53125 0.390625 0.84375 1.0625q0.328125 0.65625 0.328125 1.609375l0 5.875q-0.1875 0.046875 -0.59375 0.109375q-0.390625 0.0625 -0.828125 0.0625q-0.40625 0 -0.734375 -0.0625q-0.328125 -0.0625 -0.546875 -0.21875q-0.21875 -0.171875 -0.34375 -0.453125q-0.125 -0.296875 -0.125 -0.765625l0 -4.453125q0 -0.5625 -0.328125 -0.8125q-0.3125 -0.25 -0.84375 -0.25q-0.265625 0 -0.5625 0.125q-0.296875 0.109375 -0.453125 0.234375q0.03125 0.078125 0.03125 0.15625q0 0.0625 0 0.109375l0 6.21875q-0.21875 0.046875 -0.625 0.109375q-0.390625 0.0625 -0.796875 0.0625q-0.40625 0 -0.734375 -0.0625q-0.328125 -0.0625 -0.5625 -0.21875q-0.21875 -0.171875 -0.34375 -0.453125q-0.109375 -0.296875 -0.109375 -0.765625l0 -4.453125q0 -0.5625 -0.359375 -0.8125q-0.34375 -0.25 -0.828125 -0.25q-0.328125 0 -0.578125 0.109375q-0.234375 0.09375 -0.40625 0.1875l0 6.546875q-0.1875 0.046875 -0.59375 0.109375q-0.390625 0.0625 -0.828125 0.0625q-0.40625 0 -0.734375 -0.0625q-0.328125 -0.0625 -0.546875 -0.21875q-0.21875 -0.171875 -0.34375 -0.453125q-0.125 -0.296875 -0.125 -0.765625l0 -5.640625q0 -0.5 0.21875 -0.796875q0.21875 -0.296875 0.578125 -0.5625q0.640625 -0.4375 1.578125 -0.71875q0.953125 -0.28125 1.96875 -0.28125zm15.314453 7.328125q0.328125 0 0.703125 -0.0625q0.390625 -0.0625 0.578125 -0.171875l0 -1.5l-1.34375 0.109375q-0.53125 0.046875 -0.875 0.234375q-0.328125 0.171875 -0.328125 0.546875q0 0.375 0.28125 0.609375q0.296875 0.234375 0.984375 0.234375zm-0.140625 -7.328125q1.0 0 1.828125 0.203125q0.84375 0.203125 1.421875 0.625q0.59375 0.421875 0.90625 1.0625q0.3125 0.640625 0.3125 1.515625l0 4.1875q0 0.484375 -0.265625 0.796875q-0.265625 0.296875 -0.640625 0.53125q-1.21875 0.71875 -3.421875 0.71875q-0.984375 0 -1.78125 -0.1875q-0.78125 -0.1875 -1.359375 -0.5625q-0.5625 -0.375 -0.875 -0.953125q-0.3125 -0.578125 -0.3125 -1.34375q0 -1.28125 0.765625 -1.96875q0.765625 -0.6875 2.375 -0.859375l2.4375 -0.265625l0 -0.125q0 -0.546875 -0.46875 -0.78125q-0.46875 -0.234375 -1.375 -0.234375q-0.703125 0 -1.375 0.15625q-0.671875 0.15625 -1.21875 0.375q-0.234375 -0.171875 -0.40625 -0.515625q-0.171875 -0.34375 -0.171875 -0.71875q0 -0.484375 0.234375 -0.765625q0.234375 -0.296875 0.71875 -0.5q0.546875 -0.203125 1.28125 -0.296875q0.734375 -0.09375 1.390625 -0.09375zm12.164612 3.59375q0 -0.578125 -0.328125 -0.84375q-0.328125 -0.265625 -0.890625 -0.265625q-0.375 0 -0.734375 0.09375q-0.359375 0.09375 -0.625 0.265625l0 6.484375q-0.1875 0.046875 -0.59375 0.109375q-0.390625 0.0625 -0.828125 0.0625q-0.40625 0 -0.734375 -0.0625q-0.328125 -0.0625 -0.546875 -0.21875q-0.21875 -0.171875 -0.34375 -0.453125q-0.125 -0.296875 -0.125 -0.765625l0 -5.59375q0 -0.5 0.21875 -0.8125q0.21875 -0.328125 0.578125 -0.59375q0.640625 -0.4375 1.59375 -0.71875q0.96875 -0.28125 2.140625 -0.28125q2.109375 0 3.25 0.921875q1.140625 0.921875 1.140625 2.5625l0 5.84375q-0.1875 0.046875 -0.59375 0.109375q-0.390625 0.0625 -0.828125 0.0625q-0.40625 0 -0.734375 -0.0625q-0.328125 -0.0625 -0.5625 -0.21875q-0.21875 -0.171875 -0.34375 -0.453125q-0.109375 -0.296875 -0.109375 -0.765625l0 -4.40625zm9.001617 3.734375q0.328125 0 0.703125 -0.0625q0.390625 -0.0625 0.578125 -0.171875l0 -1.5l-1.34375 0.109375q-0.53125 0.046875 -0.875 0.234375q-0.328125 0.171875 -0.328125 0.546875q0 0.375 0.28125 0.609375q0.296875 0.234375 0.984375 0.234375zm-0.140625 -7.328125q1.0 0 1.828125 0.203125q0.84375 0.203125 1.421875 0.625q0.59375 0.421875 0.90625 1.0625q0.3125 0.640625 0.3125 1.515625l0 4.1875q0 0.484375 -0.265625 0.796875q-0.265625 0.296875 -0.640625 0.53125q-1.21875 0.71875 -3.421875 0.71875q-0.984375 0 -1.78125 -0.1875q-0.78125 -0.1875 -1.359375 -0.5625q-0.5625 -0.375 -0.875 -0.953125q-0.3125 -0.578125 -0.3125 -1.34375q0 -1.28125 0.765625 -1.96875q0.765625 -0.6875 2.375 -0.859375l2.4375 -0.265625l0 -0.125q0 -0.546875 -0.46875 -0.78125q-0.46875 -0.234375 -1.375 -0.234375q-0.703125 0 -1.375 0.15625q-0.671875 0.15625 -1.21875 0.375q-0.234375 -0.171875 -0.40625 -0.515625q-0.171875 -0.34375 -0.171875 -0.71875q0 -0.484375 0.234375 -0.765625q0.234375 -0.296875 0.71875 -0.5q0.546875 -0.203125 1.28125 -0.296875q0.734375 -0.09375 1.390625 -0.09375zm10.836487 0q1.0625 0 1.921875 0.265625q0.875 0.265625 1.46875 0.703125q0.375 0.265625 0.59375 0.578125q0.21875 0.3125 0.21875 0.8125l0 6.53125q0 1.0 -0.375 1.71875q-0.375 0.71875 -1.015625 1.1875q-0.640625 0.46875 -1.515625 0.6875q-0.859375 0.234375 -1.859375 0.234375q-1.6875 0 -2.671875 -0.453125q-0.96875 -0.453125 -0.96875 -1.484375q0 -0.4375 0.171875 -0.765625q0.1875 -0.3125 0.40625 -0.484375q0.546875 0.296875 1.21875 0.5q0.6875 0.203125 1.421875 0.203125q1.0 0 1.59375 -0.34375q0.609375 -0.328125 0.609375 -1.0625l0 -0.3125q-0.765625 0.34375 -1.875 0.34375q-0.828125 0 -1.59375 -0.25q-0.75 -0.25 -1.328125 -0.78125q-0.5625 -0.53125 -0.90625 -1.375q-0.34375 -0.84375 -0.34375 -2.0q0 -1.140625 0.359375 -1.96875q0.359375 -0.84375 1.0 -1.390625q0.65625 -0.5625 1.53125 -0.828125q0.890625 -0.265625 1.9375 -0.265625zm1.15625 2.703125q-0.125 -0.078125 -0.390625 -0.140625q-0.25 -0.078125 -0.609375 -0.078125q-0.921875 0 -1.375 0.515625q-0.453125 0.5 -0.453125 1.453125q0 1.078125 0.453125 1.5625q0.453125 0.46875 1.15625 0.46875q0.765625 0 1.21875 -0.34375l0 -3.4375zm9.7968445 6.9375q-1.09375 0 -2.046875 -0.296875q-0.9375 -0.3125 -1.640625 -0.921875q-0.703125 -0.625 -1.109375 -1.5625q-0.390625 -0.9375 -0.390625 -2.1875q0 -1.21875 0.390625 -2.109375q0.40625 -0.890625 1.0625 -1.453125q0.65625 -0.578125 1.484375 -0.84375q0.84375 -0.265625 1.734375 -0.265625q0.984375 0 1.796875 0.296875q0.8125 0.296875 1.390625 0.828125q0.59375 0.515625 0.921875 1.25q0.328125 0.71875 0.328125 1.578125q0 0.640625 -0.359375 0.984375q-0.359375 0.328125 -0.984375 0.40625l-4.609375 0.703125q0.203125 0.609375 0.828125 0.921875q0.640625 0.296875 1.46875 0.296875q0.765625 0 1.4375 -0.1875q0.6875 -0.203125 1.109375 -0.453125q0.296875 0.1875 0.5 0.53125q0.21875 0.328125 0.21875 0.6875q0 0.84375 -0.796875 1.25q-0.59375 0.328125 -1.34375 0.4375q-0.734375 0.109375 -1.390625 0.109375zm-0.515625 -7.328125q-0.453125 0 -0.78125 0.15625q-0.328125 0.140625 -0.53125 0.375q-0.203125 0.234375 -0.3125 0.53125q-0.09375 0.28125 -0.125 0.578125l3.203125 -0.515625q-0.0625 -0.375 -0.421875 -0.75q-0.34375 -0.375 -1.03125 -0.375zm10.304779 -2.3125q0.765625 0 1.5 0.21875q0.75 0.203125 1.28125 0.640625q0.5625 -0.375 1.265625 -0.609375q0.703125 -0.25 1.6875 -0.25q0.703125 0 1.375 0.1875q0.6875 0.1875 1.21875 0.59375q0.53125 0.390625 0.84375 1.0625q0.328125 0.65625 0.328125 1.609375l0 5.875q-0.1875 0.046875 -0.59375 0.109375q-0.390625 0.0625 -0.828125 0.0625q-0.40625 0 -0.734375 -0.0625q-0.328125 -0.0625 -0.546875 -0.21875q-0.21875 -0.171875 -0.34375 -0.453125q-0.125 -0.296875 -0.125 -0.765625l0 -4.453125q0 -0.5625 -0.328125 -0.8125q-0.3125 -0.25 -0.84375 -0.25q-0.265625 0 -0.5625 0.125q-0.296875 0.109375 -0.453125 0.234375q0.03125 0.078125 0.03125 0.15625q0 0.0625 0 0.109375l0 6.21875q-0.21875 0.046875 -0.625 0.109375q-0.390625 0.0625 -0.796875 0.0625q-0.40625 0 -0.734375 -0.0625q-0.328125 -0.0625 -0.5625 -0.21875q-0.21875 -0.171875 -0.34375 -0.453125q-0.109375 -0.296875 -0.109375 -0.765625l0 -4.453125q0 -0.5625 -0.359375 -0.8125q-0.34375 -0.25 -0.828125 -0.25q-0.328125 0 -0.578125 0.109375q-0.234375 0.09375 -0.40625 0.1875l0 6.546875q-0.1875 0.046875 -0.59375 0.109375q-0.390625 0.0625 -0.828125 0.0625q-0.40625 0 -0.734375 -0.0625q-0.328125 -0.0625 -0.546875 -0.21875q-0.21875 -0.171875 -0.34375 -0.453125q-0.125 -0.296875 -0.125 -0.765625l0 -5.640625q0 -0.5 0.21875 -0.796875q0.21875 -0.296875 0.578125 -0.5625q0.640625 -0.4375 1.578125 -0.71875q0.953125 -0.28125 1.96875 -0.28125zm16.236328 9.640625q-1.09375 0 -2.046875 -0.296875q-0.9375 -0.3125 -1.640625 -0.921875q-0.703125 -0.625 -1.109375 -1.5625q-0.390625 -0.9375 -0.390625 -2.1875q0 -1.21875 0.390625 -2.109375q0.40625 -0.890625 1.0625 -1.453125q0.65625 -0.578125 1.484375 -0.84375q0.84375 -0.265625 1.734375 -0.265625q0.984375 0 1.796875 0.296875q0.8125 0.296875 1.390625 0.828125q0.59375 0.515625 0.921875 1.25q0.328125 0.71875 0.328125 1.578125q0 0.640625 -0.359375 0.984375q-0.359375 0.328125 -0.984375 0.40625l-4.609375 0.703125q0.203125 0.609375 0.828125 0.921875q0.640625 0.296875 1.46875 0.296875q0.765625 0 1.4375 -0.1875q0.6875 -0.203125 1.109375 -0.453125q0.296875 0.1875 0.5 0.53125q0.21875 0.328125 0.21875 0.6875q0 0.84375 -0.796875 1.25q-0.59375 0.328125 -1.34375 0.4375q-0.734375 0.109375 -1.390625 0.109375zm-0.515625 -7.328125q-0.453125 0 -0.78125 0.15625q-0.328125 0.140625 -0.53125 0.375q-0.203125 0.234375 -0.3125 0.53125q-0.09375 0.28125 -0.125 0.578125l3.203125 -0.515625q-0.0625 -0.375 -0.421875 -0.75q-0.34375 -0.375 -1.03125 -0.375zm11.710999 1.28125q0 -0.578125 -0.328125 -0.84375q-0.328125 -0.265625 -0.890625 -0.265625q-0.375 0 -0.734375 0.09375q-0.359375 0.09375 -0.625 0.265625l0 6.484375q-0.1875 0.046875 -0.5937195 0.109375q-0.390625 0.0625 -0.828125 0.0625q-0.40625 0 -0.734375 -0.0625q-0.328125 -0.0625 -0.546875 -0.21875q-0.21875 -0.171875 -0.34375 -0.453125q-0.125 -0.296875 -0.125 -0.765625l0 -5.59375q0 -0.5 0.21875 -0.8125q0.21875 -0.328125 0.578125 -0.59375q0.640625 -0.4375 1.59375 -0.71875q0.9687195 -0.28125 2.1405945 -0.28125q2.109375 0 3.25 0.921875q1.140625 0.921875 1.140625 2.5625l0 5.84375q-0.1875 0.046875 -0.59375 0.109375q-0.390625 0.0625 -0.828125 0.0625q-0.40625 0 -0.734375 -0.0625q-0.328125 -0.0625 -0.5625 -0.21875q-0.21875 -0.171875 -0.34375 -0.453125q-0.109375 -0.296875 -0.109375 -0.765625l0 -4.40625zm8.298492 2.640625q0 0.484375 0.296875 0.6875q0.3125 0.203125 0.875 0.203125q0.28125 0 0.578125 -0.046875q0.296875 -0.046875 0.53125 -0.125q0.15625 0.203125 0.28125 0.46875q0.125 0.25 0.125 0.59375q0 0.71875 -0.53125 1.171875q-0.53125 0.4375 -1.875 0.4375q-1.640625 0 -2.53125 -0.75q-0.890625 -0.75 -0.890625 -2.421875l0 -7.984375q0.21875 -0.0625 0.59375 -0.125q0.390625 -0.0625 0.8125 -0.0625q0.828125 0 1.28125 0.296875q0.453125 0.28125 0.453125 1.21875l0 1.1875l2.4375 0q0.125 0.203125 0.21875 0.515625q0.109375 0.3125 0.109375 0.6875q0 0.640625 -0.296875 0.9375q-0.28125 0.28125 -0.765625 0.28125l-1.703125 0l0 2.828125z" fill-rule="nonzero"/><path fill="#000000" fill-opacity="0.0" d="m337.34656 367.1496l0 -120.832214l-0.12600708 0l0 -120.83707" fill-rule="evenodd"/><path stroke="#595959" stroke-width="1.0" stroke-linejoin="round" stroke-linecap="butt" d="m337.34653 363.72253l0 -117.40515l-0.12597656 0l0 -117.40999" fill-rule="evenodd"/><path fill="#595959" stroke="#595959" stroke-width="1.0" stroke-linecap="butt" d="m337.34653 363.72253l-1.1245728 -1.1246033l1.1245728 3.0897827l1.1246033 -3.0897827z" fill-rule="evenodd"/><path fill="#595959" stroke="#595959" stroke-width="1.0" stroke-linecap="butt" d="m337.22055 128.9074l1.1245728 1.124588l-1.1245728 -3.0897675l-1.1245728 3.0897675z" fill-rule="evenodd"/><path fill="#000000" fill-opacity="0.0" d="m586.874 386.37796l-15.322815 0l0 24.0l-15.322876 0" fill-rule="evenodd"/><path stroke="#595959" stroke-width="1.0" stroke-linejoin="round" stroke-linecap="butt" d="m583.44696 386.37796l-11.895752 0l0 24.0l-11.895752 0" fill-rule="evenodd"/><path fill="#595959" stroke="#595959" stroke-width="1.0" stroke-linecap="butt" d="m583.4469 386.37796l-1.1245728 1.1245728l3.0897827 -1.1245728l-3.0897827 -1.1246033z" fill-rule="evenodd"/><path fill="#595959" stroke="#595959" stroke-width="1.0" stroke-linecap="butt" d="m559.65546 410.37796l1.1245728 -1.1246033l-3.0897827 1.1246033l3.0897827 1.1245728z" fill-rule="evenodd"/><path fill="#000000" fill-opacity="0.0" d="m450.55643 290.063l0 75.24411" fill-rule="evenodd"/><path stroke="#595959" stroke-width="1.0" stroke-linejoin="round" stroke-linecap="butt" d="m450.55643 293.49008l0 68.38992" fill-rule="evenodd"/><path fill="#595959" stroke="#595959" stroke-width="1.0" stroke-linecap="butt" d="m450.55643 293.49008l1.1245728 1.1245728l-1.1245728 -3.0897522l-1.1245728 3.0897522z" fill-rule="evenodd"/><path fill="#595959" stroke="#595959" stroke-width="1.0" stroke-linecap="butt" d="m450.55643 361.88l-1.1245728 -1.1246033l1.1245728 3.0897827l1.1245728 -3.0897827z" fill-rule="evenodd"/><path fill="#eeeeee" d="m360.28085 505.38583l0 0c0 -13.385315 10.850922 -24.236237 24.236206 -24.236237c13.385284 0 24.236237 10.850922 24.236237 24.236237c0 13.385284 -10.850952 24.236237 -24.236237 24.236237c-13.385284 0 -24.236206 -10.850952 -24.236206 -24.236237z" fill-rule="evenodd"/><path fill="#bebebe" d="m374.22787 498.1374c0 -1.3942871 1.13031 -2.5245972 2.5246277 -2.5245972c1.3942871 0 2.5245972 1.13031 2.5245972 2.5245972c0 1.3943176 -1.13031 2.5246277 -2.5245972 2.5246277c-1.3943176 0 -2.5246277 -1.13031 -2.5246277 -2.5246277m15.529144 0c0 -1.3942871 1.13031 -2.5245972 2.5245972 -2.5245972c1.3943176 0 2.5246277 1.13031 2.5246277 2.5245972c0 1.3943176 -1.13031 2.5246277 -2.5246277 2.5246277c-1.3942871 0 -2.5245972 -1.13031 -2.5245972 -2.5246277" fill-rule="evenodd"/><path fill="#000000" fill-opacity="0.0" d="m371.38086 515.9554q13.1362 9.0217285 26.2417 0" fill-rule="evenodd"/><path fill="#000000" fill-opacity="0.0" d="m360.28085 505.38583l0 0c0 -13.385315 10.850922 -24.236237 24.236206 -24.236237c13.385284 0 24.236237 10.850922 24.236237 24.236237c0 13.385284 -10.850952 24.236237 -24.236237 24.236237c-13.385284 0 -24.236206 -10.850952 -24.236206 -24.236237z" fill-rule="evenodd"/><path stroke="#595959" stroke-width="1.0" stroke-linejoin="round" stroke-linecap="butt" d="m374.22787 498.1374c0 -1.3942871 1.13031 -2.5245972 2.5246277 -2.5245972c1.3942871 0 2.5245972 1.13031 2.5245972 2.5245972c0 1.3943176 -1.13031 2.5246277 -2.5245972 2.5246277c-1.3943176 0 -2.5246277 -1.13031 -2.5246277 -2.5246277m15.529144 0c0 -1.3942871 1.13031 -2.5245972 2.5245972 -2.5245972c1.3943176 0 2.5246277 1.13031 2.5246277 2.5245972c0 1.3943176 -1.13031 2.5246277 -2.5246277 2.5246277c-1.3942871 0 -2.5245972 -1.13031 -2.5245972 -2.5246277" fill-rule="evenodd"/><path stroke="#595959" stroke-width="1.0" stroke-linejoin="round" stroke-linecap="butt" d="m371.38086 515.9554q13.1362 9.0217285 26.2417 0" fill-rule="evenodd"/><path stroke="#595959" stroke-width="1.0" stroke-linejoin="round" stroke-linecap="butt" d="m360.28085 505.38583l0 0c0 -13.385315 10.850922 -24.236237 24.236206 -24.236237c13.385284 0 24.236237 10.850922 24.236237 24.236237c0 13.385284 -10.850952 24.236237 -24.236237 24.236237c-13.385284 0 -24.236206 -10.850952 -24.236206 -24.236237z" fill-rule="evenodd"/><path fill="#000000" fill-opacity="0.0" d="m408.7533 505.38583l231.55902 0l0 -70.80316" fill-rule="evenodd"/><path stroke="#595959" stroke-width="1.0" stroke-linejoin="round" stroke-linecap="butt" d="m412.54327 505.38583l227.76904 0l0 -67.37607" fill-rule="evenodd"/><path fill="#595959" stroke="#595959" stroke-width="1.0" stroke-linecap="butt" d="m409.2533 505.38583c0 -0.9085083 0.7364807 -1.6450195 1.644989 -1.6450195c0.9085083 0 1.644989 0.73651123 1.644989 1.6450195c0 0.9085083 -0.7364807 1.644989 -1.644989 1.644989c-0.9085083 0 -1.644989 -0.7364807 -1.644989 -1.644989z" fill-rule="nonzero"/><path fill="#595959" stroke="#595959" stroke-width="1.0" stroke-linecap="butt" d="m640.3123 438.00977l1.1245728 1.1245728l-1.1245728 -3.0897522l-1.1245728 3.0897522z" fill-rule="evenodd"/><path fill="#000000" fill-opacity="0.0" d="m309.28873 492.29922l59.055115 0l0 38.771637l-59.055115 0z" fill-rule="evenodd"/><path fill="#000000" d="m334.43738 506.0811l-3.671875 6.0000305l0.109375 4.421875l-4.015625 0l0.09375 -4.390625l-2.859375 -5.7969055l3.984375 -0.5l1.25 3.375l1.359375 -3.375l3.75 0.265625zm8.8671875 4.59375q0 0.703125 -0.171875 1.3750305q-0.15625 0.65625 -0.46875 1.234375q-0.3125 0.578125 -0.75 1.0625q-0.4375 0.46875 -1.0 0.8125q-0.546875 0.34375 -1.203125 0.546875q-0.640625 0.1875 -1.359375 0.1875q-0.703125 0 -1.34375 -0.171875q-0.640625 -0.1875 -1.203125 -0.515625q-0.546875 -0.328125 -1.0 -0.78125q-0.4375 -0.453125 -0.765625 -1.015625q-0.3125 -0.5625 -0.484375 -1.203125q-0.171875 -0.6406555 -0.171875 -1.3281555q0 -0.6875 0.15625 -1.328125q0.171875 -0.65625 0.46875 -1.234375q0.3125 -0.578125 0.75 -1.0625q0.4375 -0.484375 0.984375 -0.828125q0.546875 -0.359375 1.171875 -0.546875q0.640625 -0.203125 1.34375 -0.203125q1.125 0 2.0625 0.359375q0.9375 0.34375 1.59375 1.0q0.65625 0.640625 1.015625 1.578125q0.375 0.921875 0.375 2.0625zm-3.46875 0.203125q0 -0.34375 -0.109375 -0.65625q-0.09375 -0.3125 -0.28125 -0.5625q-0.1875 -0.25 -0.46875 -0.390625q-0.265625 -0.15625 -0.625 -0.15625q-0.375 0 -0.671875 0.140625q-0.28125 0.125 -0.484375 0.359375q-0.203125 0.21875 -0.3125 0.53125q-0.109375 0.3125 -0.109375 0.65625q0 0.328125 0.09375 0.65625q0.09375 0.328125 0.28125 0.5937805q0.1875 0.265625 0.453125 0.4375q0.28125 0.15625 0.65625 0.15625q0.359375 0 0.65625 -0.140625q0.296875 -0.15625 0.5 -0.390625q0.203125 -0.25003052 0.3125 -0.5625305q0.109375 -0.328125 0.109375 -0.671875zm13.328125 -5.21875q-0.359375 2.75 -0.609375 5.46875q-0.25 2.7187805 -0.46875 5.4844055l-3.203125 0.234375l0.140625 -1.203125q-0.15625 0.171875 -0.375 0.3125q-0.203125 0.125 -0.4375 0.21875q-0.234375 0.078125 -0.484375 0.109375q-0.25 0.03125 -0.46875 0.03125q-0.53125 -0.015625 -1.0 -0.203125q-0.46875 -0.203125 -0.859375 -0.53125q-0.390625 -0.34375 -0.703125 -0.78125q-0.3125 -0.4375 -0.53125 -0.921875q-0.21875 -0.5 -0.328125 -1.0q-0.109375 -0.515625 -0.109375 -0.9844055q0 -0.703125 0.015625 -1.453125q0.03125 -0.765625 0.09375 -1.515625q0.078125 -0.765625 0.1875 -1.5q0.125 -0.75 0.296875 -1.421875q0.953125 0.046875 1.90625 0.09375q0.96875 0.03125 1.921875 0.015625q-0.1875 0.671875 -0.359375 1.359375q-0.171875 0.6875 -0.3125 1.375q-0.140625 0.6875 -0.234375 1.390625q-0.078125 0.6875 -0.078125 1.40625q0 0.15625 0.015625 0.46878052q0.015625 0.296875 0.078125 0.59375q0.0625 0.296875 0.203125 0.53125q0.140625 0.21875 0.390625 0.21875q0.296875 0 0.53125 -0.25q0.234375 -0.265625 0.40625 -0.6875q0.1875 -0.4375 0.3125 -1.0000305q0.125 -0.5625 0.21875 -1.171875q0.09375 -0.609375 0.140625 -1.234375q0.0625 -0.625 0.078125 -1.171875q0.03125 -0.5625 0.046875 -1.0q0.015625 -0.4375 0.015625 -0.671875q0 -0.15625 -0.015625 -0.296875q0 -0.15625 -0.015625 -0.3125q0.5 0.015625 1.0 0.03125q0.5 0 1.015625 0q0.390625 0 0.78125 0q0.390625 -0.015625 0.796875 -0.03125z" fill-rule="nonzero"/><path fill="#000000" fill-opacity="0.0" d="m210.55643 290.063l0 75.24411" fill-rule="evenodd"/><path stroke="#595959" stroke-width="1.0" stroke-linejoin="round" stroke-linecap="butt" d="m210.55643 293.49008l0 68.38992" fill-rule="evenodd"/><path fill="#595959" stroke="#595959" stroke-width="1.0" stroke-linecap="butt" d="m210.55643 293.49008l1.124588 1.1245728l-1.124588 -3.0897522l-1.1245728 3.0897522z" fill-rule="evenodd"/><path fill="#595959" stroke="#595959" stroke-width="1.0" stroke-linecap="butt" d="m210.55643 361.88l-1.1245728 -1.1246033l1.1245728 3.0897827l1.124588 -3.0897827z" fill-rule="evenodd"/></g></svg>