<svg version="1.1" viewBox="0.0 0.0 960.0 540.0" fill="none" stroke="none" stroke-linecap="square" stroke-miterlimit="10" xmlns:xlink="http://www.w3.org/1999/xlink" xmlns="http://www.w3.org/2000/svg"><clipPath id="p.0"><path d="m0 0l960.0 0l0 540.0l-960.0 0l0 -540.0z" clip-rule="nonzero"/></clipPath><g clip-path="url(#p.0)"><path fill="#ffffff" d="m0 0l960.0 0l0 540.0l-960.0 0z" fill-rule="evenodd"/><path fill="#b7b7b7" d="m298.0525 448.60663l99.007965 0l0 22.000092l-99.007965 0z" fill-rule="evenodd"/><path fill="#929292" d="m397.06046 448.60663l15.999908 -15.999908l0 22.000092l-15.999908 15.999908z" fill-rule="evenodd"/><path fill="#c5c5c5" d="m298.0525 448.60663l15.999908 -15.999908l99.007965 0l-15.999908 15.999908z" fill-rule="evenodd"/><path fill="#000000" fill-opacity="0.0" d="m298.0525 448.60663l15.999908 -15.999908l99.007965 0l0 22.000092l-15.999908 15.999908l-99.007965 0zm0 0l99.007965 0l15.999908 -15.999908m-15.999908 15.999908l0 22.000092" fill-rule="evenodd"/><path stroke="#000000" stroke-width="1.0" stroke-linejoin="round" stroke-linecap="butt" d="m298.0525 448.60663l15.999908 -15.999908l99.007965 0l0 22.000092l-15.999908 15.999908l-99.007965 0zm0 0l99.007965 0l15.999908 -15.999908m-15.999908 15.999908l0 22.000092" fill-rule="evenodd"/><path fill="#b7b7b7" d="m318.5525 400.10608l66.50067 0l0 43.996704l-66.50067 0z" fill-rule="evenodd"/><path fill="#929292" d="m385.05316 400.10608l11.499329 -11.499359l0 43.996735l-11.499329 11.499329z" fill-rule="evenodd"/><path fill="#c5c5c5" d="m318.5525 400.10608l11.499329 -11.499359l66.50067 0l-11.499329 11.499359z" fill-rule="evenodd"/><path fill="#000000" fill-opacity="0.0" d="m318.5525 400.10608l11.499329 -11.499359l66.50067 0l0 43.996735l-11.499329 11.499329l-66.50067 0zm0 0l66.50067 0l11.499329 -11.499359m-11.499329 11.499359l0 43.996704" fill-rule="evenodd"/><path stroke="#000000" stroke-width="1.0" stroke-linejoin="round" stroke-linecap="butt" d="m318.5525 400.10608l11.499329 -11.499359l66.50067 0l0 43.996735l-11.499329 11.499329l-66.50067 0zm0 0l66.50067 0l11.499329 -11.499359m-11.499329 11.499359l0 43.996704" fill-rule="evenodd"/><path fill="#cfe2f3" d="m325.5525 411.10553l0 0c0 -3.0368958 2.4618835 -5.49881 5.49881 -5.49881l41.506348 0c1.4583435 0 2.8569946 0.5793457 3.888214 1.6105652c1.0312195 1.0312195 1.6105652 2.4298706 1.6105652 3.8882446l0 21.994537c0 3.0368958 -2.4618835 5.4987793 -5.4987793 5.4987793l-41.506348 0c-3.0369263 0 -5.49881 -2.4618835 -5.49881 -5.4987793z" fill-rule="evenodd"/><path stroke="#000000" stroke-width="1.0" stroke-linejoin="round" stroke-linecap="butt" d="m325.5525 411.10553l0 0c0 -3.0368958 2.4618835 -5.49881 5.49881 -5.49881l41.506348 0c1.4583435 0 2.8569946 0.5793457 3.888214 1.6105652c1.0312195 1.0312195 1.6105652 2.4298706 1.6105652 3.8882446l0 21.994537c0 3.0368958 -2.4618835 5.4987793 -5.4987793 5.4987793l-41.506348 0c-3.0369263 0 -5.49881 -2.4618835 -5.49881 -5.4987793z" fill-rule="evenodd"/><path fill="#cccccc" d="m298.0656 475.83942l80.96063 0l0 2.5039368l-80.96063 0z" fill-rule="evenodd"/><path stroke="#000000" stroke-width="1.0" stroke-linejoin="round" stroke-linecap="butt" d="m298.0656 475.83942l80.96063 0l0 2.5039368l-80.96063 0z" fill-rule="evenodd"/><path fill="#999999" d="m298.0525 475.86435l9.650818 -12.472443l80.85312 0l-9.650787 12.472443z" fill-rule="evenodd"/><path stroke="#000000" stroke-width="1.0" stroke-linejoin="round" stroke-linecap="butt" d="m298.0525 475.86435l9.650818 -12.472443l80.85312 0l-9.650787 12.472443z" fill-rule="evenodd"/><path fill="#cccccc" d="m379.09317 478.3473l0 -2.545929l9.503937 -12.3897705l0 6.901581z" fill-rule="evenodd"/><path stroke="#000000" stroke-width="1.0" stroke-linejoin="round" stroke-linecap="butt" d="m379.09317 478.3473l0 -2.545929l9.503937 -12.3897705l0 6.901581z" fill-rule="evenodd"/><path fill="#b7b7b7" d="m290.0525 448.60663l99.007965 0l0 22.000092l-99.007965 0z" fill-rule="evenodd"/><path fill="#929292" d="m389.06046 448.60663l15.999908 -15.999908l0 22.000092l-15.999908 15.999908z" fill-rule="evenodd"/><path fill="#c5c5c5" d="m290.0525 448.60663l15.999908 -15.999908l99.007965 0l-15.999908 15.999908z" fill-rule="evenodd"/><path fill="#000000" fill-opacity="0.0" d="m290.0525 448.60663l15.999908 -15.999908l99.007965 0l0 22.000092l-15.999908 15.999908l-99.007965 0zm0 0l99.007965 0l15.999908 -15.999908m-15.999908 15.999908l0 22.000092" fill-rule="evenodd"/><path stroke="#000000" stroke-width="1.0" stroke-linejoin="round" stroke-linecap="butt" d="m290.0525 448.60663l15.999908 -15.999908l99.007965 0l0 22.000092l-15.999908 15.999908l-99.007965 0zm0 0l99.007965 0l15.999908 -15.999908m-15.999908 15.999908l0 22.000092" fill-rule="evenodd"/><path fill="#b7b7b7" d="m310.5525 400.10608l66.50067 0l0 43.996704l-66.50067 0z" fill-rule="evenodd"/><path fill="#929292" d="m377.05316 400.10608l11.499329 -11.499359l0 43.996735l-11.499329 11.499329z" fill-rule="evenodd"/><path fill="#c5c5c5" d="m310.5525 400.10608l11.499329 -11.499359l66.50067 0l-11.499329 11.499359z" fill-rule="evenodd"/><path fill="#000000" fill-opacity="0.0" d="m310.5525 400.10608l11.499329 -11.499359l66.50067 0l0 43.996735l-11.499329 11.499329l-66.50067 0zm0 0l66.50067 0l11.499329 -11.499359m-11.499329 11.499359l0 43.996704" fill-rule="evenodd"/><path stroke="#000000" stroke-width="1.0" stroke-linejoin="round" stroke-linecap="butt" d="m310.5525 400.10608l11.499329 -11.499359l66.50067 0l0 43.996735l-11.499329 11.499329l-66.50067 0zm0 0l66.50067 0l11.499329 -11.499359m-11.499329 11.499359l0 43.996704" fill-rule="evenodd"/><path fill="#cfe2f3" d="m317.5525 411.10553l0 0c0 -3.0368958 2.4618835 -5.49881 5.49881 -5.49881l41.506348 0c1.4583435 0 2.8569946 0.5793457 3.888214 1.6105652c1.0312195 1.0312195 1.6105652 2.4298706 1.6105652 3.8882446l0 21.994537c0 3.0368958 -2.4618835 5.4987793 -5.4987793 5.4987793l-41.506348 0c-3.0369263 0 -5.49881 -2.4618835 -5.49881 -5.4987793z" fill-rule="evenodd"/><path stroke="#000000" stroke-width="1.0" stroke-linejoin="round" stroke-linecap="butt" d="m317.5525 411.10553l0 0c0 -3.0368958 2.4618835 -5.49881 5.49881 -5.49881l41.506348 0c1.4583435 0 2.8569946 0.5793457 3.888214 1.6105652c1.0312195 1.0312195 1.6105652 2.4298706 1.6105652 3.8882446l0 21.994537c0 3.0368958 -2.4618835 5.4987793 -5.4987793 5.4987793l-41.506348 0c-3.0369263 0 -5.49881 -2.4618835 -5.49881 -5.4987793z" fill-rule="evenodd"/><path fill="#cccccc" d="m290.0656 475.83942l80.96063 0l0 2.5039368l-80.96063 0z" fill-rule="evenodd"/><path stroke="#000000" stroke-width="1.0" stroke-linejoin="round" stroke-linecap="butt" d="m290.0656 475.83942l80.96063 0l0 2.5039368l-80.96063 0z" fill-rule="evenodd"/><path fill="#999999" d="m290.0525 475.86435l9.650818 -12.472443l80.85312 0l-9.650787 12.472443z" fill-rule="evenodd"/><path stroke="#000000" stroke-width="1.0" stroke-linejoin="round" stroke-linecap="butt" d="m290.0525 475.86435l9.650818 -12.472443l80.85312 0l-9.650787 12.472443z" fill-rule="evenodd"/><path fill="#cccccc" d="m371.09317 478.3473l0 -2.545929l9.503937 -12.3897705l0 6.901581z" fill-rule="evenodd"/><path stroke="#000000" stroke-width="1.0" stroke-linejoin="round" stroke-linecap="butt" d="m371.09317 478.3473l0 -2.545929l9.503937 -12.3897705l0 6.901581z" fill-rule="evenodd"/><path fill="#b7b7b7" d="m282.0525 448.60663l99.007965 0l0 22.000092l-99.007965 0z" fill-rule="evenodd"/><path fill="#929292" d="m381.06046 448.60663l15.999908 -15.999908l0 22.000092l-15.999908 15.999908z" fill-rule="evenodd"/><path fill="#c5c5c5" d="m282.0525 448.60663l15.999908 -15.999908l99.007965 0l-15.999908 15.999908z" fill-rule="evenodd"/><path fill="#000000" fill-opacity="0.0" d="m282.0525 448.60663l15.999908 -15.999908l99.007965 0l0 22.000092l-15.999908 15.999908l-99.007965 0zm0 0l99.007965 0l15.999908 -15.999908m-15.999908 15.999908l0 22.000092" fill-rule="evenodd"/><path stroke="#000000" stroke-width="1.0" stroke-linejoin="round" stroke-linecap="butt" d="m282.0525 448.60663l15.999908 -15.999908l99.007965 0l0 22.000092l-15.999908 15.999908l-99.007965 0zm0 0l99.007965 0l15.999908 -15.999908m-15.999908 15.999908l0 22.000092" fill-rule="evenodd"/><path fill="#b7b7b7" d="m302.5525 400.10608l66.50067 0l0 43.996704l-66.50067 0z" fill-rule="evenodd"/><path fill="#929292" d="m369.05316 400.10608l11.499329 -11.499359l0 43.996735l-11.499329 11.499329z" fill-rule="evenodd"/><path fill="#c5c5c5" d="m302.5525 400.10608l11.499329 -11.499359l66.50067 0l-11.499329 11.499359z" fill-rule="evenodd"/><path fill="#000000" fill-opacity="0.0" d="m302.5525 400.10608l11.499329 -11.499359l66.50067 0l0 43.996735l-11.499329 11.499329l-66.50067 0zm0 0l66.50067 0l11.499329 -11.499359m-11.499329 11.499359l0 43.996704" fill-rule="evenodd"/><path stroke="#000000" stroke-width="1.0" stroke-linejoin="round" stroke-linecap="butt" d="m302.5525 400.10608l11.499329 -11.499359l66.50067 0l0 43.996735l-11.499329 11.499329l-66.50067 0zm0 0l66.50067 0l11.499329 -11.499359m-11.499329 11.499359l0 43.996704" fill-rule="evenodd"/><path fill="#cfe2f3" d="m309.5525 411.10553l0 0c0 -3.0368958 2.4618835 -5.49881 5.49881 -5.49881l41.506348 0c1.4583435 0 2.8569946 0.5793457 3.888214 1.6105652c1.0312195 1.0312195 1.6105652 2.4298706 1.6105652 3.8882446l0 21.994537c0 3.0368958 -2.4618835 5.4987793 -5.4987793 5.4987793l-41.506348 0c-3.0369263 0 -5.49881 -2.4618835 -5.49881 -5.4987793z" fill-rule="evenodd"/><path stroke="#000000" stroke-width="1.0" stroke-linejoin="round" stroke-linecap="butt" d="m309.5525 411.10553l0 0c0 -3.0368958 2.4618835 -5.49881 5.49881 -5.49881l41.506348 0c1.4583435 0 2.8569946 0.5793457 3.888214 1.6105652c1.0312195 1.0312195 1.6105652 2.4298706 1.6105652 3.8882446l0 21.994537c0 3.0368958 -2.4618835 5.4987793 -5.4987793 5.4987793l-41.506348 0c-3.0369263 0 -5.49881 -2.4618835 -5.49881 -5.4987793z" fill-rule="evenodd"/><path fill="#cccccc" d="m282.0656 475.83942l80.96063 0l0 2.5039368l-80.96063 0z" fill-rule="evenodd"/><path stroke="#000000" stroke-width="1.0" stroke-linejoin="round" stroke-linecap="butt" d="m282.0656 475.83942l80.96063 0l0 2.5039368l-80.96063 0z" fill-rule="evenodd"/><path fill="#999999" d="m282.0525 475.86435l9.650818 -12.472443l80.85312 0l-9.650787 12.472443z" fill-rule="evenodd"/><path stroke="#000000" stroke-width="1.0" stroke-linejoin="round" stroke-linecap="butt" d="m282.0525 475.86435l9.650818 -12.472443l80.85312 0l-9.650787 12.472443z" fill-rule="evenodd"/><path fill="#cccccc" d="m363.09317 478.3473l0 -2.545929l9.503937 -12.3897705l0 6.901581z" fill-rule="evenodd"/><path stroke="#000000" stroke-width="1.0" stroke-linejoin="round" stroke-linecap="butt" d="m363.09317 478.3473l0 -2.545929l9.503937 -12.3897705l0 6.901581z" fill-rule="evenodd"/><path fill="#b7b7b7" d="m274.0525 448.60663l99.007965 0l0 22.000092l-99.007965 0z" fill-rule="evenodd"/><path fill="#929292" d="m373.06046 448.60663l15.999908 -15.999908l0 22.000092l-15.999908 15.999908z" fill-rule="evenodd"/><path fill="#c5c5c5" d="m274.0525 448.60663l15.999908 -15.999908l99.007965 0l-15.999908 15.999908z" fill-rule="evenodd"/><path fill="#000000" fill-opacity="0.0" d="m274.0525 448.60663l15.999908 -15.999908l99.007965 0l0 22.000092l-15.999908 15.999908l-99.007965 0zm0 0l99.007965 0l15.999908 -15.999908m-15.999908 15.999908l0 22.000092" fill-rule="evenodd"/><path stroke="#000000" stroke-width="1.0" stroke-linejoin="round" stroke-linecap="butt" d="m274.0525 448.60663l15.999908 -15.999908l99.007965 0l0 22.000092l-15.999908 15.999908l-99.007965 0zm0 0l99.007965 0l15.999908 -15.999908m-15.999908 15.999908l0 22.000092" fill-rule="evenodd"/><path fill="#b7b7b7" d="m294.5525 400.10608l66.50067 0l0 43.996704l-66.50067 0z" fill-rule="evenodd"/><path fill="#929292" d="m361.05316 400.10608l11.499329 -11.499359l0 43.996735l-11.499329 11.499329z" fill-rule="evenodd"/><path fill="#c5c5c5" d="m294.5525 400.10608l11.499329 -11.499359l66.50067 0l-11.499329 11.499359z" fill-rule="evenodd"/><path fill="#000000" fill-opacity="0.0" d="m294.5525 400.10608l11.499329 -11.499359l66.50067 0l0 43.996735l-11.499329 11.499329l-66.50067 0zm0 0l66.50067 0l11.499329 -11.499359m-11.499329 11.499359l0 43.996704" fill-rule="evenodd"/><path stroke="#000000" stroke-width="1.0" stroke-linejoin="round" stroke-linecap="butt" d="m294.5525 400.10608l11.499329 -11.499359l66.50067 0l0 43.996735l-11.499329 11.499329l-66.50067 0zm0 0l66.50067 0l11.499329 -11.499359m-11.499329 11.499359l0 43.996704" fill-rule="evenodd"/><path fill="#cfe2f3" d="m301.5525 411.10553l0 0c0 -3.0368958 2.4618835 -5.49881 5.49881 -5.49881l41.506348 0c1.4583435 0 2.8569946 0.5793457 3.888214 1.6105652c1.0312195 1.0312195 1.6105652 2.4298706 1.6105652 3.8882446l0 21.994537c0 3.0368958 -2.4618835 5.4987793 -5.4987793 5.4987793l-41.506348 0c-3.0369263 0 -5.49881 -2.4618835 -5.49881 -5.4987793z" fill-rule="evenodd"/><path stroke="#000000" stroke-width="1.0" stroke-linejoin="round" stroke-linecap="butt" d="m301.5525 411.10553l0 0c0 -3.0368958 2.4618835 -5.49881 5.49881 -5.49881l41.506348 0c1.4583435 0 2.8569946 0.5793457 3.888214 1.6105652c1.0312195 1.0312195 1.6105652 2.4298706 1.6105652 3.8882446l0 21.994537c0 3.0368958 -2.4618835 5.4987793 -5.4987793 5.4987793l-41.506348 0c-3.0369263 0 -5.49881 -2.4618835 -5.49881 -5.4987793z" fill-rule="evenodd"/><path fill="#cccccc" d="m274.0656 475.83942l80.96063 0l0 2.5039368l-80.96063 0z" fill-rule="evenodd"/><path stroke="#000000" stroke-width="1.0" stroke-linejoin="round" stroke-linecap="butt" d="m274.0656 475.83942l80.96063 0l0 2.5039368l-80.96063 0z" fill-rule="evenodd"/><path fill="#999999" d="m274.0525 475.86435l9.650818 -12.472443l80.85312 0l-9.650787 12.472443z" fill-rule="evenodd"/><path stroke="#000000" stroke-width="1.0" stroke-linejoin="round" stroke-linecap="butt" d="m274.0525 475.86435l9.650818 -12.472443l80.85312 0l-9.650787 12.472443z" fill-rule="evenodd"/><path fill="#cccccc" d="m355.09317 478.3473l0 -2.545929l9.503937 -12.3897705l0 6.901581z" fill-rule="evenodd"/><path stroke="#000000" stroke-width="1.0" stroke-linejoin="round" stroke-linecap="butt" d="m355.09317 478.3473l0 -2.545929l9.503937 -12.3897705l0 6.901581z" fill-rule="evenodd"/><path fill="#0096d5" d="m294.14697 303.9908l0 0c0 13.274414 27.493958 24.03543 61.409454 24.03543c33.915497 0 61.409454 -10.761017 61.409454 -24.03543l0 48.07086c0 13.274414 -27.493958 24.03543 -61.409454 24.03543c-33.915497 0 -61.409454 -10.761017 -61.409454 -24.03543z" fill-rule="evenodd"/><path fill="#66c0e5" d="m294.14697 303.9908l0 0c0 -13.274414 27.493958 -24.03543 61.409454 -24.03543c33.915497 0 61.409454 10.761017 61.409454 24.03543l0 0c0 13.274414 -27.493958 24.03543 -61.409454 24.03543c-33.915497 0 -61.409454 -10.761017 -61.409454 -24.03543z" fill-rule="evenodd"/><path fill="#000000" fill-opacity="0.0" d="m416.96588 303.9908l0 0c0 13.274414 -27.493958 24.03543 -61.409454 24.03543c-33.915497 0 -61.409454 -10.761017 -61.409454 -24.03543l0 0c0 -13.274414 27.493958 -24.03543 61.409454 -24.03543c33.915497 0 61.409454 10.761017 61.409454 24.03543l0 48.07086c0 13.274414 -27.493958 24.03543 -61.409454 24.03543c-33.915497 0 -61.409454 -10.761017 -61.409454 -24.03543l0 -48.07086" fill-rule="evenodd"/><path stroke="#ffffff" stroke-width="2.0" stroke-linejoin="round" stroke-linecap="butt" d="m416.96588 303.9908l0 0c0 13.274414 -27.493958 24.03543 -61.409454 24.03543c-33.915497 0 -61.409454 -10.761017 -61.409454 -24.03543l0 0c0 -13.274414 27.493958 -24.03543 61.409454 -24.03543c33.915497 0 61.409454 10.761017 61.409454 24.03543l0 48.07086c0 13.274414 -27.493958 24.03543 -61.409454 24.03543c-33.915497 0 -61.409454 -10.761017 -61.409454 -24.03543l0 -48.07086" fill-rule="evenodd"/><path fill="#ffffff" d="m308.59317 291.44882l29.666687 5.2808228l2.7965698 -3.1062927l6.0577393 8.543304l-20.192902 4.969818l3.572174 -3.7270203l-29.821533 -5.2808533z" fill-rule="evenodd"/><path stroke="#ffffff" stroke-width="1.0" stroke-linejoin="round" stroke-linecap="butt" d="m308.59317 291.44882l29.666687 5.2808228l2.7965698 -3.1062927l6.0577393 8.543304l-20.192902 4.969818l3.572174 -3.7270203l-29.821533 -5.2808533z" fill-rule="evenodd"/><path fill="#ffffff" d="m346.33728 307.29266l10.251953 1.7086487l-10.872711 9.9409485l5.5918884 1.0866089l-19.72705 4.3490906l0 -10.095795l5.1259766 1.7086487z" fill-rule="evenodd"/><path stroke="#ffffff" stroke-width="1.0" stroke-linejoin="round" stroke-linecap="butt" d="m346.33728 307.29266l10.251953 1.7086487l-10.872711 9.9409485l5.5918884 1.0866089l-19.72705 4.3490906l0 -10.095795l5.1259766 1.7086487z" fill-rule="evenodd"/><path fill="#ffffff" d="m355.5013 299.06036l9.009186 1.397644l9.9409485 -8.387146l5.591858 2.17453l-0.31103516 -10.717834l-21.745392 6.5236206l7.4553833 0.7769165z" fill-rule="evenodd"/><path stroke="#ffffff" stroke-width="1.0" stroke-linejoin="round" stroke-linecap="butt" d="m355.5013 299.06036l9.009186 1.397644l9.9409485 -8.387146l5.591858 2.17453l-0.31103516 -10.717834l-21.745392 6.5236206l7.4553833 0.7769165z" fill-rule="evenodd"/><path fill="#ffffff" d="m381.1299 304.18634l28.580048 4.969818l-7.6102295 6.3687744l-29.045929 -5.902893l-3.8832092 4.3490906l-4.0393677 -9.164032l19.106293 -4.1942444z" fill-rule="evenodd"/><path stroke="#ffffff" stroke-width="1.0" stroke-linejoin="round" stroke-linecap="butt" d="m381.1299 304.18634l28.580048 4.969818l-7.6102295 6.3687744l-29.045929 -5.902893l-3.8832092 4.3490906l-4.0393677 -9.164032l19.106293 -4.1942444z" fill-rule="evenodd"/><path fill="#000000" fill-opacity="0.0" d="m300.39633 298.45538l8.724396 -7.212616" fill-rule="evenodd"/><path stroke="#000000" stroke-width="2.0" stroke-linejoin="round" stroke-linecap="butt" d="m300.39633 298.45538l8.724396 -7.212616" fill-rule="evenodd"/><path fill="#000000" fill-opacity="0.0" d="m326.64697 307.51837l3.795288 -4.0787354" fill-rule="evenodd"/><path stroke="#000000" stroke-width="2.0" stroke-linejoin="round" stroke-linecap="butt" d="m326.64697 307.51837l3.795288 -4.0787354" fill-rule="evenodd"/><path fill="#000000" fill-opacity="0.0" d="m338.2372 296.75903l3.2913208 -3.5590515" fill-rule="evenodd"/><path stroke="#000000" stroke-width="1.0" stroke-linejoin="round" stroke-linecap="butt" d="m338.2372 296.75903l3.2913208 -3.5590515" fill-rule="evenodd"/><path fill="#000000" fill-opacity="0.0" d="m308.72308 291.32285l30.015747 5.496063" fill-rule="evenodd"/><path stroke="#000000" stroke-width="2.0" stroke-linejoin="round" stroke-linecap="butt" d="m308.72308 291.32285l30.015747 5.496063" fill-rule="evenodd"/><path fill="#000000" fill-opacity="0.0" d="m346.64697 307.33072l-10.047241 8.598419" fill-rule="evenodd"/><path stroke="#000000" stroke-width="2.0" stroke-linejoin="round" stroke-linecap="butt" d="m346.64697 307.33072l-10.047241 8.598419" fill-rule="evenodd"/><path fill="#000000" fill-opacity="0.0" d="m346.24014 307.17453l10.629944 1.8425293" fill-rule="evenodd"/><path stroke="#000000" stroke-width="1.0" stroke-linejoin="round" stroke-linecap="butt" d="m346.24014 307.17453l10.629944 1.8425293" fill-rule="evenodd"/><path fill="#000000" fill-opacity="0.0" d="m345.83466 319.0178l5.716522 1.0551147" fill-rule="evenodd"/><path stroke="#000000" stroke-width="1.0" stroke-linejoin="round" stroke-linecap="butt" d="m345.83466 319.0178l5.716522 1.0551147" fill-rule="evenodd"/><path fill="#000000" fill-opacity="0.0" d="m331.45932 314.11154l5.464569 1.9370117" fill-rule="evenodd"/><path stroke="#000000" stroke-width="1.0" stroke-linejoin="round" stroke-linecap="butt" d="m331.45932 314.11154l5.464569 1.9370117" fill-rule="evenodd"/><path fill="#000000" fill-opacity="0.0" d="m331.61548 314.11154l-0.06298828 10.708679" fill-rule="evenodd"/><path stroke="#000000" stroke-width="1.0" stroke-linejoin="round" stroke-linecap="butt" d="m331.61548 314.11154l-0.06298828 10.708679" fill-rule="evenodd"/><path fill="#000000" fill-opacity="0.0" d="m381.58127 304.27823l28.330719 4.9448547" fill-rule="evenodd"/><path stroke="#000000" stroke-width="1.0" stroke-linejoin="round" stroke-linecap="butt" d="m381.58127 304.27823l28.330719 4.9448547" fill-rule="evenodd"/><path fill="#000000" fill-opacity="0.0" d="m384.83466 300.48688l-19.716553 4.4409485" fill-rule="evenodd"/><path stroke="#000000" stroke-width="2.0" stroke-linejoin="round" stroke-linecap="butt" d="m384.83466 300.48688l-19.716553 4.4409485" fill-rule="evenodd"/><path fill="#000000" fill-opacity="0.0" d="m364.86484 304.51837l4.2677 9.7323" fill-rule="evenodd"/><path stroke="#000000" stroke-width="2.0" stroke-linejoin="round" stroke-linecap="butt" d="m364.86484 304.51837l4.2677 9.7323" fill-rule="evenodd"/><path fill="#000000" fill-opacity="0.0" d="m355.60516 299.43216l9.51181 -8.299194" fill-rule="evenodd"/><path stroke="#000000" stroke-width="2.0" stroke-linejoin="round" stroke-linecap="butt" d="m355.60516 299.43216l9.51181 -8.299194" fill-rule="evenodd"/><path fill="#000000" fill-opacity="0.0" d="m357.5525 290.29922l22.37796 -7.0551453" fill-rule="evenodd"/><path stroke="#000000" stroke-width="2.0" stroke-linejoin="round" stroke-linecap="butt" d="m357.5525 290.29922l22.37796 -7.0551453" fill-rule="evenodd"/><path fill="#0096d5" d="m286.14697 295.9908l0 0c0 13.274414 27.493958 24.03543 61.409454 24.03543c33.915497 0 61.409454 -10.761017 61.409454 -24.03543l0 48.07086c0 13.274414 -27.493958 24.03543 -61.409454 24.03543c-33.915497 0 -61.409454 -10.761017 -61.409454 -24.03543z" fill-rule="evenodd"/><path fill="#66c0e5" d="m286.14697 295.9908l0 0c0 -13.274414 27.493958 -24.03543 61.409454 -24.03543c33.915497 0 61.409454 10.761017 61.409454 24.03543l0 0c0 13.274414 -27.493958 24.03543 -61.409454 24.03543c-33.915497 0 -61.409454 -10.761017 -61.409454 -24.03543z" fill-rule="evenodd"/><path fill="#000000" fill-opacity="0.0" d="m408.96588 295.9908l0 0c0 13.274414 -27.493958 24.03543 -61.409454 24.03543c-33.915497 0 -61.409454 -10.761017 -61.409454 -24.03543l0 0c0 -13.274414 27.493958 -24.03543 61.409454 -24.03543c33.915497 0 61.409454 10.761017 61.409454 24.03543l0 48.07086c0 13.274414 -27.493958 24.03543 -61.409454 24.03543c-33.915497 0 -61.409454 -10.761017 -61.409454 -24.03543l0 -48.07086" fill-rule="evenodd"/><path stroke="#ffffff" stroke-width="2.0" stroke-linejoin="round" stroke-linecap="butt" d="m408.96588 295.9908l0 0c0 13.274414 -27.493958 24.03543 -61.409454 24.03543c-33.915497 0 -61.409454 -10.761017 -61.409454 -24.03543l0 0c0 -13.274414 27.493958 -24.03543 61.409454 -24.03543c33.915497 0 61.409454 10.761017 61.409454 24.03543l0 48.07086c0 13.274414 -27.493958 24.03543 -61.409454 24.03543c-33.915497 0 -61.409454 -10.761017 -61.409454 -24.03543l0 -48.07086" fill-rule="evenodd"/><path fill="#ffffff" d="m300.59317 283.44882l29.666687 5.2808228l2.7965698 -3.1062927l6.0577393 8.543304l-20.192902 4.969818l3.572174 -3.7270203l-29.821533 -5.2808533z" fill-rule="evenodd"/><path stroke="#ffffff" stroke-width="1.0" stroke-linejoin="round" stroke-linecap="butt" d="m300.59317 283.44882l29.666687 5.2808228l2.7965698 -3.1062927l6.0577393 8.543304l-20.192902 4.969818l3.572174 -3.7270203l-29.821533 -5.2808533z" fill-rule="evenodd"/><path fill="#ffffff" d="m338.33728 299.29266l10.251953 1.7086487l-10.872711 9.9409485l5.5918884 1.0866089l-19.72705 4.3490906l0 -10.095795l5.1259766 1.7086487z" fill-rule="evenodd"/><path stroke="#ffffff" stroke-width="1.0" stroke-linejoin="round" stroke-linecap="butt" d="m338.33728 299.29266l10.251953 1.7086487l-10.872711 9.9409485l5.5918884 1.0866089l-19.72705 4.3490906l0 -10.095795l5.1259766 1.7086487z" fill-rule="evenodd"/><path fill="#ffffff" d="m347.5013 291.06036l9.009186 1.397644l9.9409485 -8.387146l5.591858 2.17453l-0.31103516 -10.717834l-21.745392 6.5236206l7.4553833 0.7769165z" fill-rule="evenodd"/><path stroke="#ffffff" stroke-width="1.0" stroke-linejoin="round" stroke-linecap="butt" d="m347.5013 291.06036l9.009186 1.397644l9.9409485 -8.387146l5.591858 2.17453l-0.31103516 -10.717834l-21.745392 6.5236206l7.4553833 0.7769165z" fill-rule="evenodd"/><path fill="#ffffff" d="m373.1299 296.18634l28.580048 4.969818l-7.6102295 6.3687744l-29.045929 -5.902893l-3.8832092 4.3490906l-4.0393677 -9.164032l19.106293 -4.1942444z" fill-rule="evenodd"/><path stroke="#ffffff" stroke-width="1.0" stroke-linejoin="round" stroke-linecap="butt" d="m373.1299 296.18634l28.580048 4.969818l-7.6102295 6.3687744l-29.045929 -5.902893l-3.8832092 4.3490906l-4.0393677 -9.164032l19.106293 -4.1942444z" fill-rule="evenodd"/><path fill="#000000" fill-opacity="0.0" d="m292.39633 290.45538l8.724396 -7.212616" fill-rule="evenodd"/><path stroke="#000000" stroke-width="2.0" stroke-linejoin="round" stroke-linecap="butt" d="m292.39633 290.45538l8.724396 -7.212616" fill-rule="evenodd"/><path fill="#000000" fill-opacity="0.0" d="m318.64697 299.51837l3.795288 -4.0787354" fill-rule="evenodd"/><path stroke="#000000" stroke-width="2.0" stroke-linejoin="round" stroke-linecap="butt" d="m318.64697 299.51837l3.795288 -4.0787354" fill-rule="evenodd"/><path fill="#000000" fill-opacity="0.0" d="m330.2372 288.75903l3.2913208 -3.5590515" fill-rule="evenodd"/><path stroke="#000000" stroke-width="1.0" stroke-linejoin="round" stroke-linecap="butt" d="m330.2372 288.75903l3.2913208 -3.5590515" fill-rule="evenodd"/><path fill="#000000" fill-opacity="0.0" d="m300.72308 283.32285l30.015747 5.496063" fill-rule="evenodd"/><path stroke="#000000" stroke-width="2.0" stroke-linejoin="round" stroke-linecap="butt" d="m300.72308 283.32285l30.015747 5.496063" fill-rule="evenodd"/><path fill="#000000" fill-opacity="0.0" d="m338.64697 299.33072l-10.047241 8.598419" fill-rule="evenodd"/><path stroke="#000000" stroke-width="2.0" stroke-linejoin="round" stroke-linecap="butt" d="m338.64697 299.33072l-10.047241 8.598419" fill-rule="evenodd"/><path fill="#000000" fill-opacity="0.0" d="m338.24014 299.17453l10.629944 1.8425293" fill-rule="evenodd"/><path stroke="#000000" stroke-width="1.0" stroke-linejoin="round" stroke-linecap="butt" d="m338.24014 299.17453l10.629944 1.8425293" fill-rule="evenodd"/><path fill="#000000" fill-opacity="0.0" d="m337.83466 311.0178l5.716522 1.0551147" fill-rule="evenodd"/><path stroke="#000000" stroke-width="1.0" stroke-linejoin="round" stroke-linecap="butt" d="m337.83466 311.0178l5.716522 1.0551147" fill-rule="evenodd"/><path fill="#000000" fill-opacity="0.0" d="m323.45932 306.11154l5.464569 1.9370117" fill-rule="evenodd"/><path stroke="#000000" stroke-width="1.0" stroke-linejoin="round" stroke-linecap="butt" d="m323.45932 306.11154l5.464569 1.9370117" fill-rule="evenodd"/><path fill="#000000" fill-opacity="0.0" d="m323.61548 306.11154l-0.06298828 10.708679" fill-rule="evenodd"/><path stroke="#000000" stroke-width="1.0" stroke-linejoin="round" stroke-linecap="butt" d="m323.61548 306.11154l-0.06298828 10.708679" fill-rule="evenodd"/><path fill="#000000" fill-opacity="0.0" d="m373.58127 296.27823l28.330719 4.9448547" fill-rule="evenodd"/><path stroke="#000000" stroke-width="1.0" stroke-linejoin="round" stroke-linecap="butt" d="m373.58127 296.27823l28.330719 4.9448547" fill-rule="evenodd"/><path fill="#000000" fill-opacity="0.0" d="m376.83466 292.48688l-19.716553 4.4409485" fill-rule="evenodd"/><path stroke="#000000" stroke-width="2.0" stroke-linejoin="round" stroke-linecap="butt" d="m376.83466 292.48688l-19.716553 4.4409485" fill-rule="evenodd"/><path fill="#000000" fill-opacity="0.0" d="m356.86484 296.51837l4.2677 9.7323" fill-rule="evenodd"/><path stroke="#000000" stroke-width="2.0" stroke-linejoin="round" stroke-linecap="butt" d="m356.86484 296.51837l4.2677 9.7323" fill-rule="evenodd"/><path fill="#000000" fill-opacity="0.0" d="m347.60516 291.43216l9.51181 -8.299194" fill-rule="evenodd"/><path stroke="#000000" stroke-width="2.0" stroke-linejoin="round" stroke-linecap="butt" d="m347.60516 291.43216l9.51181 -8.299194" fill-rule="evenodd"/><path fill="#000000" fill-opacity="0.0" d="m349.5525 282.29922l22.37796 -7.0551453" fill-rule="evenodd"/><path stroke="#000000" stroke-width="2.0" stroke-linejoin="round" stroke-linecap="butt" d="m349.5525 282.29922l22.37796 -7.0551453" fill-rule="evenodd"/><path fill="#0096d5" d="m278.14697 287.9908l0 0c0 13.274414 27.493958 24.03543 61.409454 24.03543c33.915497 0 61.409454 -10.761017 61.409454 -24.03543l0 48.07086c0 13.274414 -27.493958 24.03543 -61.409454 24.03543c-33.915497 0 -61.409454 -10.761017 -61.409454 -24.03543z" fill-rule="evenodd"/><path fill="#66c0e5" d="m278.14697 287.9908l0 0c0 -13.274414 27.493958 -24.03543 61.409454 -24.03543c33.915497 0 61.409454 10.761017 61.409454 24.03543l0 0c0 13.274414 -27.493958 24.03543 -61.409454 24.03543c-33.915497 0 -61.409454 -10.761017 -61.409454 -24.03543z" fill-rule="evenodd"/><path fill="#000000" fill-opacity="0.0" d="m400.96588 287.9908l0 0c0 13.274414 -27.493958 24.03543 -61.409454 24.03543c-33.915497 0 -61.409454 -10.761017 -61.409454 -24.03543l0 0c0 -13.274414 27.493958 -24.03543 61.409454 -24.03543c33.915497 0 61.409454 10.761017 61.409454 24.03543l0 48.07086c0 13.274414 -27.493958 24.03543 -61.409454 24.03543c-33.915497 0 -61.409454 -10.761017 -61.409454 -24.03543l0 -48.07086" fill-rule="evenodd"/><path stroke="#ffffff" stroke-width="2.0" stroke-linejoin="round" stroke-linecap="butt" d="m400.96588 287.9908l0 0c0 13.274414 -27.493958 24.03543 -61.409454 24.03543c-33.915497 0 -61.409454 -10.761017 -61.409454 -24.03543l0 0c0 -13.274414 27.493958 -24.03543 61.409454 -24.03543c33.915497 0 61.409454 10.761017 61.409454 24.03543l0 48.07086c0 13.274414 -27.493958 24.03543 -61.409454 24.03543c-33.915497 0 -61.409454 -10.761017 -61.409454 -24.03543l0 -48.07086" fill-rule="evenodd"/><path fill="#ffffff" d="m292.59317 275.44882l29.666687 5.2808228l2.7965698 -3.1062927l6.0577393 8.543304l-20.192902 4.969818l3.572174 -3.7270203l-29.821533 -5.2808533z" fill-rule="evenodd"/><path stroke="#ffffff" stroke-width="1.0" stroke-linejoin="round" stroke-linecap="butt" d="m292.59317 275.44882l29.666687 5.2808228l2.7965698 -3.1062927l6.0577393 8.543304l-20.192902 4.969818l3.572174 -3.7270203l-29.821533 -5.2808533z" fill-rule="evenodd"/><path fill="#ffffff" d="m330.33728 291.29266l10.251953 1.7086487l-10.872711 9.9409485l5.5918884 1.0866089l-19.72705 4.3490906l0 -10.095795l5.1259766 1.7086487z" fill-rule="evenodd"/><path stroke="#ffffff" stroke-width="1.0" stroke-linejoin="round" stroke-linecap="butt" d="m330.33728 291.29266l10.251953 1.7086487l-10.872711 9.9409485l5.5918884 1.0866089l-19.72705 4.3490906l0 -10.095795l5.1259766 1.7086487z" fill-rule="evenodd"/><path fill="#ffffff" d="m339.5013 283.06036l9.009186 1.397644l9.9409485 -8.387146l5.591858 2.17453l-0.31103516 -10.717834l-21.745392 6.5236206l7.4553833 0.7769165z" fill-rule="evenodd"/><path stroke="#ffffff" stroke-width="1.0" stroke-linejoin="round" stroke-linecap="butt" d="m339.5013 283.06036l9.009186 1.397644l9.9409485 -8.387146l5.591858 2.17453l-0.31103516 -10.717834l-21.745392 6.5236206l7.4553833 0.7769165z" fill-rule="evenodd"/><path fill="#ffffff" d="m365.1299 288.18634l28.580048 4.969818l-7.6102295 6.3687744l-29.045929 -5.902893l-3.8832092 4.3490906l-4.0393677 -9.164032l19.106293 -4.1942444z" fill-rule="evenodd"/><path stroke="#ffffff" stroke-width="1.0" stroke-linejoin="round" stroke-linecap="butt" d="m365.1299 288.18634l28.580048 4.969818l-7.6102295 6.3687744l-29.045929 -5.902893l-3.8832092 4.3490906l-4.0393677 -9.164032l19.106293 -4.1942444z" fill-rule="evenodd"/><path fill="#000000" fill-opacity="0.0" d="m284.39633 282.45538l8.724396 -7.212616" fill-rule="evenodd"/><path stroke="#000000" stroke-width="2.0" stroke-linejoin="round" stroke-linecap="butt" d="m284.39633 282.45538l8.724396 -7.212616" fill-rule="evenodd"/><path fill="#000000" fill-opacity="0.0" d="m310.64697 291.51837l3.795288 -4.0787354" fill-rule="evenodd"/><path stroke="#000000" stroke-width="2.0" stroke-linejoin="round" stroke-linecap="butt" d="m310.64697 291.51837l3.795288 -4.0787354" fill-rule="evenodd"/><path fill="#000000" fill-opacity="0.0" d="m322.2372 280.75903l3.2913208 -3.5590515" fill-rule="evenodd"/><path stroke="#000000" stroke-width="1.0" stroke-linejoin="round" stroke-linecap="butt" d="m322.2372 280.75903l3.2913208 -3.5590515" fill-rule="evenodd"/><path fill="#000000" fill-opacity="0.0" d="m292.72308 275.32285l30.015747 5.496063" fill-rule="evenodd"/><path stroke="#000000" stroke-width="2.0" stroke-linejoin="round" stroke-linecap="butt" d="m292.72308 275.32285l30.015747 5.496063" fill-rule="evenodd"/><path fill="#000000" fill-opacity="0.0" d="m330.64697 291.33072l-10.047241 8.598419" fill-rule="evenodd"/><path stroke="#000000" stroke-width="2.0" stroke-linejoin="round" stroke-linecap="butt" d="m330.64697 291.33072l-10.047241 8.598419" fill-rule="evenodd"/><path fill="#000000" fill-opacity="0.0" d="m330.24014 291.17453l10.629944 1.8425293" fill-rule="evenodd"/><path stroke="#000000" stroke-width="1.0" stroke-linejoin="round" stroke-linecap="butt" d="m330.24014 291.17453l10.629944 1.8425293" fill-rule="evenodd"/><path fill="#000000" fill-opacity="0.0" d="m329.83466 303.0178l5.716522 1.0551147" fill-rule="evenodd"/><path stroke="#000000" stroke-width="1.0" stroke-linejoin="round" stroke-linecap="butt" d="m329.83466 303.0178l5.716522 1.0551147" fill-rule="evenodd"/><path fill="#000000" fill-opacity="0.0" d="m315.45932 298.11154l5.464569 1.9370117" fill-rule="evenodd"/><path stroke="#000000" stroke-width="1.0" stroke-linejoin="round" stroke-linecap="butt" d="m315.45932 298.11154l5.464569 1.9370117" fill-rule="evenodd"/><path fill="#000000" fill-opacity="0.0" d="m315.61548 298.11154l-0.06298828 10.708679" fill-rule="evenodd"/><path stroke="#000000" stroke-width="1.0" stroke-linejoin="round" stroke-linecap="butt" d="m315.61548 298.11154l-0.06298828 10.708679" fill-rule="evenodd"/><path fill="#000000" fill-opacity="0.0" d="m365.58127 288.27823l28.330719 4.9448547" fill-rule="evenodd"/><path stroke="#000000" stroke-width="1.0" stroke-linejoin="round" stroke-linecap="butt" d="m365.58127 288.27823l28.330719 4.9448547" fill-rule="evenodd"/><path fill="#000000" fill-opacity="0.0" d="m368.83466 284.48688l-19.716553 4.4409485" fill-rule="evenodd"/><path stroke="#000000" stroke-width="2.0" stroke-linejoin="round" stroke-linecap="butt" d="m368.83466 284.48688l-19.716553 4.4409485" fill-rule="evenodd"/><path fill="#000000" fill-opacity="0.0" d="m348.86484 288.51837l4.2677 9.7323" fill-rule="evenodd"/><path stroke="#000000" stroke-width="2.0" stroke-linejoin="round" stroke-linecap="butt" d="m348.86484 288.51837l4.2677 9.7323" fill-rule="evenodd"/><path fill="#000000" fill-opacity="0.0" d="m339.60516 283.43216l9.51181 -8.299194" fill-rule="evenodd"/><path stroke="#000000" stroke-width="2.0" stroke-linejoin="round" stroke-linecap="butt" d="m339.60516 283.43216l9.51181 -8.299194" fill-rule="evenodd"/><path fill="#000000" fill-opacity="0.0" d="m341.5525 274.29922l22.37796 -7.0551453" fill-rule="evenodd"/><path stroke="#000000" stroke-width="2.0" stroke-linejoin="round" stroke-linecap="butt" d="m341.5525 274.29922l22.37796 -7.0551453" fill-rule="evenodd"/><path fill="#0096d5" d="m270.14697 279.9908l0 0c0 13.274414 27.493958 24.03543 61.409454 24.03543c33.915497 0 61.409454 -10.761017 61.409454 -24.03543l0 48.07086c0 13.274414 -27.493958 24.03543 -61.409454 24.03543c-33.915497 0 -61.409454 -10.761017 -61.409454 -24.03543z" fill-rule="evenodd"/><path fill="#66c0e5" d="m270.14697 279.9908l0 0c0 -13.274414 27.493958 -24.03543 61.409454 -24.03543c33.915497 0 61.409454 10.761017 61.409454 24.03543l0 0c0 13.274414 -27.493958 24.03543 -61.409454 24.03543c-33.915497 0 -61.409454 -10.761017 -61.409454 -24.03543z" fill-rule="evenodd"/><path fill="#000000" fill-opacity="0.0" d="m392.96588 279.9908l0 0c0 13.274414 -27.493958 24.03543 -61.409454 24.03543c-33.915497 0 -61.409454 -10.761017 -61.409454 -24.03543l0 0c0 -13.274414 27.493958 -24.03543 61.409454 -24.03543c33.915497 0 61.409454 10.761017 61.409454 24.03543l0 48.07086c0 13.274414 -27.493958 24.03543 -61.409454 24.03543c-33.915497 0 -61.409454 -10.761017 -61.409454 -24.03543l0 -48.07086" fill-rule="evenodd"/><path stroke="#ffffff" stroke-width="2.0" stroke-linejoin="round" stroke-linecap="butt" d="m392.96588 279.9908l0 0c0 13.274414 -27.493958 24.03543 -61.409454 24.03543c-33.915497 0 -61.409454 -10.761017 -61.409454 -24.03543l0 0c0 -13.274414 27.493958 -24.03543 61.409454 -24.03543c33.915497 0 61.409454 10.761017 61.409454 24.03543l0 48.07086c0 13.274414 -27.493958 24.03543 -61.409454 24.03543c-33.915497 0 -61.409454 -10.761017 -61.409454 -24.03543l0 -48.07086" fill-rule="evenodd"/><path fill="#ffffff" d="m284.59317 267.44882l29.666687 5.2808228l2.7965698 -3.1062927l6.0577393 8.543304l-20.192902 4.969818l3.572174 -3.7270203l-29.821533 -5.2808533z" fill-rule="evenodd"/><path stroke="#ffffff" stroke-width="1.0" stroke-linejoin="round" stroke-linecap="butt" d="m284.59317 267.44882l29.666687 5.2808228l2.7965698 -3.1062927l6.0577393 8.543304l-20.192902 4.969818l3.572174 -3.7270203l-29.821533 -5.2808533z" fill-rule="evenodd"/><path fill="#ffffff" d="m322.33728 283.29266l10.251953 1.7086487l-10.872711 9.9409485l5.5918884 1.0866089l-19.72705 4.3490906l0 -10.095795l5.1259766 1.7086487z" fill-rule="evenodd"/><path stroke="#ffffff" stroke-width="1.0" stroke-linejoin="round" stroke-linecap="butt" d="m322.33728 283.29266l10.251953 1.7086487l-10.872711 9.9409485l5.5918884 1.0866089l-19.72705 4.3490906l0 -10.095795l5.1259766 1.7086487z" fill-rule="evenodd"/><path fill="#ffffff" d="m331.5013 275.06036l9.009186 1.397644l9.9409485 -8.387146l5.591858 2.17453l-0.31103516 -10.717834l-21.745392 6.5236206l7.4553833 0.7769165z" fill-rule="evenodd"/><path stroke="#ffffff" stroke-width="1.0" stroke-linejoin="round" stroke-linecap="butt" d="m331.5013 275.06036l9.009186 1.397644l9.9409485 -8.387146l5.591858 2.17453l-0.31103516 -10.717834l-21.745392 6.5236206l7.4553833 0.7769165z" fill-rule="evenodd"/><path fill="#ffffff" d="m357.1299 280.18634l28.580048 4.969818l-7.6102295 6.3687744l-29.045929 -5.902893l-3.8832092 4.3490906l-4.0393677 -9.164032l19.106293 -4.1942444z" fill-rule="evenodd"/><path stroke="#ffffff" stroke-width="1.0" stroke-linejoin="round" stroke-linecap="butt" d="m357.1299 280.18634l28.580048 4.969818l-7.6102295 6.3687744l-29.045929 -5.902893l-3.8832092 4.3490906l-4.0393677 -9.164032l19.106293 -4.1942444z" fill-rule="evenodd"/><path fill="#000000" fill-opacity="0.0" d="m276.39633 274.45538l8.724396 -7.212616" fill-rule="evenodd"/><path stroke="#000000" stroke-width="2.0" stroke-linejoin="round" stroke-linecap="butt" d="m276.39633 274.45538l8.724396 -7.212616" fill-rule="evenodd"/><path fill="#000000" fill-opacity="0.0" d="m302.64697 283.51837l3.795288 -4.0787354" fill-rule="evenodd"/><path stroke="#000000" stroke-width="2.0" stroke-linejoin="round" stroke-linecap="butt" d="m302.64697 283.51837l3.795288 -4.0787354" fill-rule="evenodd"/><path fill="#000000" fill-opacity="0.0" d="m314.2372 272.75903l3.2913208 -3.5590515" fill-rule="evenodd"/><path stroke="#000000" stroke-width="1.0" stroke-linejoin="round" stroke-linecap="butt" d="m314.2372 272.75903l3.2913208 -3.5590515" fill-rule="evenodd"/><path fill="#000000" fill-opacity="0.0" d="m284.72308 267.32285l30.015747 5.496063" fill-rule="evenodd"/><path stroke="#000000" stroke-width="2.0" stroke-linejoin="round" stroke-linecap="butt" d="m284.72308 267.32285l30.015747 5.496063" fill-rule="evenodd"/><path fill="#000000" fill-opacity="0.0" d="m322.64697 283.33072l-10.047241 8.598419" fill-rule="evenodd"/><path stroke="#000000" stroke-width="2.0" stroke-linejoin="round" stroke-linecap="butt" d="m322.64697 283.33072l-10.047241 8.598419" fill-rule="evenodd"/><path fill="#000000" fill-opacity="0.0" d="m322.24014 283.17453l10.629944 1.8425293" fill-rule="evenodd"/><path stroke="#000000" stroke-width="1.0" stroke-linejoin="round" stroke-linecap="butt" d="m322.24014 283.17453l10.629944 1.8425293" fill-rule="evenodd"/><path fill="#000000" fill-opacity="0.0" d="m321.83466 295.0178l5.716522 1.0551147" fill-rule="evenodd"/><path stroke="#000000" stroke-width="1.0" stroke-linejoin="round" stroke-linecap="butt" d="m321.83466 295.0178l5.716522 1.0551147" fill-rule="evenodd"/><path fill="#000000" fill-opacity="0.0" d="m307.45932 290.11154l5.464569 1.9370117" fill-rule="evenodd"/><path stroke="#000000" stroke-width="1.0" stroke-linejoin="round" stroke-linecap="butt" d="m307.45932 290.11154l5.464569 1.9370117" fill-rule="evenodd"/><path fill="#000000" fill-opacity="0.0" d="m307.61548 290.11154l-0.06298828 10.708679" fill-rule="evenodd"/><path stroke="#000000" stroke-width="1.0" stroke-linejoin="round" stroke-linecap="butt" d="m307.61548 290.11154l-0.06298828 10.708679" fill-rule="evenodd"/><path fill="#000000" fill-opacity="0.0" d="m357.58127 280.27823l28.330719 4.9448547" fill-rule="evenodd"/><path stroke="#000000" stroke-width="1.0" stroke-linejoin="round" stroke-linecap="butt" d="m357.58127 280.27823l28.330719 4.9448547" fill-rule="evenodd"/><path fill="#000000" fill-opacity="0.0" d="m360.83466 276.48688l-19.716553 4.4409485" fill-rule="evenodd"/><path stroke="#000000" stroke-width="2.0" stroke-linejoin="round" stroke-linecap="butt" d="m360.83466 276.48688l-19.716553 4.4409485" fill-rule="evenodd"/><path fill="#000000" fill-opacity="0.0" d="m340.86484 280.51837l4.2677 9.7323" fill-rule="evenodd"/><path stroke="#000000" stroke-width="2.0" stroke-linejoin="round" stroke-linecap="butt" d="m340.86484 280.51837l4.2677 9.7323" fill-rule="evenodd"/><path fill="#000000" fill-opacity="0.0" d="m331.60516 275.43216l9.51181 -8.299194" fill-rule="evenodd"/><path stroke="#000000" stroke-width="2.0" stroke-linejoin="round" stroke-linecap="butt" d="m331.60516 275.43216l9.51181 -8.299194" fill-rule="evenodd"/><path fill="#000000" fill-opacity="0.0" d="m333.5525 266.29922l22.37796 -7.0551453" fill-rule="evenodd"/><path stroke="#000000" stroke-width="2.0" stroke-linejoin="round" stroke-linecap="butt" d="m333.5525 266.29922l22.37796 -7.0551453" fill-rule="evenodd"/><path fill="#000000" fill-opacity="0.0" d="m323.55643 296.02625l-3.7480164 142.58267" fill-rule="evenodd"/><path stroke="#cf0e30" stroke-width="3.0" stroke-linejoin="round" stroke-linecap="butt" d="m323.55643 296.02625l-3.7480164 142.58267" fill-rule="evenodd"/><path fill="#000000" fill-opacity="0.0" d="m323.55643 296.02625l140.44095 -191.62204" fill-rule="evenodd"/><path stroke="#cf0e30" stroke-width="3.0" stroke-linejoin="round" stroke-linecap="butt" d="m323.55643 296.02625l140.44095 -191.62204" fill-rule="evenodd"/><path fill="#000000" fill-opacity="0.0" d="m323.55643 296.02625l409.29135 -191.62204" fill-rule="evenodd"/><path stroke="#cf0e30" stroke-width="3.0" stroke-linejoin="round" stroke-linecap="butt" d="m323.55643 296.02625l409.29135 -191.62204" fill-rule="evenodd"/><path fill="#0096d5" d="m262.14697 271.9908l0 0c0 13.274414 27.493958 24.03543 61.409454 24.03543c33.915497 0 61.409454 -10.761017 61.409454 -24.03543l0 48.07086c0 13.274414 -27.493958 24.03543 -61.409454 24.03543c-33.915497 0 -61.409454 -10.761017 -61.409454 -24.03543z" fill-rule="evenodd"/><path fill="#66c0e5" d="m262.14697 271.9908l0 0c0 -13.274414 27.493958 -24.03543 61.409454 -24.03543c33.915497 0 61.409454 10.761017 61.409454 24.03543l0 0c0 13.274414 -27.493958 24.03543 -61.409454 24.03543c-33.915497 0 -61.409454 -10.761017 -61.409454 -24.03543z" fill-rule="evenodd"/><path fill="#000000" fill-opacity="0.0" d="m384.96588 271.9908l0 0c0 13.274414 -27.493958 24.03543 -61.409454 24.03543c-33.915497 0 -61.409454 -10.761017 -61.409454 -24.03543l0 0c0 -13.274414 27.493958 -24.03543 61.409454 -24.03543c33.915497 0 61.409454 10.761017 61.409454 24.03543l0 48.07086c0 13.274414 -27.493958 24.03543 -61.409454 24.03543c-33.915497 0 -61.409454 -10.761017 -61.409454 -24.03543l0 -48.07086" fill-rule="evenodd"/><path stroke="#ffffff" stroke-width="2.0" stroke-linejoin="round" stroke-linecap="butt" d="m384.96588 271.9908l0 0c0 13.274414 -27.493958 24.03543 -61.409454 24.03543c-33.915497 0 -61.409454 -10.761017 -61.409454 -24.03543l0 0c0 -13.274414 27.493958 -24.03543 61.409454 -24.03543c33.915497 0 61.409454 10.761017 61.409454 24.03543l0 48.07086c0 13.274414 -27.493958 24.03543 -61.409454 24.03543c-33.915497 0 -61.409454 -10.761017 -61.409454 -24.03543l0 -48.07086" fill-rule="evenodd"/><path fill="#ffffff" d="m276.59317 259.44882l29.666687 5.2808228l2.7965698 -3.1062927l6.0577393 8.543304l-20.192902 4.969818l3.572174 -3.7270203l-29.821533 -5.2808533z" fill-rule="evenodd"/><path stroke="#ffffff" stroke-width="1.0" stroke-linejoin="round" stroke-linecap="butt" d="m276.59317 259.44882l29.666687 5.2808228l2.7965698 -3.1062927l6.0577393 8.543304l-20.192902 4.969818l3.572174 -3.7270203l-29.821533 -5.2808533z" fill-rule="evenodd"/><path fill="#ffffff" d="m314.33728 275.29266l10.251953 1.7086487l-10.872711 9.9409485l5.5918884 1.0866089l-19.72705 4.3490906l0 -10.095795l5.1259766 1.7086487z" fill-rule="evenodd"/><path stroke="#ffffff" stroke-width="1.0" stroke-linejoin="round" stroke-linecap="butt" d="m314.33728 275.29266l10.251953 1.7086487l-10.872711 9.9409485l5.5918884 1.0866089l-19.72705 4.3490906l0 -10.095795l5.1259766 1.7086487z" fill-rule="evenodd"/><path fill="#ffffff" d="m323.5013 267.06036l9.009186 1.397644l9.9409485 -8.387146l5.591858 2.17453l-0.31103516 -10.717834l-21.745392 6.5236206l7.4553833 0.7769165z" fill-rule="evenodd"/><path stroke="#ffffff" stroke-width="1.0" stroke-linejoin="round" stroke-linecap="butt" d="m323.5013 267.06036l9.009186 1.397644l9.9409485 -8.387146l5.591858 2.17453l-0.31103516 -10.717834l-21.745392 6.5236206l7.4553833 0.7769165z" fill-rule="evenodd"/><path fill="#ffffff" d="m349.1299 272.18634l28.580048 4.969818l-7.6102295 6.3687744l-29.045929 -5.902893l-3.8832092 4.3490906l-4.0393677 -9.164032l19.106293 -4.1942444z" fill-rule="evenodd"/><path stroke="#ffffff" stroke-width="1.0" stroke-linejoin="round" stroke-linecap="butt" d="m349.1299 272.18634l28.580048 4.969818l-7.6102295 6.3687744l-29.045929 -5.902893l-3.8832092 4.3490906l-4.0393677 -9.164032l19.106293 -4.1942444z" fill-rule="evenodd"/><path fill="#000000" fill-opacity="0.0" d="m268.39633 266.45538l8.724396 -7.212616" fill-rule="evenodd"/><path stroke="#000000" stroke-width="2.0" stroke-linejoin="round" stroke-linecap="butt" d="m268.39633 266.45538l8.724396 -7.212616" fill-rule="evenodd"/><path fill="#000000" fill-opacity="0.0" d="m294.64697 275.51837l3.795288 -4.0787354" fill-rule="evenodd"/><path stroke="#000000" stroke-width="2.0" stroke-linejoin="round" stroke-linecap="butt" d="m294.64697 275.51837l3.795288 -4.0787354" fill-rule="evenodd"/><path fill="#000000" fill-opacity="0.0" d="m306.2372 264.75903l3.2913208 -3.5590515" fill-rule="evenodd"/><path stroke="#000000" stroke-width="1.0" stroke-linejoin="round" stroke-linecap="butt" d="m306.2372 264.75903l3.2913208 -3.5590515" fill-rule="evenodd"/><path fill="#000000" fill-opacity="0.0" d="m276.72308 259.32285l30.015747 5.496063" fill-rule="evenodd"/><path stroke="#000000" stroke-width="2.0" stroke-linejoin="round" stroke-linecap="butt" d="m276.72308 259.32285l30.015747 5.496063" fill-rule="evenodd"/><path fill="#000000" fill-opacity="0.0" d="m314.64697 275.33072l-10.047241 8.598419" fill-rule="evenodd"/><path stroke="#000000" stroke-width="2.0" stroke-linejoin="round" stroke-linecap="butt" d="m314.64697 275.33072l-10.047241 8.598419" fill-rule="evenodd"/><path fill="#000000" fill-opacity="0.0" d="m314.24014 275.17453l10.629944 1.8425293" fill-rule="evenodd"/><path stroke="#000000" stroke-width="1.0" stroke-linejoin="round" stroke-linecap="butt" d="m314.24014 275.17453l10.629944 1.8425293" fill-rule="evenodd"/><path fill="#000000" fill-opacity="0.0" d="m313.83466 287.0178l5.716522 1.0551147" fill-rule="evenodd"/><path stroke="#000000" stroke-width="1.0" stroke-linejoin="round" stroke-linecap="butt" d="m313.83466 287.0178l5.716522 1.0551147" fill-rule="evenodd"/><path fill="#000000" fill-opacity="0.0" d="m299.45932 282.11154l5.464569 1.9370117" fill-rule="evenodd"/><path stroke="#000000" stroke-width="1.0" stroke-linejoin="round" stroke-linecap="butt" d="m299.45932 282.11154l5.464569 1.9370117" fill-rule="evenodd"/><path fill="#000000" fill-opacity="0.0" d="m299.61548 282.11154l-0.06298828 10.708679" fill-rule="evenodd"/><path stroke="#000000" stroke-width="1.0" stroke-linejoin="round" stroke-linecap="butt" d="m299.61548 282.11154l-0.06298828 10.708679" fill-rule="evenodd"/><path fill="#000000" fill-opacity="0.0" d="m349.58127 272.27823l28.330719 4.9448547" fill-rule="evenodd"/><path stroke="#000000" stroke-width="1.0" stroke-linejoin="round" stroke-linecap="butt" d="m349.58127 272.27823l28.330719 4.9448547" fill-rule="evenodd"/><path fill="#000000" fill-opacity="0.0" d="m352.83466 268.48688l-19.716553 4.4409485" fill-rule="evenodd"/><path stroke="#000000" stroke-width="2.0" stroke-linejoin="round" stroke-linecap="butt" d="m352.83466 268.48688l-19.716553 4.4409485" fill-rule="evenodd"/><path fill="#000000" fill-opacity="0.0" d="m332.86484 272.51837l4.2677 9.7323" fill-rule="evenodd"/><path stroke="#000000" stroke-width="2.0" stroke-linejoin="round" stroke-linecap="butt" d="m332.86484 272.51837l4.2677 9.7323" fill-rule="evenodd"/><path fill="#000000" fill-opacity="0.0" d="m323.60516 267.43216l9.51181 -8.299194" fill-rule="evenodd"/><path stroke="#000000" stroke-width="2.0" stroke-linejoin="round" stroke-linecap="butt" d="m323.60516 267.43216l9.51181 -8.299194" fill-rule="evenodd"/><path fill="#000000" fill-opacity="0.0" d="m325.5525 258.29922l22.37796 -7.05513" fill-rule="evenodd"/><path stroke="#000000" stroke-width="2.0" stroke-linejoin="round" stroke-linecap="butt" d="m325.5525 258.29922l22.37796 -7.05513" fill-rule="evenodd"/><path fill="#0096d5" d="m402.59055 80.36089l0 0c0 13.274399 27.493958 24.03543 61.409454 24.03543c33.915497 0 61.409424 -10.761032 61.409424 -24.03543l0 48.07087c0 13.274399 -27.493927 24.03543 -61.409424 24.03543c-33.915497 0 -61.409454 -10.761032 -61.409454 -24.03543z" fill-rule="evenodd"/><path fill="#66c0e5" d="m402.59055 80.36089l0 0c0 -13.274406 27.493958 -24.035435 61.409454 -24.035435c33.915497 0 61.409424 10.761028 61.409424 24.035435l0 0c0 13.274399 -27.493927 24.03543 -61.409424 24.03543c-33.915497 0 -61.409454 -10.761032 -61.409454 -24.03543z" fill-rule="evenodd"/><path fill="#000000" fill-opacity="0.0" d="m525.4094 80.36089l0 0c0 13.274399 -27.493927 24.03543 -61.409424 24.03543c-33.915497 0 -61.409454 -10.761032 -61.409454 -24.03543l0 0c0 -13.274406 27.493958 -24.035435 61.409454 -24.035435c33.915497 0 61.409424 10.761028 61.409424 24.035435l0 48.07087c0 13.274399 -27.493927 24.03543 -61.409424 24.03543c-33.915497 0 -61.409454 -10.761032 -61.409454 -24.03543l0 -48.07087" fill-rule="evenodd"/><path stroke="#ffffff" stroke-width="2.0" stroke-linejoin="round" stroke-linecap="butt" d="m525.4094 80.36089l0 0c0 13.274399 -27.493927 24.03543 -61.409424 24.03543c-33.915497 0 -61.409454 -10.761032 -61.409454 -24.03543l0 0c0 -13.274406 27.493958 -24.035435 61.409454 -24.035435c33.915497 0 61.409424 10.761028 61.409424 24.035435l0 48.07087c0 13.274399 -27.493927 24.03543 -61.409424 24.03543c-33.915497 0 -61.409454 -10.761032 -61.409454 -24.03543l0 -48.07087" fill-rule="evenodd"/><path fill="#ffffff" d="m417.03674 67.8189l29.666656 5.280838l2.7966003 -3.1063004l6.0577393 8.543304l-20.192902 4.969818l3.572174 -3.7270355l-29.821533 -5.280838z" fill-rule="evenodd"/><path stroke="#ffffff" stroke-width="1.0" stroke-linejoin="round" stroke-linecap="butt" d="m417.03674 67.8189l29.666656 5.280838l2.7966003 -3.1063004l6.0577393 8.543304l-20.192902 4.969818l3.572174 -3.7270355l-29.821533 -5.280838z" fill-rule="evenodd"/><path fill="#ffffff" d="m454.78085 83.66273l10.251953 1.708664l-10.872711 9.940941l5.5918884 1.0866165l-19.72705 4.349083l0 -10.095802l5.1259766 1.708664z" fill-rule="evenodd"/><path stroke="#ffffff" stroke-width="1.0" stroke-linejoin="round" stroke-linecap="butt" d="m454.78085 83.66273l10.251953 1.708664l-10.872711 9.940941l5.5918884 1.0866165l-19.72705 4.349083l0 -10.095802l5.1259766 1.708664z" fill-rule="evenodd"/><path fill="#ffffff" d="m463.9449 75.43044l9.009186 1.397644l9.9409485 -8.387138l5.591858 2.1745377l-0.31103516 -10.71785l-21.745392 6.5236206l7.4553833 0.7769089z" fill-rule="evenodd"/><path stroke="#ffffff" stroke-width="1.0" stroke-linejoin="round" stroke-linecap="butt" d="m463.9449 75.43044l9.009186 1.397644l9.9409485 -8.387138l5.591858 2.1745377l-0.31103516 -10.71785l-21.745392 6.5236206l7.4553833 0.7769089z" fill-rule="evenodd"/><path fill="#ffffff" d="m489.5735 80.55643l28.580078 4.969818l-7.61026 6.368767l-29.045929 -5.9028854l-3.8832092 4.349083l-4.0393677 -9.164047l19.106293 -4.1942215z" fill-rule="evenodd"/><path stroke="#ffffff" stroke-width="1.0" stroke-linejoin="round" stroke-linecap="butt" d="m489.5735 80.55643l28.580078 4.969818l-7.61026 6.368767l-29.045929 -5.9028854l-3.8832092 4.349083l-4.0393677 -9.164047l19.106293 -4.1942215z" fill-rule="evenodd"/><path fill="#000000" fill-opacity="0.0" d="m408.8399 74.82546l8.724396 -7.2126007" fill-rule="evenodd"/><path stroke="#000000" stroke-width="2.0" stroke-linejoin="round" stroke-linecap="butt" d="m408.8399 74.82546l8.724396 -7.2126007" fill-rule="evenodd"/><path fill="#000000" fill-opacity="0.0" d="m435.09055 83.88845l3.795288 -4.078743" fill-rule="evenodd"/><path stroke="#000000" stroke-width="2.0" stroke-linejoin="round" stroke-linecap="butt" d="m435.09055 83.88845l3.795288 -4.078743" fill-rule="evenodd"/><path fill="#000000" fill-opacity="0.0" d="m446.6808 73.129105l3.2913208 -3.5590591" fill-rule="evenodd"/><path stroke="#000000" stroke-width="1.0" stroke-linejoin="round" stroke-linecap="butt" d="m446.6808 73.129105l3.2913208 -3.5590591" fill-rule="evenodd"/><path fill="#000000" fill-opacity="0.0" d="m417.16666 67.69292l30.015747 5.496063" fill-rule="evenodd"/><path stroke="#000000" stroke-width="2.0" stroke-linejoin="round" stroke-linecap="butt" d="m417.16666 67.69292l30.015747 5.496063" fill-rule="evenodd"/><path fill="#000000" fill-opacity="0.0" d="m455.09055 83.70079l-10.047241 8.598419" fill-rule="evenodd"/><path stroke="#000000" stroke-width="2.0" stroke-linejoin="round" stroke-linecap="butt" d="m455.09055 83.70079l-10.047241 8.598419" fill-rule="evenodd"/><path fill="#000000" fill-opacity="0.0" d="m454.68372 83.54462l10.629944 1.8425217" fill-rule="evenodd"/><path stroke="#000000" stroke-width="1.0" stroke-linejoin="round" stroke-linecap="butt" d="m454.68372 83.54462l10.629944 1.8425217" fill-rule="evenodd"/><path fill="#000000" fill-opacity="0.0" d="m454.27823 95.38788l5.716522 1.0551147" fill-rule="evenodd"/><path stroke="#000000" stroke-width="1.0" stroke-linejoin="round" stroke-linecap="butt" d="m454.27823 95.38788l5.716522 1.0551147" fill-rule="evenodd"/><path fill="#000000" fill-opacity="0.0" d="m439.9029 90.48163l5.464569 1.9370041" fill-rule="evenodd"/><path stroke="#000000" stroke-width="1.0" stroke-linejoin="round" stroke-linecap="butt" d="m439.9029 90.48163l5.464569 1.9370041" fill-rule="evenodd"/><path fill="#000000" fill-opacity="0.0" d="m440.05905 90.48163l-0.06298828 10.708664" fill-rule="evenodd"/><path stroke="#000000" stroke-width="1.0" stroke-linejoin="round" stroke-linecap="butt" d="m440.05905 90.48163l-0.06298828 10.708664" fill-rule="evenodd"/><path fill="#000000" fill-opacity="0.0" d="m490.02484 80.64829l28.33075 4.9448853" fill-rule="evenodd"/><path stroke="#000000" stroke-width="1.0" stroke-linejoin="round" stroke-linecap="butt" d="m490.02484 80.64829l28.33075 4.9448853" fill-rule="evenodd"/><path fill="#000000" fill-opacity="0.0" d="m493.27823 76.85696l-19.716553 4.440941" fill-rule="evenodd"/><path stroke="#000000" stroke-width="2.0" stroke-linejoin="round" stroke-linecap="butt" d="m493.27823 76.85696l-19.716553 4.440941" fill-rule="evenodd"/><path fill="#000000" fill-opacity="0.0" d="m473.3084 80.88845l4.2677 9.732285" fill-rule="evenodd"/><path stroke="#000000" stroke-width="2.0" stroke-linejoin="round" stroke-linecap="butt" d="m473.3084 80.88845l4.2677 9.732285" fill-rule="evenodd"/><path fill="#000000" fill-opacity="0.0" d="m464.0487 75.802246l9.51181 -8.29921" fill-rule="evenodd"/><path stroke="#000000" stroke-width="2.0" stroke-linejoin="round" stroke-linecap="butt" d="m464.0487 75.802246l9.51181 -8.29921" fill-rule="evenodd"/><path fill="#000000" fill-opacity="0.0" d="m465.99606 66.66929l22.37796 -7.0551147" fill-rule="evenodd"/><path stroke="#000000" stroke-width="2.0" stroke-linejoin="round" stroke-linecap="butt" d="m465.99606 66.66929l22.37796 -7.0551147" fill-rule="evenodd"/><path fill="#0096d5" d="m671.4278 80.36089l0 0c0 13.274399 27.493958 24.03543 61.409485 24.03543c33.915466 0 61.409424 -10.761032 61.409424 -24.03543l0 48.07087c0 13.274399 -27.493958 24.03543 -61.409424 24.03543c-33.915527 0 -61.409485 -10.761032 -61.409485 -24.03543z" fill-rule="evenodd"/><path fill="#66c0e5" d="m671.4278 80.36089l0 0c0 -13.274406 27.493958 -24.035435 61.409485 -24.035435c33.915466 0 61.409424 10.761028 61.409424 24.035435l0 0c0 13.274399 -27.493958 24.03543 -61.409424 24.03543c-33.915527 0 -61.409485 -10.761032 -61.409485 -24.03543z" fill-rule="evenodd"/><path fill="#000000" fill-opacity="0.0" d="m794.2467 80.36089l0 0c0 13.274399 -27.493958 24.03543 -61.409424 24.03543c-33.915527 0 -61.409485 -10.761032 -61.409485 -24.03543l0 0c0 -13.274406 27.493958 -24.035435 61.409485 -24.035435c33.915466 0 61.409424 10.761028 61.409424 24.035435l0 48.07087c0 13.274399 -27.493958 24.03543 -61.409424 24.03543c-33.915527 0 -61.409485 -10.761032 -61.409485 -24.03543l0 -48.07087" fill-rule="evenodd"/><path stroke="#ffffff" stroke-width="2.0" stroke-linejoin="round" stroke-linecap="butt" d="m794.2467 80.36089l0 0c0 13.274399 -27.493958 24.03543 -61.409424 24.03543c-33.915527 0 -61.409485 -10.761032 -61.409485 -24.03543l0 0c0 -13.274406 27.493958 -24.035435 61.409485 -24.035435c33.915466 0 61.409424 10.761028 61.409424 24.035435l0 48.07087c0 13.274399 -27.493958 24.03543 -61.409424 24.03543c-33.915527 0 -61.409485 -10.761032 -61.409485 -24.03543l0 -48.07087" fill-rule="evenodd"/><path fill="#ffffff" d="m685.874 67.8189l29.666687 5.280838l2.7965698 -3.1063004l6.0577393 8.543304l-20.192932 4.969818l3.5722046 -3.7270355l-29.821533 -5.280838z" fill-rule="evenodd"/><path stroke="#ffffff" stroke-width="1.0" stroke-linejoin="round" stroke-linecap="butt" d="m685.874 67.8189l29.666687 5.280838l2.7965698 -3.1063004l6.0577393 8.543304l-20.192932 4.969818l3.5722046 -3.7270355l-29.821533 -5.280838z" fill-rule="evenodd"/><path fill="#ffffff" d="m723.6181 83.66273l10.251953 1.708664l-10.872681 9.940941l5.591858 1.0866165l-19.72705 4.349083l0 -10.095802l5.1259766 1.708664z" fill-rule="evenodd"/><path stroke="#ffffff" stroke-width="1.0" stroke-linejoin="round" stroke-linecap="butt" d="m723.6181 83.66273l10.251953 1.708664l-10.872681 9.940941l5.591858 1.0866165l-19.72705 4.349083l0 -10.095802l5.1259766 1.708664z" fill-rule="evenodd"/><path fill="#ffffff" d="m732.78217 75.43044l9.009155 1.397644l9.940979 -8.387138l5.591858 2.1745377l-0.31103516 -10.71785l-21.745422 6.5236206l7.4553833 0.7769089z" fill-rule="evenodd"/><path stroke="#ffffff" stroke-width="1.0" stroke-linejoin="round" stroke-linecap="butt" d="m732.78217 75.43044l9.009155 1.397644l9.940979 -8.387138l5.591858 2.1745377l-0.31103516 -10.71785l-21.745422 6.5236206l7.4553833 0.7769089z" fill-rule="evenodd"/><path fill="#ffffff" d="m758.41077 80.55643l28.580017 4.969818l-7.6102295 6.368767l-29.045898 -5.9028854l-3.8832397 4.349083l-4.0393677 -9.164047l19.106323 -4.1942215z" fill-rule="evenodd"/><path stroke="#ffffff" stroke-width="1.0" stroke-linejoin="round" stroke-linecap="butt" d="m758.41077 80.55643l28.580017 4.969818l-7.6102295 6.368767l-29.045898 -5.9028854l-3.8832397 4.349083l-4.0393677 -9.164047l19.106323 -4.1942215z" fill-rule="evenodd"/><path fill="#000000" fill-opacity="0.0" d="m677.6772 74.82546l8.724365 -7.2126007" fill-rule="evenodd"/><path stroke="#000000" stroke-width="2.0" stroke-linejoin="round" stroke-linecap="butt" d="m677.6772 74.82546l8.724365 -7.2126007" fill-rule="evenodd"/><path fill="#000000" fill-opacity="0.0" d="m703.9278 83.88845l3.795288 -4.078743" fill-rule="evenodd"/><path stroke="#000000" stroke-width="2.0" stroke-linejoin="round" stroke-linecap="butt" d="m703.9278 83.88845l3.795288 -4.078743" fill-rule="evenodd"/><path fill="#000000" fill-opacity="0.0" d="m715.51807 73.129105l3.2913208 -3.5590591" fill-rule="evenodd"/><path stroke="#000000" stroke-width="1.0" stroke-linejoin="round" stroke-linecap="butt" d="m715.51807 73.129105l3.2913208 -3.5590591" fill-rule="evenodd"/><path fill="#000000" fill-opacity="0.0" d="m686.00397 67.69292l30.015747 5.496063" fill-rule="evenodd"/><path stroke="#000000" stroke-width="2.0" stroke-linejoin="round" stroke-linecap="butt" d="m686.00397 67.69292l30.015747 5.496063" fill-rule="evenodd"/><path fill="#000000" fill-opacity="0.0" d="m723.9278 83.70079l-10.047241 8.598419" fill-rule="evenodd"/><path stroke="#000000" stroke-width="2.0" stroke-linejoin="round" stroke-linecap="butt" d="m723.9278 83.70079l-10.047241 8.598419" fill-rule="evenodd"/><path fill="#000000" fill-opacity="0.0" d="m723.521 83.54462l10.629944 1.8425217" fill-rule="evenodd"/><path stroke="#000000" stroke-width="1.0" stroke-linejoin="round" stroke-linecap="butt" d="m723.521 83.54462l10.629944 1.8425217" fill-rule="evenodd"/><path fill="#000000" fill-opacity="0.0" d="m723.1155 95.38788l5.7165527 1.0551147" fill-rule="evenodd"/><path stroke="#000000" stroke-width="1.0" stroke-linejoin="round" stroke-linecap="butt" d="m723.1155 95.38788l5.7165527 1.0551147" fill-rule="evenodd"/><path fill="#000000" fill-opacity="0.0" d="m708.7402 90.48163l5.4645386 1.9370041" fill-rule="evenodd"/><path stroke="#000000" stroke-width="1.0" stroke-linejoin="round" stroke-linecap="butt" d="m708.7402 90.48163l5.4645386 1.9370041" fill-rule="evenodd"/><path fill="#000000" fill-opacity="0.0" d="m708.8963 90.48163l-0.06298828 10.708664" fill-rule="evenodd"/><path stroke="#000000" stroke-width="1.0" stroke-linejoin="round" stroke-linecap="butt" d="m708.8963 90.48163l-0.06298828 10.708664" fill-rule="evenodd"/><path fill="#000000" fill-opacity="0.0" d="m758.8621 80.64829l28.330688 4.9448853" fill-rule="evenodd"/><path stroke="#000000" stroke-width="1.0" stroke-linejoin="round" stroke-linecap="butt" d="m758.8621 80.64829l28.330688 4.9448853" fill-rule="evenodd"/><path fill="#000000" fill-opacity="0.0" d="m762.1155 76.85696l-19.716553 4.440941" fill-rule="evenodd"/><path stroke="#000000" stroke-width="2.0" stroke-linejoin="round" stroke-linecap="butt" d="m762.1155 76.85696l-19.716553 4.440941" fill-rule="evenodd"/><path fill="#000000" fill-opacity="0.0" d="m742.1457 80.88845l4.2677 9.732285" fill-rule="evenodd"/><path stroke="#000000" stroke-width="2.0" stroke-linejoin="round" stroke-linecap="butt" d="m742.1457 80.88845l4.2677 9.732285" fill-rule="evenodd"/><path fill="#000000" fill-opacity="0.0" d="m732.886 75.802246l9.511841 -8.29921" fill-rule="evenodd"/><path stroke="#000000" stroke-width="2.0" stroke-linejoin="round" stroke-linecap="butt" d="m732.886 75.802246l9.511841 -8.29921" fill-rule="evenodd"/><path fill="#000000" fill-opacity="0.0" d="m734.8333 66.66929l22.37799 -7.0551147" fill-rule="evenodd"/><path stroke="#000000" stroke-width="2.0" stroke-linejoin="round" stroke-linecap="butt" d="m734.8333 66.66929l22.37799 -7.0551147" fill-rule="evenodd"/><path fill="#b7b7b7" d="m266.0525 448.60663l99.007965 0l0 22.000092l-99.007965 0z" fill-rule="evenodd"/><path fill="#929292" d="m365.06046 448.60663l15.999908 -15.999908l0 22.000092l-15.999908 15.999908z" fill-rule="evenodd"/><path fill="#c5c5c5" d="m266.0525 448.60663l15.999908 -15.999908l99.007965 0l-15.999908 15.999908z" fill-rule="evenodd"/><path fill="#000000" fill-opacity="0.0" d="m266.0525 448.60663l15.999908 -15.999908l99.007965 0l0 22.000092l-15.999908 15.999908l-99.007965 0zm0 0l99.007965 0l15.999908 -15.999908m-15.999908 15.999908l0 22.000092" fill-rule="evenodd"/><path stroke="#000000" stroke-width="1.0" stroke-linejoin="round" stroke-linecap="butt" d="m266.0525 448.60663l15.999908 -15.999908l99.007965 0l0 22.000092l-15.999908 15.999908l-99.007965 0zm0 0l99.007965 0l15.999908 -15.999908m-15.999908 15.999908l0 22.000092" fill-rule="evenodd"/><path fill="#b7b7b7" d="m286.5525 400.10608l66.50067 0l0 43.996704l-66.50067 0z" fill-rule="evenodd"/><path fill="#929292" d="m353.05316 400.10608l11.499329 -11.499359l0 43.996735l-11.499329 11.499329z" fill-rule="evenodd"/><path fill="#c5c5c5" d="m286.5525 400.10608l11.499329 -11.499359l66.50067 0l-11.499329 11.499359z" fill-rule="evenodd"/><path fill="#000000" fill-opacity="0.0" d="m286.5525 400.10608l11.499329 -11.499359l66.50067 0l0 43.996735l-11.499329 11.499329l-66.50067 0zm0 0l66.50067 0l11.499329 -11.499359m-11.499329 11.499359l0 43.996704" fill-rule="evenodd"/><path stroke="#000000" stroke-width="1.0" stroke-linejoin="round" stroke-linecap="butt" d="m286.5525 400.10608l11.499329 -11.499359l66.50067 0l0 43.996735l-11.499329 11.499329l-66.50067 0zm0 0l66.50067 0l11.499329 -11.499359m-11.499329 11.499359l0 43.996704" fill-rule="evenodd"/><path fill="#cfe2f3" d="m293.5525 411.10553l0 0c0 -3.0368958 2.4618835 -5.49881 5.49881 -5.49881l41.506348 0c1.4583435 0 2.8569946 0.5793457 3.888214 1.6105652c1.0312195 1.0312195 1.6105652 2.4298706 1.6105652 3.8882446l0 21.994537c0 3.0368958 -2.4618835 5.4987793 -5.4987793 5.4987793l-41.506348 0c-3.0369263 0 -5.49881 -2.4618835 -5.49881 -5.4987793z" fill-rule="evenodd"/><path stroke="#000000" stroke-width="1.0" stroke-linejoin="round" stroke-linecap="butt" d="m293.5525 411.10553l0 0c0 -3.0368958 2.4618835 -5.49881 5.49881 -5.49881l41.506348 0c1.4583435 0 2.8569946 0.5793457 3.888214 1.6105652c1.0312195 1.0312195 1.6105652 2.4298706 1.6105652 3.8882446l0 21.994537c0 3.0368958 -2.4618835 5.4987793 -5.4987793 5.4987793l-41.506348 0c-3.0369263 0 -5.49881 -2.4618835 -5.49881 -5.4987793z" fill-rule="evenodd"/><path fill="#cccccc" d="m266.0656 475.83942l80.96063 0l0 2.5039368l-80.96063 0z" fill-rule="evenodd"/><path stroke="#000000" stroke-width="1.0" stroke-linejoin="round" stroke-linecap="butt" d="m266.0656 475.83942l80.96063 0l0 2.5039368l-80.96063 0z" fill-rule="evenodd"/><path fill="#999999" d="m266.0525 475.86435l9.650818 -12.472443l80.85312 0l-9.650787 12.472443z" fill-rule="evenodd"/><path stroke="#000000" stroke-width="1.0" stroke-linejoin="round" stroke-linecap="butt" d="m266.0525 475.86435l9.650818 -12.472443l80.85312 0l-9.650787 12.472443z" fill-rule="evenodd"/><path fill="#cccccc" d="m347.09317 478.3473l0 -2.545929l9.503937 -12.3897705l0 6.901581z" fill-rule="evenodd"/><path stroke="#000000" stroke-width="1.0" stroke-linejoin="round" stroke-linecap="butt" d="m347.09317 478.3473l0 -2.545929l9.503937 -12.3897705l0 6.901581z" fill-rule="evenodd"/><path fill="#000000" fill-opacity="0.0" d="m427.90814 103.53543l71.1496 0l0 42.015747l-71.1496 0z" fill-rule="evenodd"/><path fill="#ffffff" d="m454.1857 128.0133q0 0.765625 -0.28125 1.3125q-0.265625 0.546875 -0.734375 0.9375q-0.46875 0.375 -1.078125 0.625q-0.59375 0.234375 -1.25 0.375q-0.65625 0.125 -1.328125 0.171875q-0.65625 0.046875 -1.21875 0.046875q-0.578125 0 -1.1875 -0.046875q-0.59375 -0.03125 -1.203125 -0.140625q-0.59375 -0.09375 -1.1875 -0.265625q-0.578125 -0.171875 -1.09375 -0.421875l-0.015625 -11.734375q0.515625 -0.203125 1.078125 -0.375q0.578125 -0.171875 1.171875 -0.28125q0.59375 -0.109375 1.1875 -0.171875q0.59375 -0.0625 1.15625 -0.0625q0.640625 0 1.296875 0.078125q0.671875 0.078125 1.28125 0.28125q0.609375 0.1875 1.125 0.5q0.53125 0.296875 0.921875 0.75q0.40625 0.4375 0.625 1.03125q0.234375 0.59375 0.234375 1.359375q0 0.515625 -0.15625 0.96875q-0.140625 0.4375 -0.421875 0.796875q-0.265625 0.359375 -0.65625 0.609375q-0.390625 0.25 -0.890625 0.359375q0.59375 0.15625 1.078125 0.46875q0.5 0.296875 0.828125 0.734375q0.34375 0.421875 0.53125 0.953125q0.1875 0.53125 0.1875 1.140625zm-4.625 -5.1875q0 -0.265625 -0.109375 -0.453125q-0.109375 -0.1875 -0.265625 -0.296875q-0.15625 -0.125 -0.34375 -0.171875q-0.1875 -0.0625 -0.328125 -0.0625q-0.1875 0 -0.359375 0.0625q-0.171875 0.046875 -0.34375 0.125l-0.046875 2.015625q0.203125 0 0.515625 -0.03125q0.3125 -0.03125 0.59375 -0.15625q0.296875 -0.125 0.484375 -0.359375q0.203125 -0.25 0.203125 -0.671875zm-1.296875 2.96875q-0.265625 0 -0.5 0.0625l-0.046875 2.078125q0.140625 0.015625 0.265625 0.046875q0.140625 0.015625 0.265625 0.015625q0.1875 0 0.421875 -0.03125q0.234375 -0.046875 0.421875 -0.171875q0.203125 -0.125 0.328125 -0.328125q0.140625 -0.21875 0.140625 -0.5625q0 -0.34375 -0.140625 -0.5625q-0.125 -0.21875 -0.3125 -0.34375q-0.1875 -0.125 -0.421875 -0.15625q-0.21875 -0.046875 -0.421875 -0.046875zm17.008148 2.21875q0 0.765625 -0.28125 1.3125q-0.265625 0.546875 -0.734375 0.9375q-0.46875 0.375 -1.078125 0.625q-0.59375 0.234375 -1.25 0.375q-0.65625 0.125 -1.328125 0.171875q-0.65625 0.046875 -1.21875 0.046875q-0.578125 0 -1.1875 -0.046875q-0.59375 -0.03125 -1.203125 -0.140625q-0.59375 -0.09375 -1.1875 -0.265625q-0.578125 -0.171875 -1.09375 -0.421875l-0.015625 -11.734375q0.515625 -0.203125 1.078125 -0.375q0.578125 -0.171875 1.171875 -0.28125q0.59375 -0.109375 1.1875 -0.171875q0.59375 -0.0625 1.15625 -0.0625q0.640625 0 1.296875 0.078125q0.671875 0.078125 1.28125 0.28125q0.609375 0.1875 1.125 0.5q0.53125 0.296875 0.921875 0.75q0.40625 0.4375 0.625 1.03125q0.234375 0.59375 0.234375 1.359375q0 0.515625 -0.15625 0.96875q-0.140625 0.4375 -0.421875 0.796875q-0.265625 0.359375 -0.65625 0.609375q-0.390625 0.25 -0.890625 0.359375q0.59375 0.15625 1.078125 0.46875q0.5 0.296875 0.828125 0.734375q0.34375 0.421875 0.53125 0.953125q0.1875 0.53125 0.1875 1.140625zm-4.625 -5.1875q0 -0.265625 -0.109375 -0.453125q-0.109375 -0.1875 -0.265625 -0.296875q-0.15625 -0.125 -0.34375 -0.171875q-0.1875 -0.0625 -0.328125 -0.0625q-0.1875 0 -0.359375 0.0625q-0.171875 0.046875 -0.34375 0.125l-0.046875 2.015625q0.203125 0 0.515625 -0.03125q0.3125 -0.03125 0.59375 -0.15625q0.296875 -0.125 0.484375 -0.359375q0.203125 -0.25 0.203125 -0.671875zm-1.296875 2.96875q-0.265625 0 -0.5 0.0625l-0.046875 2.078125q0.140625 0.015625 0.265625 0.046875q0.140625 0.015625 0.265625 0.015625q0.1875 0 0.421875 -0.03125q0.234375 -0.046875 0.421875 -0.171875q0.203125 -0.125 0.328125 -0.328125q0.140625 -0.21875 0.140625 -0.5625q0 -0.34375 -0.140625 -0.5625q-0.125 -0.21875 -0.3125 -0.34375q-0.1875 -0.125 -0.421875 -0.15625q-0.21875 -0.046875 -0.421875 -0.046875zm17.086243 -3.3125q0 0.703125 -0.125 1.28125q-0.125 0.578125 -0.390625 1.0625q-0.265625 0.484375 -0.6875 0.90625q-0.40625 0.40625 -1.0 0.78125l2.171875 3.859375l-4.109375 0.796875l-1.390625 -3.875l-1.140625 0.03125l-0.15625 3.796875l-3.921875 0q0.046875 -2.078125 0.078125 -4.140625q0.046875 -2.0625 0.109375 -4.140625q0.015625 -1.046875 0.03125 -2.078125q0.015625 -1.03125 0.078125 -2.078125q0.640625 -0.234375 1.25 -0.390625q0.625 -0.15625 1.25 -0.234375q0.625 -0.09375 1.265625 -0.125q0.640625 -0.03125 1.3125 -0.03125q1.046875 0 2.015625 0.296875q0.96875 0.28125 1.703125 0.859375q0.75 0.5625 1.203125 1.421875q0.453125 0.859375 0.453125 2.0zm-4.078125 0.296875q0 -0.390625 -0.109375 -0.703125q-0.109375 -0.328125 -0.3125 -0.546875q-0.203125 -0.234375 -0.515625 -0.359375q-0.296875 -0.140625 -0.703125 -0.140625q-0.1875 0 -0.359375 0.03125q-0.171875 0.015625 -0.328125 0.0625l-0.15625 3.375l0.21875 0q0.390625 0 0.796875 -0.09375q0.40625 -0.09375 0.734375 -0.296875q0.328125 -0.21875 0.53125 -0.546875q0.203125 -0.328125 0.203125 -0.78125zm11.070526 -4.609375l-0.53125 12.953125l-3.96875 -0.1875l0.21875 -8.625l-1.453125 1.015625l-1.359375 -3.125l2.96875 -2.21875l4.125 0.1875z" fill-rule="nonzero"/><path fill="#000000" fill-opacity="0.0" d="m699.90814 103.53543l71.1496 0l0 42.015747l-71.1496 0z" fill-rule="evenodd"/><path fill="#ffffff" d="m725.05615 128.0133q0 0.765625 -0.28125 1.3125q-0.265625 0.546875 -0.734375 0.9375q-0.46875 0.375 -1.078125 0.625q-0.59375 0.234375 -1.25 0.375q-0.65625 0.125 -1.328125 0.171875q-0.65625 0.046875 -1.21875 0.046875q-0.578125 0 -1.1875 -0.046875q-0.59375 -0.03125 -1.203125 -0.140625q-0.59375 -0.09375 -1.1875 -0.265625q-0.578125 -0.171875 -1.09375 -0.421875l-0.015625 -11.734375q0.515625 -0.203125 1.078125 -0.375q0.578125 -0.171875 1.171875 -0.28125q0.59375 -0.109375 1.1875 -0.171875q0.59375 -0.0625 1.15625 -0.0625q0.640625 0 1.296875 0.078125q0.671875 0.078125 1.28125 0.28125q0.609375 0.1875 1.125 0.5q0.53125 0.296875 0.921875 0.75q0.40625 0.4375 0.625 1.03125q0.234375 0.59375 0.234375 1.359375q0 0.515625 -0.15625 0.96875q-0.140625 0.4375 -0.421875 0.796875q-0.265625 0.359375 -0.65625 0.609375q-0.390625 0.25 -0.890625 0.359375q0.59375 0.15625 1.078125 0.46875q0.5 0.296875 0.828125 0.734375q0.34375 0.421875 0.53125 0.953125q0.1875 0.53125 0.1875 1.140625zm-4.625 -5.1875q0 -0.265625 -0.109375 -0.453125q-0.109375 -0.1875 -0.265625 -0.296875q-0.15625 -0.125 -0.34375 -0.171875q-0.1875 -0.0625 -0.328125 -0.0625q-0.1875 0 -0.359375 0.0625q-0.171875 0.046875 -0.34375 0.125l-0.046875 2.015625q0.203125 0 0.515625 -0.03125q0.3125 -0.03125 0.59375 -0.15625q0.296875 -0.125 0.484375 -0.359375q0.203125 -0.25 0.203125 -0.671875zm-1.296875 2.96875q-0.265625 0 -0.5 0.0625l-0.046875 2.078125q0.140625 0.015625 0.265625 0.046875q0.140625 0.015625 0.265625 0.015625q0.1875 0 0.421875 -0.03125q0.234375 -0.046875 0.421875 -0.171875q0.203125 -0.125 0.328125 -0.328125q0.140625 -0.21875 0.140625 -0.5625q0 -0.34375 -0.140625 -0.5625q-0.125 -0.21875 -0.3125 -0.34375q-0.1875 -0.125 -0.421875 -0.15625q-0.21875 -0.046875 -0.421875 -0.046875zm17.008118 2.21875q0 0.765625 -0.28125 1.3125q-0.265625 0.546875 -0.734375 0.9375q-0.46875 0.375 -1.078125 0.625q-0.59375 0.234375 -1.25 0.375q-0.65625 0.125 -1.328125 0.171875q-0.65625 0.046875 -1.21875 0.046875q-0.578125 0 -1.1875 -0.046875q-0.59375 -0.03125 -1.203125 -0.140625q-0.59375 -0.09375 -1.1875 -0.265625q-0.578125 -0.171875 -1.09375 -0.421875l-0.015625 -11.734375q0.515625 -0.203125 1.078125 -0.375q0.578125 -0.171875 1.171875 -0.28125q0.59375 -0.109375 1.1875 -0.171875q0.59375 -0.0625 1.15625 -0.0625q0.640625 0 1.296875 0.078125q0.671875 0.078125 1.28125 0.28125q0.609375 0.1875 1.125 0.5q0.53125 0.296875 0.921875 0.75q0.40625 0.4375 0.625 1.03125q0.234375 0.59375 0.234375 1.359375q0 0.515625 -0.15625 0.96875q-0.140625 0.4375 -0.421875 0.796875q-0.265625 0.359375 -0.65625 0.609375q-0.390625 0.25 -0.890625 0.359375q0.59375 0.15625 1.078125 0.46875q0.5 0.296875 0.828125 0.734375q0.34375 0.421875 0.53125 0.953125q0.1875 0.53125 0.1875 1.140625zm-4.625 -5.1875q0 -0.265625 -0.109375 -0.453125q-0.109375 -0.1875 -0.265625 -0.296875q-0.15625 -0.125 -0.34375 -0.171875q-0.1875 -0.0625 -0.328125 -0.0625q-0.1875 0 -0.359375 0.0625q-0.171875 0.046875 -0.34375 0.125l-0.046875 2.015625q0.203125 0 0.515625 -0.03125q0.3125 -0.03125 0.59375 -0.15625q0.296875 -0.125 0.484375 -0.359375q0.203125 -0.25 0.203125 -0.671875zm-1.296875 2.96875q-0.265625 0 -0.5 0.0625l-0.046875 2.078125q0.140625 0.015625 0.265625 0.046875q0.140625 0.015625 0.265625 0.015625q0.1875 0 0.421875 -0.03125q0.234375 -0.046875 0.421875 -0.171875q0.203125 -0.125 0.328125 -0.328125q0.140625 -0.21875 0.140625 -0.5625q0 -0.34375 -0.140625 -0.5625q-0.125 -0.21875 -0.3125 -0.34375q-0.1875 -0.125 -0.421875 -0.15625q-0.21875 -0.046875 -0.421875 -0.046875zm17.086243 -3.3125q0 0.703125 -0.125 1.28125q-0.125 0.578125 -0.390625 1.0625q-0.265625 0.484375 -0.6875 0.90625q-0.40625 0.40625 -1.0 0.78125l2.171875 3.859375l-4.109375 0.796875l-1.390625 -3.875l-1.140625 0.03125l-0.15625 3.796875l-3.921875 0q0.046875 -2.078125 0.078125 -4.140625q0.046875 -2.0625 0.109375 -4.140625q0.015625 -1.046875 0.03125 -2.078125q0.015625 -1.03125 0.078125 -2.078125q0.640625 -0.234375 1.25 -0.390625q0.625 -0.15625 1.25 -0.234375q0.625 -0.09375 1.265625 -0.125q0.640625 -0.03125 1.3125 -0.03125q1.046875 0 2.015625 0.296875q0.96875 0.28125 1.703125 0.859375q0.75 0.5625 1.203125 1.421875q0.453125 0.859375 0.453125 2.0zm-4.078125 0.296875q0 -0.390625 -0.109375 -0.703125q-0.109375 -0.328125 -0.3125 -0.546875q-0.203125 -0.234375 -0.515625 -0.359375q-0.296875 -0.140625 -0.703125 -0.140625q-0.1875 0 -0.359375 0.03125q-0.171875 0.015625 -0.328125 0.0625l-0.15625 3.375l0.21875 0q0.390625 0 0.796875 -0.09375q0.40625 -0.09375 0.734375 -0.296875q0.328125 -0.21875 0.53125 -0.546875q0.203125 -0.328125 0.203125 -0.78125zm13.429871 -0.09375q0 0.71875 -0.265625 1.390625q-0.265625 0.65625 -0.703125 1.234375q-0.4375 0.578125 -0.984375 1.0625q-0.546875 0.484375 -1.109375 0.875l2.875 0l-0.21875 3.796875l-8.53125 -0.296875l0 -3.3125q0.484375 -0.15625 1.015625 -0.390625q0.53125 -0.234375 1.046875 -0.53125q0.515625 -0.3125 0.96875 -0.671875q0.46875 -0.375 0.8125 -0.8125q0.359375 -0.453125 0.5625 -0.96875q0.203125 -0.515625 0.203125 -1.125q0 -0.34375 -0.125 -0.609375q-0.109375 -0.265625 -0.328125 -0.4375q-0.21875 -0.1875 -0.515625 -0.265625q-0.28125 -0.09375 -0.609375 -0.09375q-0.28125 0 -0.5625 0.0625q-0.28125 0.0625 -0.5625 0.171875q-0.265625 0.109375 -0.515625 0.265625q-0.234375 0.15625 -0.421875 0.359375l-0.796875 -3.5625q0.328125 -0.34375 0.765625 -0.5625q0.4375 -0.234375 0.921875 -0.375q0.484375 -0.140625 0.984375 -0.203125q0.5 -0.0625 0.984375 -0.0625q1.078125 0 2.0 0.390625q0.9375 0.375 1.625 1.0625q0.6875 0.671875 1.078125 1.609375q0.40625 0.921875 0.40625 2.0z" fill-rule="nonzero"/><path fill="#000000" fill-opacity="0.0" d="m280.83728 298.88452l83.055115 0l0 42.015747l-83.055115 0z" fill-rule="evenodd"/><path fill="#ffffff" d="m300.59235 321.30426l-0.359375 3.765625l-7.125 0.5625q0.046875 -2.953125 0.109375 -5.875q0.0625 -2.921875 0.15625 -5.875l4.40625 0q-0.203125 1.84375 -0.375 3.703125q-0.171875 1.84375 -0.25 3.71875q0.390625 0.015625 0.78125 0.015625q0.390625 0 0.78125 0q0.484375 0 0.9375 0q0.453125 -0.015625 0.9375 -0.015625zm8.397369 -7.375q-0.046875 0.796875 -0.09375 1.578125q-0.03125 0.78125 -0.109375 1.578125l-3.578125 0.1875l-0.09375 1.0625l2.53125 0l-0.1875 2.625l-2.546875 0.078125l-0.078125 1.234375l2.09375 0l1.5 0q-0.0625 0.9375 -0.125 1.859375q-0.046875 0.90625 -0.078125 1.828125l-7.296875 0.171875l0.265625 -12.203125l7.796875 0zm10.956512 11.46875l-4.1875 0.546875l-0.515625 -1.90625l-1.921875 0l-0.421875 1.90625l-4.3125 -0.421875l3.359375 -11.265625l4.703125 -0.234375l3.296875 11.375zm-5.0 -3.953125l-0.640625 -2.9375l-0.625 2.9375l1.265625 0zm13.190735 -7.515625q-0.046875 0.796875 -0.09375 1.578125q-0.03125 0.78125 -0.109375 1.578125l-3.578125 0.1875l0 1.0625l3.109375 0l-0.171875 2.625l-2.953125 0.078125l0.015625 5.015625l-4.28125 0.078125l0.265625 -12.203125l7.796875 0z" fill-rule="nonzero"/><path fill="#ff9900" d="m334.37793 315.24176l-2.25 -0.0625l-0.25 9.765625l2.359375 0.015625l-0.015625 2.40625q-0.703125 -0.046875 -1.421875 -0.0625q-0.703125 0 -1.421875 0q-0.65625 0 -1.328125 0.015625q-0.65625 0.015625 -1.328125 0.0625q-0.046875 -2.078125 -0.046875 -4.15625q0 -2.59375 0.078125 -5.15625q0.078125 -2.5625 0.21875 -5.125q0.65625 -0.03125 1.296875 -0.046875q0.65625 -0.015625 1.296875 -0.015625q0.78125 0 1.5 0.03125q0.734375 0.015625 1.484375 0.09375l-0.171875 2.234375zm11.176483 -0.96875l-3.3125 5.734375l2.8125 4.984375l-3.53125 1.109375l-1.53125 -3.453125l-1.78125 3.46875l-3.65625 -1.328125l3.109375 -4.90625l-2.84375 -5.15625l3.875 -0.9375l1.390625 3.40625l1.46875 -3.40625l4.0 0.484375zm5.9259644 2.734375q0 2.59375 -0.078125 5.15625q-0.078125 2.5625 -0.21875 5.15625q-0.65625 0.046875 -1.3125 0.046875q-0.640625 0.015625 -1.296875 0.015625q-0.75 0 -1.484375 -0.03125q-0.734375 -0.015625 -1.46875 -0.078125l0.140625 -2.28125l2.25 0.078125l0.28125 -9.78125l-2.40625 -0.015625l0.03125 -2.375q0.703125 0.03125 1.40625 0.046875q0.71875 0.015625 1.4375 0.015625q0.671875 0 1.34375 -0.015625q0.671875 -0.015625 1.328125 -0.0625q0.03125 1.046875 0.03125 2.0625q0.015625 1.015625 0.015625 2.0625z" fill-rule="nonzero"/><path fill="#000000" fill-opacity="0.0" d="m168.83727 394.88452l130.23622 0l0 42.015747l-130.23622 0z" fill-rule="evenodd"/><path fill="#78909c" d="m210.73418 422.6124l-4.5625 0.21875l-0.03125 -4.203125l-2.09375 0l-0.125 3.984375l-4.09375 0l0.359375 -12.8125l4.328125 0.203125l-0.265625 6.546875l2.015625 0l0.015625 -7.03125l4.15625 0.109375l0.296875 12.984375zm12.115875 -6.4375q0 0.828125 -0.1875 1.609375q-0.1875 0.765625 -0.546875 1.4375q-0.359375 0.671875 -0.875 1.234375q-0.515625 0.5625 -1.15625 0.96875q-0.640625 0.390625 -1.40625 0.625q-0.75 0.21875 -1.59375 0.21875q-0.828125 0 -1.578125 -0.203125q-0.734375 -0.21875 -1.390625 -0.59375q-0.640625 -0.375 -1.171875 -0.90625q-0.515625 -0.546875 -0.890625 -1.1875q-0.359375 -0.65625 -0.5625 -1.40625q-0.203125 -0.75 -0.203125 -1.546875q0 -0.796875 0.1875 -1.5625q0.1875 -0.765625 0.546875 -1.4375q0.359375 -0.671875 0.875 -1.234375q0.515625 -0.5625 1.140625 -0.96875q0.640625 -0.421875 1.375 -0.640625q0.734375 -0.234375 1.5625 -0.234375q1.3125 0 2.40625 0.421875q1.09375 0.40625 1.859375 1.171875q0.765625 0.75 1.1875 1.828125q0.421875 1.078125 0.421875 2.40625zm-4.046875 0.25q0 -0.40625 -0.109375 -0.765625q-0.109375 -0.375 -0.328125 -0.65625q-0.21875 -0.28125 -0.546875 -0.453125q-0.3125 -0.1875 -0.734375 -0.1875q-0.4375 0 -0.78125 0.15625q-0.328125 0.15625 -0.578125 0.421875q-0.234375 0.265625 -0.359375 0.625q-0.125 0.359375 -0.125 0.765625q0 0.375 0.109375 0.765625q0.109375 0.375 0.328125 0.6875q0.21875 0.3125 0.53125 0.5q0.328125 0.1875 0.765625 0.1875q0.421875 0 0.765625 -0.15625q0.34375 -0.171875 0.578125 -0.453125q0.234375 -0.296875 0.359375 -0.671875q0.125 -0.375 0.125 -0.765625zm13.930862 1.34375q0 1.25 -0.4375 2.1875q-0.4375 0.921875 -1.1875 1.546875q-0.75 0.625 -1.765625 0.9375q-1.0 0.296875 -2.15625 0.296875q-0.4375 0 -0.984375 -0.125q-0.53125 -0.109375 -1.078125 -0.28125q-0.53125 -0.1875 -1.046875 -0.390625q-0.5 -0.203125 -0.890625 -0.390625l0.390625 -3.75q0.78125 0.46875 1.71875 0.71875q0.953125 0.234375 1.859375 0.234375q0.171875 0 0.40625 -0.015625q0.25 -0.015625 0.46875 -0.078125q0.234375 -0.078125 0.390625 -0.203125q0.15625 -0.140625 0.15625 -0.40625q0 -0.171875 -0.109375 -0.28125q-0.109375 -0.125 -0.28125 -0.203125q-0.171875 -0.078125 -0.390625 -0.109375q-0.21875 -0.046875 -0.4375 -0.0625q-0.203125 -0.03125 -0.390625 -0.03125q-0.171875 0 -0.28125 0q-0.796875 0 -1.4375 -0.265625q-0.640625 -0.28125 -1.109375 -0.765625q-0.453125 -0.484375 -0.703125 -1.15625q-0.25 -0.671875 -0.25 -1.453125q0 -1.078125 0.421875 -1.921875q0.4375 -0.859375 1.15625 -1.453125q0.734375 -0.59375 1.671875 -0.90625q0.9375 -0.328125 1.9375 -0.328125q0.453125 0 0.921875 0.03125q0.46875 0.03125 0.9375 0.125q0.46875 0.078125 0.90625 0.203125q0.453125 0.125 0.859375 0.3125l-0.34375 3.703125q-0.625 -0.21875 -1.3125 -0.359375q-0.671875 -0.140625 -1.3125 -0.140625q-0.125 0 -0.3125 0.015625q-0.171875 0 -0.390625 0.03125q-0.203125 0.015625 -0.421875 0.0625q-0.203125 0.046875 -0.359375 0.125q-0.15625 0.078125 -0.265625 0.203125q-0.09375 0.125 -0.09375 0.296875q0.015625 0.203125 0.15625 0.328125q0.140625 0.125 0.359375 0.1875q0.21875 0.0625 0.484375 0.09375q0.28125 0.03125 0.546875 0.03125q0.265625 0 0.484375 0q0.234375 0 0.375 0.015625q0.734375 0.046875 1.3125 0.3125q0.578125 0.265625 0.984375 0.703125q0.40625 0.4375 0.625 1.046875q0.21875 0.59375 0.21875 1.328125zm9.989258 -8.1875l-0.09375 3.859375l-2.71875 0.109375l-0.6875 8.640625l-3.84375 0.203125l0.015625 -8.640625l-2.71875 0.15625l0.109375 -4.3125l9.9375 -0.015625z" fill-rule="nonzero"/><path fill="#ffab40" d="m249.47806 410.87802l-2.421875 -0.046875l-0.28125 10.5l2.546875 0.03125l-0.015625 2.578125q-0.75 -0.046875 -1.515625 -0.0625q-0.765625 -0.015625 -1.546875 -0.015625q-0.703125 0 -1.421875 0.015625q-0.71875 0.03125 -1.4375 0.078125q-0.046875 -2.234375 -0.046875 -4.484375q0 -2.78125 0.078125 -5.53125q0.09375 -2.765625 0.234375 -5.515625q0.703125 -0.046875 1.390625 -0.0625q0.703125 -0.015625 1.40625 -0.015625q0.828125 0 1.609375 0.03125q0.796875 0.015625 1.59375 0.09375l-0.171875 2.40625zm12.024841 -1.03125l-3.5625 6.171875l3.03125 5.375l-3.8125 1.1875l-1.640625 -3.71875l-1.921875 3.734375l-3.9375 -1.421875l3.34375 -5.28125l-3.0625 -5.5625l4.171875 -1.0l1.5 3.65625l1.578125 -3.65625l4.3125 0.515625zm6.3910217 2.953125q0 2.78125 -0.09375 5.546875q-0.078125 2.75 -0.234375 5.546875q-0.703125 0.046875 -1.40625 0.046875q-0.6875 0.015625 -1.40625 0.015625q-0.796875 0 -1.59375 -0.03125q-0.78125 -0.015625 -1.59375 -0.09375l0.171875 -2.4375l2.421875 0.078125l0.296875 -10.53125l-2.59375 -0.03125l0.03125 -2.546875q0.765625 0.03125 1.53125 0.0625q0.765625 0.015625 1.53125 0.015625q0.734375 0 1.453125 -0.015625q0.71875 -0.03125 1.421875 -0.078125q0.03125 1.125 0.046875 2.21875q0.015625 1.09375 0.015625 2.234375z" fill-rule="nonzero"/></g></svg>